<?xml version="1.0" encoding="UTF-8"?>
<svg version="1.1" xmlns="http://www.w3.org/2000/svg" width="800" height="800">
<path d="M0 0 C264 0 528 0 800 0 C800 264 800 528 800 800 C536 800 272 800 0 800 C0 536 0 272 0 0 Z " fill="#646464" transform="translate(0,0)"/>
<path d="M0 0 C1.37333496 -0.04688965 1.37333496 -0.04688965 2.77441406 -0.09472656 C9.48233697 -0.04110403 14.06165277 2.23888964 19.0625 6.6875 C23.71277383 12.68530786 25.21159424 17.64368517 25.20967102 25.20756531 C25.21334771 25.980359 25.2170244 26.7531527 25.2208125 27.54936439 C25.23185338 30.1470927 25.23569387 32.74478102 25.23950195 35.3425293 C25.24576633 37.20189033 25.25241311 39.06125011 25.25941467 40.92060852 C25.27682736 45.9786536 25.28737733 51.03668922 25.2956202 56.09475684 C25.30077015 59.25490785 25.30684591 62.41505592 25.31313133 65.57520485 C25.33218479 75.46263503 25.3464152 85.35005774 25.3547433 95.23750275 C25.3645151 106.65059253 25.39083253 118.06348833 25.43124419 129.47650975 C25.46140709 138.29785536 25.47621237 147.11914538 25.47952431 155.94054157 C25.48187472 161.20915855 25.49083392 166.47756833 25.51598549 171.74612999 C25.53927398 176.70460246 25.54349624 181.66273144 25.53322411 186.62124443 C25.53272882 188.43847547 25.53904723 190.25572346 25.55278015 192.07290268 C25.57051897 194.55985003 25.5633838 197.04556729 25.55024719 199.53251648 C25.56670106 200.60341311 25.56670106 200.60341311 25.58348733 201.69594401 C25.50260659 208.06698147 23.25792296 213.08158829 19.203125 217.89453125 C18.57921875 218.42433594 17.9553125 218.95414063 17.3125 219.5 C16.39210938 220.31404297 16.39210938 220.31404297 15.453125 221.14453125 C9.18758487 225.18846646 2.59714278 226.26249355 -4.66796875 227.00390625 C-5.58024734 227.10589828 -6.49252594 227.20789032 -7.43244934 227.31297302 C-10.32899212 227.63508254 -13.22680123 227.94318309 -16.125 228.25 C-19.93145815 228.66375242 -23.73727959 229.08314554 -27.54296875 229.50390625 C-28.91532936 229.65419785 -28.91532936 229.65419785 -30.31541443 229.80752563 C-36.30903074 230.47386534 -42.25820933 231.29962839 -48.21166992 232.26538086 C-52.2936895 232.89751806 -56.38887393 233.29928335 -60.5 233.6875 C-65.70081696 234.20516797 -70.85094777 234.77211294 -76 235.6875 C-80.5481442 236.49412858 -85.09593911 237.07474794 -89.6875 237.5625 C-97.65717864 238.414668 -105.61010111 239.3745336 -113.5625 240.375 C-114.86735352 240.53911377 -116.17220703 240.70322754 -117.51660156 240.87231445 C-119.71502944 241.14898334 -121.91343857 241.42579938 -124.11181641 241.7028656 C-134.98664192 243.07294765 -145.86318444 244.42932899 -156.73944092 245.78799438 C-161.50046278 246.38279798 -166.26145257 246.9778576 -171.0223999 247.57325745 C-173.30851332 247.85892547 -175.59468632 248.14411709 -177.88092041 248.42881775 C-183.471731 249.12558702 -189.06129586 249.83038157 -194.64892578 250.55224609 C-196.26329529 250.75901222 -196.26329529 250.75901222 -197.91027832 250.96995544 C-199.91921871 251.22751969 -201.92780038 251.48790655 -203.93591309 251.75184631 C-230.21253103 255.10484922 -230.21253103 255.10484922 -239.9375 247.6875 C-245.75734833 242.32711338 -248.07572189 234.47653852 -248.39972782 226.74847901 C-248.482394 222.74632798 -248.47532969 218.74714387 -248.45507812 214.74438477 C-248.46050581 212.9381148 -248.46763208 211.13184927 -248.47631836 209.32559204 C-248.49447912 204.44325849 -248.48751387 199.56126488 -248.47480202 194.67892575 C-248.46463512 189.55514221 -248.47407805 184.43138668 -248.48034668 179.30760193 C-248.48761302 170.70395718 -248.47806268 162.10045001 -248.45898438 153.49682617 C-248.43722455 143.56970547 -248.44426468 133.64291354 -248.46629 123.71580082 C-248.48448116 115.17279432 -248.48698397 106.62988642 -248.47653532 98.0868668 C-248.47031991 92.99323102 -248.46941066 87.89974942 -248.48268127 82.80612373 C-248.49429311 78.01493302 -248.48611717 73.22416329 -248.46310425 68.43301773 C-248.45784523 66.68156188 -248.45928244 64.93007019 -248.46815491 63.17862892 C-248.5166147 52.63506729 -248.48206204 42.49444039 -241.6875 33.8125 C-235.28000768 28.86125593 -229.98967649 25.92159685 -221.9375 24.6875 C-220.95394531 24.52636719 -219.97039062 24.36523438 -218.95703125 24.19921875 C-211.13050309 22.99725487 -203.28437167 22.19198055 -195.40429688 21.43969727 C-190.28984991 20.94526831 -185.2125957 20.34494279 -180.125 19.625 C-174.04134646 18.77381637 -167.99851792 18.3143059 -161.86328125 18.03125 C-158.69698435 17.75400211 -155.69782639 17.32904487 -152.57421875 16.78125 C-144.56776817 15.39826657 -136.51209077 14.55920779 -128.4375 13.6875 C-126.809875 13.50930482 -125.18227099 13.33091773 -123.5546875 13.15234375 C-115.68605078 12.29226693 -107.81584092 11.45428509 -99.9375 10.6875 C-91.01355274 9.8167995 -82.09997411 8.85509348 -73.1875 7.875 C-72.42707397 7.79189575 -71.66664795 7.7087915 -70.88317871 7.62316895 C-61.76160546 6.62296074 -52.65697918 5.53977541 -43.5625 4.31640625 C-13.00406949 0.21998585 -13.00406949 0.21998585 0 0 Z " fill="#FCFCFC" transform="translate(525.9375,283.3125)"/>
<path d="M0 0 C2.50447712 3.62717376 2.92527722 5.17879022 2.7265625 9.52734375 C2.66082031 10.98624023 2.66082031 10.98624023 2.59375 12.47460938 C2.5421875 13.49361328 2.490625 14.51261719 2.4375 15.5625 C2.37175781 17.08520508 2.37175781 17.08520508 2.3046875 18.63867188 C1.94275458 26.23423625 1.94275458 26.23423625 0.8125 29.625 C-11.14154254 31.81438508 -23.02514972 33.27604823 -35.12646484 34.34375 C-42.28382879 35.00137349 -49.43159054 35.76288496 -56.578125 36.52832031 C-61.94912153 37.10094243 -67.30914992 37.65849407 -72.69921875 38.015625 C-88.39335245 39.12331826 -102.03727969 44.06892876 -113.1875 55.625 C-114.46524527 57.76327598 -114.46524527 57.76327598 -115.1875 59.625 C-114.28 58.75875 -113.3725 57.8925 -112.4375 57 C-102.70646625 48.63646387 -91.117503 45.51991413 -78.6875 44.125 C-77.58760742 43.99681885 -76.48771484 43.8686377 -75.35449219 43.73657227 C-67.13336727 42.79655992 -58.90238847 42.0310699 -50.65844727 41.32421875 C-44.99284942 40.8269184 -39.42306713 40.09758081 -33.81347656 39.15014648 C-29.42806792 38.51501223 -25.04135311 38.11369504 -20.62890625 37.71875 C-9.62557096 36.70180142 1.34111536 35.43759461 12.3125 34.125 C23.94136334 32.73374594 35.56641793 31.42565569 47.22860718 30.34495544 C55.4793105 29.57622476 63.7075512 28.65038767 71.9375 27.6875 C74.95301802 27.33761522 77.96869256 26.98908939 80.984375 26.640625 C81.72678436 26.55464554 82.46919373 26.46866608 83.23410034 26.38008118 C91.668733 25.4056529 100.10904429 24.48264705 108.55126953 23.57641602 C109.57333496 23.46483154 110.59540039 23.35324707 111.6484375 23.23828125 C112.53063965 23.14329346 113.4128418 23.04830566 114.32177734 22.95043945 C115.99563606 22.73173198 117.66261987 22.45288781 119.31713867 22.11791992 C121.85371131 21.61685934 124.3266641 21.34187896 126.90234375 21.125 C127.85173828 21.0425 128.80113281 20.96 129.77929688 20.875 C131.24979492 20.75125 131.24979492 20.75125 132.75 20.625 C138.48847714 20.14016497 144.13243474 19.5896963 149.8125 18.625 C160.52648083 17.86389754 169.59200592 19.08754307 178.06640625 26.02734375 C183.92310533 31.3861579 188.11975676 37.839041 189.8125 45.625 C189.9149847 48.38616202 189.96465054 51.12246319 189.96640015 53.88378906 C189.9707824 54.72403531 189.97516465 55.56428156 189.9796797 56.42998981 C189.99305169 59.25020383 189.99924304 62.0703866 190.00537109 64.890625 C190.01327347 66.91112916 190.02154251 68.93163191 190.03015137 70.95213318 C190.05636105 77.5930751 190.07168039 84.23402328 190.0859375 90.875 C190.09129807 93.16297408 190.09667558 95.45094812 190.10206985 97.73892212 C190.12369918 107.25931756 190.14243418 116.77971132 190.15369225 126.30012512 C190.16991959 139.93230003 190.20306756 153.56418937 190.26009309 167.19625664 C190.29884128 176.78710366 190.31833087 186.37787446 190.32361281 195.96879768 C190.32726023 201.6936431 190.33921673 207.41818387 190.37171555 213.14294434 C190.40188089 218.53403079 190.40807767 223.92462961 190.39633179 229.31578255 C190.39611175 231.28775924 190.40435887 233.25975911 190.42198563 235.23165703 C190.54461786 249.74805825 189.15593119 261.49393187 178.48828125 272.37109375 C163.10752526 285.32685464 141.22022953 285.79087731 122.10546875 287.81640625 C101.32628807 290.05927699 80.6082344 292.9195246 59.87951279 295.58512497 C57.59503854 295.87885231 55.31053709 296.17236743 53.02603149 296.46585083 C30.21001918 299.39761426 7.40010964 302.37208443 -15.40112305 305.41699219 C-25.47923413 306.76014831 -35.55861036 308.0551364 -45.65942383 309.21606445 C-48.49342535 309.54455055 -51.32311752 309.89118007 -54.15234375 310.2578125 C-72.36243156 312.56026274 -90.10530624 313.92857359 -106.1875 303.625 C-109.80666498 300.69706837 -113.14956358 297.48992514 -116.47265625 294.234375 C-119.09856558 291.55670406 -119.09856558 291.55670406 -122.1875 289.625 C-122.1875 288.965 -122.1875 288.305 -122.1875 287.625 C-122.77789062 287.35816406 -123.36828125 287.09132813 -123.9765625 286.81640625 C-132.40106374 282.27670152 -138.56611752 272.2019585 -142.1875 263.625 C-143.17717064 258.9437825 -143.33359361 254.37083044 -143.32794189 249.60577393 C-143.33091302 248.81549388 -143.33388414 248.02521383 -143.3369453 247.2109859 C-143.34559307 244.57196152 -143.34713721 241.93298272 -143.34863281 239.29394531 C-143.35326374 237.39797876 -143.35828877 235.50201313 -143.36367798 233.60604858 C-143.37677694 228.46126877 -143.38324197 223.31650199 -143.38768864 218.17170811 C-143.39062322 214.95507444 -143.39472874 211.73844432 -143.39919281 208.52181244 C-143.41286074 198.45071214 -143.42253102 188.37961995 -143.4263947 178.30851102 C-143.43087477 166.69571583 -143.4484233 155.08303838 -143.4773953 143.47027898 C-143.49903178 134.48493563 -143.50910002 125.49962536 -143.51043582 116.51425624 C-143.51148237 111.15176407 -143.51735847 105.7893827 -143.53525543 100.42691803 C-143.55177024 95.3806188 -143.55387505 90.33451324 -143.54511642 85.28819656 C-143.5443479 83.44117081 -143.54866437 81.59413449 -143.55857468 79.74713516 C-143.66979523 57.71847588 -143.66979523 57.71847588 -137.25 48.8125 C-136.46109375 47.71228516 -136.46109375 47.71228516 -135.65625 46.58984375 C-134.92921875 45.61724609 -134.92921875 45.61724609 -134.1875 44.625 C-133.548125 43.7175 -132.90875 42.81 -132.25 41.875 C-125.39725378 34.39927685 -115.15627011 30.07585387 -105.1875 28.625 C-103.08426466 28.5590265 -100.97914276 28.53937755 -98.875 28.5625 C-97.27205078 28.57603516 -97.27205078 28.57603516 -95.63671875 28.58984375 C-94.82847656 28.60144531 -94.02023437 28.61304688 -93.1875 28.625 C-93.1875 32.255 -93.1875 35.885 -93.1875 39.625 C-92.55777453 37.18863495 -91.93315561 34.75117979 -91.3125 32.3125 C-91.1254248 31.58426025 -90.93834961 30.85602051 -90.74560547 30.10571289 C-89.69403164 25.93207801 -88.88517324 21.83368789 -88.3125 17.5625 C-87.43429102 12.40205076 -85.34824653 8.84652609 -81.1875 5.625 C-76.70955612 3.40618464 -72.33522895 3.05494925 -67.43359375 2.625 C-66.1502993 2.50318359 -66.1502993 2.50318359 -64.84107971 2.37890625 C-62.10299398 2.12052743 -59.36408909 1.87249203 -56.625 1.625 C-54.84173105 1.45903913 -53.05852708 1.29237847 -51.27539062 1.125 C-48.60260903 0.87438329 -45.92976755 0.62464759 -43.25657654 0.37843323 C-36.10600086 -0.28083336 -28.96096537 -0.98910257 -21.81809998 -1.72717285 C-4.66671561 -3.47716065 -4.66671561 -3.47716065 0 0 Z M113.69335938 38.20166016 C108.53869985 38.95913301 103.36398791 39.53887997 98.1875 40.125 C97.09759766 40.2492334 96.00769531 40.3734668 94.88476562 40.50146484 C85.92061587 41.51511139 76.95101977 42.47692456 67.98022461 43.4296875 C54.43870536 44.87005745 40.90544368 46.38358984 27.37174988 47.89535522 C22.4803411 48.44105244 17.58810683 48.97858369 12.6953125 49.51171875 C10.83144897 49.71571289 10.83144897 49.71571289 8.92993164 49.92382812 C6.62722647 50.17559014 4.32433941 50.42569631 2.02124023 50.67382812 C1.00489502 50.78533203 -0.0114502 50.89683594 -1.05859375 51.01171875 C-1.93443115 51.10670654 -2.81026855 51.20169434 -3.71264648 51.29956055 C-5.3870011 51.51973562 -7.05435557 51.8000325 -8.7097168 52.13427734 C-11.13846477 52.61528862 -13.4945691 52.88692099 -15.9609375 53.08984375 C-16.86030029 53.16654297 -17.75966309 53.24324219 -18.6862793 53.32226562 C-19.63543213 53.40154297 -20.58458496 53.48082031 -21.5625 53.5625 C-29.21971396 54.22829028 -36.80719659 55.05093293 -44.41796875 56.125 C-48.83406061 56.71076141 -53.25612701 57.17283705 -57.6875 57.625 C-59.29953043 57.79508774 -60.91151034 57.96565509 -62.5234375 58.13671875 C-64.79770845 58.37801449 -67.07148277 58.61417417 -69.34863281 58.82666016 C-80.42996478 59.86144175 -88.75651833 61.88266863 -96.1875 70.625 C-100.48250882 76.66982723 -101.48708506 83.13060877 -101.46165466 90.40934753 C-101.46689134 91.1623189 -101.47212802 91.91529028 -101.47752339 92.69107896 C-101.49244799 95.19799735 -101.49322687 97.70471027 -101.49389648 100.21166992 C-101.50152313 102.01587261 -101.50995149 103.82007206 -101.51911926 105.62426758 C-101.54102318 110.51500501 -101.54985781 115.40567993 -101.55494571 120.29646087 C-101.55859458 123.35616463 -101.56483745 126.41585215 -101.5719471 129.4755497 C-101.59642874 140.16184835 -101.60949041 150.84809857 -101.61303711 161.53442383 C-101.61666986 171.47568526 -101.64654998 181.41663749 -101.68844169 191.35780448 C-101.72320279 199.90839156 -101.73858657 208.45887648 -101.73928314 217.0095337 C-101.74007406 222.10946876 -101.74872737 227.20908874 -101.77728081 232.30895042 C-101.80356081 237.10997665 -101.80561146 241.91042879 -101.78962517 246.71149445 C-101.78781847 248.46577271 -101.79443038 250.22008474 -101.81044388 251.97429085 C-101.90023128 262.45570852 -101.77903576 272.76774511 -94.7801733 281.35089397 C-88.91524778 286.69206546 -82.45182503 288.12481627 -74.84375 287.94921875 C-74.06012085 287.93928391 -73.2764917 287.92934906 -72.46911621 287.91911316 C-64.90043831 287.75032342 -57.47697269 286.86889663 -49.99365234 285.77441406 C-45.8847873 285.17413524 -41.77003645 284.61615383 -37.65625 284.05078125 C-36.80015137 283.93199615 -35.94405273 283.81321106 -35.06201172 283.69082642 C-25.45322927 282.36593765 -15.82178047 281.24605394 -6.1875 280.125 C9.17934206 278.32835791 24.52325853 276.39595814 39.85546875 274.32421875 C48.15568063 273.2073851 56.45761868 272.18343577 64.7869873 271.30622864 C68.7848336 270.87937347 72.73231122 270.34706748 76.6875 269.625 C82.84339742 268.52756982 89.03243034 267.95718108 95.25732422 267.41015625 C99.64076867 267.00853868 103.93942202 266.45369927 108.2734375 265.6796875 C113.41235809 264.79060658 118.53924166 264.19842699 123.7265625 263.6953125 C124.90795807 263.57878326 124.90795807 263.57878326 126.11322021 263.4598999 C129.37776844 263.13960056 132.64234808 262.82210089 135.90917969 262.52587891 C153.16491927 261.02634664 153.16491927 261.02634664 167.33984375 251.69921875 C171.21192891 246.24543303 172.25623131 241.22920208 172.20690918 234.63737488 C172.21604584 233.47517448 172.21604584 233.47517448 172.22536707 232.28949529 C172.2419367 229.70871444 172.23722998 227.12843025 172.23242188 224.54760742 C172.23976578 222.69089752 172.24835295 220.83419219 172.25808716 218.97749329 C172.28027954 213.94429849 172.28323492 208.91126754 172.28133965 203.87803054 C172.28121982 199.67094643 172.28978885 195.46389688 172.29811716 191.25682241 C172.31734357 181.32768556 172.32023804 171.39863278 172.31347656 161.46948242 C172.30683822 151.23960818 172.32969366 141.01009472 172.36679029 130.78029364 C172.39751964 121.9859927 172.40884375 113.19180762 172.40495348 104.39745408 C172.4028891 99.1500485 172.40831705 93.90292364 172.43284607 88.65556908 C172.45516365 83.71828453 172.45319365 78.78158501 172.43291855 73.84429741 C172.42951722 72.03758537 172.43455961 70.23083357 172.44890213 68.42417526 C172.6725693 54.72782196 172.6725693 54.72782196 166.8125 42.625 C152.94879991 29.97432106 130.8220856 35.54964429 113.69335938 38.20166016 Z " fill="#1F1F1F" transform="translate(379.1875,248.375)"/>
<path d="M0 0 C-0.391875 1.258125 -0.78375 2.51625 -1.1875 3.8125 C-6.6763928 22.33110095 -10.47680529 41.02998282 -14 60 C-14.32537566 61.74351668 -14.65087313 63.48701064 -14.9765625 65.23046875 C-15.45927418 67.8147033 -15.93956836 70.39933431 -16.41796875 72.984375 C-16.9128518 75.54846702 -17.46375159 78.0837472 -18.0625 80.625 C-19.21959041 85.60718269 -19.80973597 90.66673496 -20.5 95.73046875 C-20.87762567 98.1997866 -21.32091164 100.48227461 -22 102.875 C-23.5715386 108.66167314 -23.99738706 114.68153112 -24.71142578 120.62109375 C-29.07481487 156.59136726 -29.07481487 156.59136726 -39 166 C-52.42036073 176.45687413 -68.43428604 181.16932905 -85.25 181.4375 C-86.07757813 181.45981689 -86.90515625 181.48213379 -87.7578125 181.50512695 C-95.62843712 181.47605216 -101.89132041 179.27494631 -107.6796875 173.84765625 C-111.4491878 169.7649341 -114.28966033 165.19627762 -117.125 160.4375 C-117.6813916 159.52202393 -118.2377832 158.60654785 -118.81103516 157.66333008 C-123.26162934 150.31390303 -127.60460042 142.90021148 -131.95874023 135.4934082 C-136.28722367 128.15323704 -140.70579062 120.87241989 -145.1875 113.625 C-145.8357373 112.56563232 -146.48397461 111.50626465 -147.15185547 110.41479492 C-147.75529785 109.44517822 -148.35874023 108.47556152 -148.98046875 107.4765625 C-149.51567139 106.61111816 -150.05087402 105.74567383 -150.60229492 104.85400391 C-151.0635376 104.24218262 -151.52478027 103.63036133 -152 103 C-152.66 103 -153.32 103 -154 103 C-154.09578339 103.55186478 -154.19156677 104.10372955 -154.29025269 104.6723175 C-155.2956789 110.4646603 -156.30172084 116.25689592 -157.30810547 122.04907227 C-157.68260941 124.20496983 -158.05696123 126.36089382 -158.43115234 128.5168457 C-158.97192123 131.6323955 -159.51325407 134.74784688 -160.0546875 137.86328125 C-160.21935516 138.81270096 -160.38402283 139.76212067 -160.55368042 140.74031067 C-166.8702027 177.06180454 -166.8702027 177.06180454 -177.76171875 185.5625 C-191.22429421 194.20862176 -207.87397613 200 -224 200 C-223.38800614 196.53861538 -222.48879015 193.2411706 -221.43920898 189.88842773 C-218.49340546 180.4244458 -216.30907062 170.83373491 -214.23168945 161.14599609 C-212.93736192 155.12793387 -211.55374864 149.14507218 -210.03515625 143.1796875 C-207.97329152 135.05880054 -206.20907123 126.88881144 -204.5 118.6875 C-204.19459538 117.23244878 -203.88892831 115.77745261 -203.58300781 114.32250977 C-202.98684319 111.48548783 -202.39220685 108.64815273 -201.79882812 105.81054688 C-201.12719083 102.60672204 -200.44945234 99.40436416 -199.765625 96.203125 C-197.6941169 86.494606 -195.77818987 76.76657316 -194 67 C-193.67 67 -193.34 67 -193 67 C-193.31231197 71.66824205 -193.6529915 76.33423388 -194 81 C-194.08870361 82.21502197 -194.08870361 82.21502197 -194.17919922 83.45458984 C-196.48210948 114.51750919 -199.51753594 145.71990074 -207 176 C-207.68500037 178.99639828 -208.3447857 181.99693447 -209 185 C-194.06710025 172.21171883 -190.33718263 155.39988848 -186 137 C-185.82098145 136.25089355 -185.64196289 135.50178711 -185.45751953 134.72998047 C-183.61068321 126.90726689 -182.24309476 118.98991062 -180.88671875 111.0703125 C-180.21663868 107.18305512 -179.49908033 103.30621331 -178.76953125 99.4296875 C-176.13576125 85.30584087 -174.03927753 71.33272292 -173 57 C-172.34 57 -171.68 57 -171 57 C-170.45472656 57.99644531 -169.90945313 58.99289062 -169.34765625 60.01953125 C-166.99390382 64.13319476 -164.25796761 67.88507541 -161.4375 71.6875 C-149.19018252 88.42030571 -137.75675476 105.76252402 -126.29882812 123.04150391 C-121.75198001 129.89767224 -117.19435032 136.74654757 -112.6171875 143.58251953 C-111.60191298 145.10022006 -110.58859202 146.61923118 -109.578125 148.14013672 C-108.37231278 149.95294101 -107.15682905 151.75877133 -105.9375 153.5625 C-105.28652344 154.53316406 -104.63554687 155.50382813 -103.96484375 156.50390625 C-100.68498083 160.67057107 -97.12370027 163.52646868 -92 165 C-89.34626287 165.21901153 -86.83820074 165.33335025 -84.1875 165.3125 C-83.44338867 165.30758545 -82.69927734 165.3026709 -81.93261719 165.29760742 C-69.20344308 165.03544129 -57.66932854 162.05537692 -46 157 C-47.62808594 156.63648438 -47.62808594 156.63648438 -49.2890625 156.265625 C-50.73452507 155.92772466 -52.17982939 155.58914687 -53.625 155.25 C-54.33785156 155.09273437 -55.05070313 154.93546875 -55.78515625 154.7734375 C-76.75094171 149.77242445 -90.35078265 124.38614058 -102 108 C-102.50144531 107.29472168 -103.00289063 106.58944336 -103.51953125 105.86279297 C-107.02875646 100.91955389 -110.51660528 95.96146047 -114 91 C-114.55300781 90.21367187 -115.10601562 89.42734375 -115.67578125 88.6171875 C-121.57422295 80.2288844 -127.4511483 71.8298788 -133.20288086 63.34008789 C-145.87445271 43.12156143 -145.87445271 43.12156143 -166 32 C-173.06481024 31.48184749 -178.72730208 31.59092504 -185 35 C-185.99 35.495 -185.99 35.495 -187 36 C-185.73180834 30.08177224 -182.92095207 27.20223719 -178 24 C-174.74331405 22.40297131 -171.44536674 21.12794745 -168 20 C-166.98550781 19.64292969 -165.97101563 19.28585937 -164.92578125 18.91796875 C-159.76907365 17.48067069 -154.50415895 17.59212844 -149.1875 17.5625 C-148.15818359 17.52962891 -147.12886719 17.49675781 -146.06835938 17.46289062 C-137.51703995 17.40339378 -131.27846064 19.57445777 -124.58984375 24.9296875 C-119.24291965 31.22464778 -115.16312132 38.09218475 -111.04199219 45.21777344 C-105.89663082 54.01841494 -100.07797691 62.43011295 -94.40625 70.89648438 C-92.91227639 73.13121989 -91.42428842 75.36985325 -89.9375 77.609375 C-84.71518541 85.47177373 -79.48310499 93.31593033 -74 101 C-72.2410844 95.59761636 -71.38226079 90.23195396 -70.5546875 84.6171875 C-68.76327414 72.93515391 -66.28175904 61.36861534 -63.83886719 49.80908203 C-62.89994457 45.36159112 -61.96773037 40.91730903 -61.15234375 36.4453125 C-59.14525052 25.54339626 -56.9071866 17.14797095 -48 10 C-38.55026342 3.56647815 -25.99626688 2.49834247 -14.875 1.39453125 C-12.32704747 1.1351127 -9.7839392 0.82139107 -7.25 0.44921875 C-4 0 -4 0 0 0 Z " fill="#1F1F1F" transform="translate(526,309)"/>
<path d="M0 0 C1.12390072 3.37170216 1.13285652 5.94885405 1.125 9.5 C1.12886719 11.21703125 1.12886719 11.21703125 1.1328125 12.96875 C1.04034895 17.99876703 0.50050922 22.99718804 0 28 C-1.15886719 28.09796875 -2.31773437 28.1959375 -3.51171875 28.296875 C-12.75614493 29.10065744 -21.98628118 29.98214846 -31.20703125 31.0234375 C-32.41283089 31.15848694 -32.41283089 31.15848694 -33.64299011 31.29626465 C-38.51363763 31.84203856 -38.51363763 31.84203856 -43.38241577 32.4041748 C-53.31941936 33.56855921 -62.9789531 34.27187326 -73 34 C-73.16332144 25.41121347 -73.03729341 15.36314872 -68.69921875 7.703125 C-61.12271854 0.10782455 -44.44487802 1.27922903 -34.18774414 0.14013672 C-31.80478345 -0.12586136 -29.42293945 -0.40067137 -27.04101562 -0.67578125 C-4.9010334 -3.18510792 -4.9010334 -3.18510792 0 0 Z " fill="#1E1E1E" transform="translate(462,242)"/>
<path d="M0 0 C0 0.33 0 0.66 0 1 C-25.4497553 4.05132979 -25.4497553 4.05132979 -37.0078125 4.7578125 C-41.20420392 5.0974682 -45.31943588 5.79609122 -49.47265625 6.47265625 C-53.34776681 7.05199172 -57.22777856 7.48161249 -61.125 7.875 C-69.11250977 8.68333729 -77.08753044 9.57813179 -85.06231689 10.50354004 C-97.0995211 11.89950864 -109.14176081 13.2388791 -121.19140625 14.5234375 C-122.42944504 14.65544556 -123.66748383 14.78745361 -124.94303894 14.92346191 C-131.14290122 15.58359308 -137.34310804 16.24032572 -143.54370117 16.89355469 C-154.04092095 18.00418622 -164.51942528 19.14143081 -174.97558594 20.59326172 C-179.30744884 21.17583224 -183.64818111 21.59945606 -188 22 C-193.83172318 22.55830344 -199.63453305 23.18644056 -205.4375 24 C-211.38588392 24.82580601 -217.33434705 25.44499763 -223.3125 26 C-224.65163452 26.12810059 -224.65163452 26.12810059 -226.01782227 26.25878906 C-230.28204857 26.66486909 -234.54440006 27.04508812 -238.81640625 27.359375 C-253.21720783 28.5228451 -264.90077731 32.30067927 -276 42 C-276.99 42.66 -277.98 43.32 -279 44 C-274.7113404 33.86316822 -265.07918242 28.25684167 -255.5625 23.6875 C-247.76276365 20.53086152 -240.22998502 19.8334328 -231.89404297 19.22851562 C-226.25226832 18.78303722 -220.62775583 18.15611056 -215 17.5625 C-212.51172933 17.30458545 -210.02344798 17.0467738 -207.53515625 16.7890625 C-200.16766598 16.01976633 -192.80148813 15.23965606 -185.4375 14.4375 C-184.36306641 14.322854 -183.28863281 14.20820801 -182.18164062 14.09008789 C-177.02637755 13.5222513 -171.92352307 12.84581048 -166.8125 11.9609375 C-161.72858871 11.08628165 -156.70412097 10.55803548 -151.5625 10.1875 C-137.36085123 9.06484493 -123.21801372 7.38745559 -109.06665039 5.7644043 C-100.0656979 4.73881514 -91.0979103 3.80715085 -82.05639648 3.22631836 C-77.19867278 2.86661632 -72.38807914 2.21486293 -67.5625 1.5625 C-10.05807007 -5.88765077 -10.05807007 -5.88765077 0 0 Z " fill="#F2F2F2" transform="translate(541,266)"/>
<path d="M0 0 C4.2076077 -0.21997504 6.15807827 -0.05291953 9.84082031 2.14746094 C12.56132681 6.6629408 12.28495906 10.44284435 12.04785156 15.60449219 C12.02529297 16.53583984 12.00273438 17.4671875 11.97949219 18.42675781 C11.92077234 20.71683179 11.83872014 23.00357094 11.73535156 25.29199219 C7.32938852 25.84971393 2.92264149 26.40067425 -1.48486328 26.94604492 C-2.9762921 27.1314753 -4.46751366 27.31858227 -5.95849609 27.50756836 C-15.23376968 28.68185181 -24.45448762 29.5831573 -33.79394531 30.0480957 C-37.01137776 30.27419411 -40.09182212 30.73005996 -43.26464844 31.29199219 C-44.88859592 31.35406969 -46.5147014 31.3791126 -48.13964844 31.35449219 C-48.92082031 31.34546875 -49.70199219 31.33644531 -50.50683594 31.32714844 C-51.08691406 31.31554687 -51.66699219 31.30394531 -52.26464844 31.29199219 C-50.65343196 11.36378845 -50.65343196 11.36378845 -45.26464844 6.29199219 C-41.49347887 3.81484019 -37.29061754 3.65524038 -32.91308594 3.22167969 C-31.69197617 3.09274826 -31.69197617 3.09274826 -30.44619751 2.96121216 C-28.72347125 2.78110287 -27.00034004 2.60483113 -25.27685547 2.43212891 C-22.66880615 2.16992361 -20.0624766 1.89407792 -17.45605469 1.61621094 C-11.64287441 1.00683101 -5.82140416 0.52067001 0 0 Z " fill="#1E1E1E" transform="translate(523.2646484375,236.7080078125)"/>
<path d="M0 0 C0.33 0 0.66 0 1 0 C1 31.68 1 63.36 1 96 C-4.54177044 87.68734434 -2.16301278 72.45068128 -2.16796875 62.63671875 C-2.17119355 61.10887116 -2.17455847 59.58102387 -2.17805481 58.05317688 C-2.18398579 54.87911258 -2.18590062 51.70507529 -2.18530273 48.53100586 C-2.18520058 44.48540306 -2.19893506 40.43997363 -2.21607494 36.39441204 C-2.22723673 33.25009884 -2.22922079 30.10582733 -2.22869301 26.96149635 C-2.22986365 25.47011522 -2.2342332 23.97873268 -2.24202538 22.48737144 C-2.27876062 14.74246092 -2.10241774 7.50610525 0 0 Z " fill="#DEDEDE" transform="translate(262,323)"/>
<path d="M0 0 C0.33 0.66 0.66 1.32 1 2 C1.99 1.67 2.98 1.34 4 1 C6.29575339 4.44363009 6.43494066 6.3556283 6.75 10.4375 C6.89695312 12.13712891 6.89695312 12.13712891 7.046875 13.87109375 C7.00073875 16.95068867 6.63328121 18.44328673 5 21 C5 19.68 5 18.36 5 17 C3.02 17.99 1.04 18.98 -1 20 C-2.19347114 16.37505408 -1.94284925 13.21303366 -1.625 9.4375 C-1.53476562 8.30183594 -1.44453125 7.16617187 -1.3515625 5.99609375 C-1 3 -1 3 0 0 Z " fill="#292929" transform="translate(317,447)"/>
<path d="M0 0 C0.66 0.66 1.32 1.32 2 2 C2.66 1.34 3.32 0.68 4 0 C6 2 6 2 6.265625 4.06640625 C6.22872799 9.96070411 5.5396759 15.308698 4 21 C3.67 21 3.34 21 3 21 C2.34 18.03 1.68 15.06 1 12 C0.01 12 -0.98 12 -2 12 C-1.85831863 10.56208484 -1.71148957 9.1246763 -1.5625 7.6875 C-1.48128906 6.88699219 -1.40007812 6.08648437 -1.31640625 5.26171875 C-1 3 -1 3 0 0 Z " fill="#1C1C1C" transform="translate(320,437)"/>
<path d="M0 0 C6.625 -0.125 6.625 -0.125 10 1 C10.33 2.65 10.66 4.3 11 6 C11.99 6.33 12.98 6.66 14 7 C12.35 8.65 10.7 10.3 9 12 C7.02 11.34 5.04 10.68 3 10 C3 8.68 3 7.36 3 6 C2.34 5.01 1.68 4.02 1 3 C1.99 2.67 2.98 2.34 4 2 C2.68 1.34 1.36 0.68 0 0 Z " fill="#262626" transform="translate(476,464)"/>
<path d="M0 0 C0.33 0 0.66 0 1 0 C0.15175273 12.67906451 -0.92795237 25.33829039 -2 38 C-2.33 38 -2.66 38 -3 38 C-3.37092082 36.50405489 -3.72073208 35.00287349 -4.0625 33.5 C-4.25972656 32.6646875 -4.45695312 31.829375 -4.66015625 30.96875 C-5.47815227 23.82303768 -3.37255637 16.47751792 -1.9375 9.5 C-1.75123047 8.5821875 -1.56496094 7.664375 -1.37304688 6.71875 C-0.91801873 4.47861146 -0.46028733 2.23906274 0 0 Z " fill="#2F2F2F" transform="translate(332,376)"/>
<path d="M0 0 C3 0 3 0 5 1 C6.17169312 4.98375661 6.08089427 8.87439224 6 13 C5.01 13.33 4.02 13.66 3 14 C2.67 12.35 2.34 10.7 2 9 C1.01 9.495 1.01 9.495 0 10 C-1.125 3.375 -1.125 3.375 0 0 Z " fill="#2E2E2E" transform="translate(321,430)"/>
<path d="M0 0 C0.5775 0.2475 1.155 0.495 1.75 0.75 C1.75 1.74 1.75 2.73 1.75 3.75 C5.05 3.42 8.35 3.09 11.75 2.75 C11.75 3.41 11.75 4.07 11.75 4.75 C10.72519531 4.85957031 9.70039063 4.96914063 8.64453125 5.08203125 C7.28378133 5.24156745 5.92310806 5.4017584 4.5625 5.5625 C3.55219727 5.66788086 3.55219727 5.66788086 2.52148438 5.77539062 C-1.74911385 6.29619529 -4.73779704 7.26076877 -8.25 9.75 C-5.42647059 -0.60294118 -5.42647059 -0.60294118 0 0 Z " fill="#292929" transform="translate(347.25,335.25)"/>
<path d="M0 0 C0.66 0.33 1.32 0.66 2 1 C1.01 2.485 1.01 2.485 0 4 C0.66 4.33 1.32 4.66 2 5 C0.845 5.515625 -0.31 6.03125 -1.5 6.5625 C-6.34926341 8.96115351 -10.09432394 12.30207267 -14 16 C-14 11.96683932 -12.46561663 10.77324118 -9.8671875 7.8515625 C-6.85208375 4.86168975 -3.48378681 2.41389289 0 0 Z " fill="#DFDFDF" transform="translate(277,294)"/>
<path d="M0 0 C2.02558881 3.34939881 2.21738987 5.86962551 2.125 9.75 C2.10695313 10.73484375 2.08890625 11.7196875 2.0703125 12.734375 C2.03550781 13.85585938 2.03550781 13.85585938 2 15 C0.68 15 -0.64 15 -2 15 C-2.19392201 9.47322267 -1.7479503 5.24385089 0 0 Z " fill="#191919" transform="translate(327,404)"/>
<path d="M0 0 C3.99112081 4.60513939 6.94456259 9.75483244 10 15 C8.35 14.67 6.7 14.34 5 14 C4.67 12.02 4.34 10.04 4 8 C2.68 8.33 1.36 8.66 0 9 C-1.125 3.375 -1.125 3.375 0 0 Z " fill="#272727" transform="translate(405,441)"/>
<path d="M0 0 C1.65 0.33 3.3 0.66 5 1 C5 4 5 4 3.46875 5.60546875 C2.8190625 6.12753906 2.169375 6.64960938 1.5 7.1875 C0.8503125 7.71730469 0.200625 8.24710937 -0.46875 8.79296875 C-0.9740625 9.19128906 -1.479375 9.58960938 -2 10 C-1.54177532 6.53058454 -1.10868317 3.32604951 0 0 Z " fill="#E7E7E7" transform="translate(318,485)"/>
<path d="M0 0 C0.33 0 0.66 0 1 0 C1.08333357 4.8333472 0.95261487 9.23692563 0 14 C-0.33 14 -0.66 14 -1 14 C-1.33 12.35 -1.66 10.7 -2 9 C-2.99 9.33 -3.98 9.66 -5 10 C-4.67 7.03 -4.34 4.06 -4 1 C-3.01 1.99 -2.02 2.98 -1 4 C-0.67 2.68 -0.34 1.36 0 0 Z " fill="#131313" transform="translate(327,422)"/>
<path d="M0 0 C-0.99 3.3 -1.98 6.6 -3 10 C-5 8 -5 8 -5.875 4.9375 C-6.431875 3.4834375 -6.431875 3.4834375 -7 2 C-9.03243548 1.03122943 -9.03243548 1.03122943 -11 1 C-7.26513121 0.4254048 -3.78706732 0 0 0 Z " fill="#323232" transform="translate(526,309)"/>
<path d="M0 0 C1.423125 0.495 1.423125 0.495 2.875 1 C5.77062452 2.10159191 5.77062452 2.10159191 8 2 C8 3.32 8 4.64 8 6 C3.545 6.495 3.545 6.495 -1 7 C-0.67 4.69 -0.34 2.38 0 0 Z " fill="#8A8A8A" transform="translate(463,262)"/>
<path d="M0 0 C0.33 1.32 0.66 2.64 1 4 C-3.875 3.125 -3.875 3.125 -5 2 C-6.34267413 1.91368126 -7.68974322 1.89293527 -9.03515625 1.90234375 C-9.84404297 1.90556641 -10.65292969 1.90878906 -11.48632812 1.91210938 C-12.33646484 1.92048828 -13.18660156 1.92886719 -14.0625 1.9375 C-14.91650391 1.94201172 -15.77050781 1.94652344 -16.65039062 1.95117188 C-18.76695663 1.96299627 -20.88348685 1.98093231 -23 2 C-23 1.67 -23 1.34 -23 1 C-15.31068715 -0.06059488 -7.75493514 -0.09928082 0 0 Z " fill="#929292" transform="translate(540,262)"/>
<path d="M0 0 C0.33 1.32 0.66 2.64 1 4 C0.01 4.33 -0.98 4.66 -2 5 C-3.17082878 7.92914165 -3.17082878 7.92914165 -4 11 C-4.33 11.66 -4.66 12.32 -5 13 C-6.32 12.67 -7.64 12.34 -9 12 C-7.88096454 10.18381144 -6.75458716 8.37214474 -5.625 6.5625 C-4.68527344 5.04849609 -4.68527344 5.04849609 -3.7265625 3.50390625 C-2 1 -2 1 0 0 Z " fill="#272727" transform="translate(333,475)"/>
<path d="M0 0 C0.33 0 0.66 0 1 0 C1 2.64 1 5.28 1 8 C2.98 7.34 4.96 6.68 7 6 C6.67 7.65 6.34 9.3 6 11 C4.35 11.33 2.7 11.66 1 12 C-1.44576827 8.33134759 -1.23607254 6.32799657 -1 2 C-0.67 1.34 -0.34 0.68 0 0 Z " fill="#1B1B1B" transform="translate(315,458)"/>
<path d="M0 0 C0.598125 0.33 1.19625 0.66 1.8125 1 C4.05386471 2.20787988 4.05386471 2.20787988 7 2 C7 3.65 7 5.3 7 7 C4.36 7 1.72 7 -1 7 C-0.67 4.69 -0.34 2.38 0 0 Z " fill="#828282" transform="translate(381,270)"/>
<path d="M0 0 C0.33 0 0.66 0 1 0 C0.14285714 8.57142857 0.14285714 8.57142857 -2 12 C-3.5625 10.875 -3.5625 10.875 -5 9 C-4.6875 5.8125 -4.6875 5.8125 -4 3 C-2.68 3 -1.36 3 0 3 C0 2.01 0 1.02 0 0 Z " fill="#171717" transform="translate(317,483)"/>
<path d="M0 0 C2.64 0 5.28 0 8 0 C8.08078641 2.12438339 8.13909141 4.2496323 8.1875 6.375 C8.22230469 7.55835938 8.25710938 8.74171875 8.29296875 9.9609375 C8.19628906 10.96382813 8.09960938 11.96671875 8 13 C7.01 13.66 6.02 14.32 5 15 C4.01 14.67 3.02 14.34 2 14 C2.7115625 13.2884375 2.7115625 13.2884375 3.4375 12.5625 C5.68076096 8.88355203 5.73739578 5.2378888 6 1 C4.02 1 2.04 1 0 1 C0 0.67 0 0.34 0 0 Z " fill="#101010" transform="translate(278,277)"/>
<path d="M0 0 C-1.25 1.5 -1.25 1.5 -3 3 C-7 3 -7 3 -10 1 C-3.71428571 -1.42857143 -3.71428571 -1.42857143 0 0 Z M-11 3 C-9.8553125 3.2784375 -9.8553125 3.2784375 -8.6875 3.5625 C-5.91032625 4.22819173 -5.91032625 4.22819173 -3 3 C-3 3.66 -3 4.32 -3 5 C-5.31 5.33 -7.62 5.66 -10 6 C-10.33 5.01 -10.66 4.02 -11 3 Z " fill="#181818" transform="translate(471,472)"/>
<path d="M0 0 C2 2 2 2 2 5 C4.31 5 6.62 5 9 5 C9 5.33 9 5.66 9 6 C6.69 6.33 4.38 6.66 2 7 C2 7.66 2 8.32 2 9 C0.68 9.33 -0.64 9.66 -2 10 C-1.34 6.7 -0.68 3.4 0 0 Z " fill="#272727" transform="translate(288,280)"/>
<path d="M0 0 C-0.66 0.66 -1.32 1.32 -2 2 C-2 2.99 -2 3.98 -2 5 C-5.5219721 5.08004482 -8.61981469 5.04005702 -12 4 C-8.15336308 0.86570325 -4.95471579 -1.65157193 0 0 Z " fill="#151515" transform="translate(284,298)"/>
<path d="M0 0 C4.16138263 -0.08159574 7.9472484 0.01751476 12 1 C10.5 2.5625 10.5 2.5625 8 4 C5.22562457 3.96823234 2.74713533 3.50364148 0 3 C0 2.01 0 1.02 0 0 Z " fill="#262626" transform="translate(436,241)"/>
<path d="M0 0 C3.9252025 3.70090521 6.94580156 7.54959656 10 12 C9.38125 11.649375 8.7625 11.29875 8.125 10.9375 C7.42375 10.628125 6.7225 10.31875 6 10 C5.01 10.495 5.01 10.495 4 11 C3.32880451 9.5437455 2.66318193 8.08492133 2 6.625 C1.62875 5.81289063 1.2575 5.00078125 0.875 4.1640625 C0 2 0 2 0 0 Z " fill="#181818" transform="translate(416,459)"/>
<path d="M0 0 C2.96909598 3.27301919 3.34354794 5.38065762 3.1875 9.75 C3.16042969 10.73484375 3.13335937 11.7196875 3.10546875 12.734375 C3.07066406 13.48203125 3.03585937 14.2296875 3 15 C2.34 14.67 1.68 14.34 1 14 C-0.14242743 9.31604754 -0.08252495 4.78644729 0 0 Z " fill="#282828" transform="translate(258,398)"/>
<path d="M0 0 C-0.33 2.31 -0.66 4.62 -1 7 C-0.34 7.33 0.32 7.66 1 8 C-0.65 8 -2.3 8 -4 8 C-4 5.66666667 -4 3.33333333 -4 1 C-2 0 -2 0 0 0 Z " fill="#282828" transform="translate(356,330)"/>
<path d="M0 0 C3.875 0.875 3.875 0.875 5 2 C4.71269945 4.33944736 4.38063221 6.6739143 4 9 C1.47740939 7.02579865 1.0070192 6.03254358 0.3125 2.8125 C0.209375 1.884375 0.10625 0.95625 0 0 Z " fill="#232323" transform="translate(382,421)"/>
<path d="M0 0 C1.98 0 3.96 0 6 0 C6 1.32 6 2.64 6 4 C5.01 4.66 4.02 5.32 3 6 C2.01 5.67 1.02 5.34 0 5 C0.33 4.34 0.66 3.68 1 3 C0.34 2.67 -0.32 2.34 -1 2 C-0.67 1.34 -0.34 0.68 0 0 Z " fill="#191919" transform="translate(294,304)"/>
<path d="M0 0 C0.66 0.33 1.32 0.66 2 1 C0.83709195 4.48872415 -0.13967609 5.09976864 -3.0625 7.1875 C-3.79597656 7.71730469 -4.52945312 8.24710937 -5.28515625 8.79296875 C-5.85105469 9.19128906 -6.41695313 9.58960938 -7 10 C-5.17495091 6.07699728 -2.81729174 3.26212728 0 0 Z " fill="#D0D0D0" transform="translate(269,300)"/>
<path d="M0 0 C0.66 0.33 1.32 0.66 2 1 C1.01 2.485 1.01 2.485 0 4 C0 4.99 0 5.98 0 7 C-1.65 7.66 -3.3 8.32 -5 9 C-4.5206753 4.68607774 -3.2542015 2.83430453 0 0 Z " fill="#141414" transform="translate(397,247)"/>
<path d="M0 0 C0.99 0 1.98 0 3 0 C3 0.66 3 1.32 3 2 C2.34 2 1.68 2 1 2 C1 2.66 1 3.32 1 4 C-0.6796875 5.32421875 -0.6796875 5.32421875 -2.875 6.6875 C-3.59429688 7.14511719 -4.31359375 7.60273437 -5.0546875 8.07421875 C-6.01761719 8.53248047 -6.01761719 8.53248047 -7 9 C-7.66 8.67 -8.32 8.34 -9 8 C-8.43410156 7.59007812 -7.86820313 7.18015625 -7.28515625 6.7578125 C-6.18494141 5.94957031 -6.18494141 5.94957031 -5.0625 5.125 C-4.33160156 4.59132813 -3.60070312 4.05765625 -2.84765625 3.5078125 C-0.88901765 2.11987896 -0.88901765 2.11987896 0 0 Z " fill="#252525" transform="translate(554,517)"/>
<path d="M0 0 C2.96404505 2.80804268 5.44499019 5.18315774 7 9 C4.49642139 8.1654738 2.33214148 7.20628008 0 6 C0 4.02 0 2.04 0 0 Z " fill="#181818" transform="translate(354,368)"/>
<path d="M0 0 C0.99 1.32 1.98 2.64 3 4 C3.99 3.67 4.98 3.34 6 3 C5.67 4.98 5.34 6.96 5 9 C3.35 9.33 1.7 9.66 0 10 C0 6.7 0 3.4 0 0 Z " fill="#292929" transform="translate(309,481)"/>
<path d="M0 0 C0 0.66 0 1.32 0 2 C-0.66 2 -1.32 2 -2 2 C-2 2.99 -2 3.98 -2 5 C-2.66 5 -3.32 5 -4 5 C-4 4.34 -4 3.68 -4 3 C-4.99 3.33 -5.98 3.66 -7 4 C-7 3.01 -7 2.02 -7 1 C-3.375 -1.125 -3.375 -1.125 0 0 Z " fill="#202020" transform="translate(353,333)"/>
<path d="M0 0 C7.50769231 -0.36923077 7.50769231 -0.36923077 10 1.5 C10.495 2.2425 10.495 2.2425 11 3 C6.74938644 4.41687119 4.28148375 3.19320039 0 2 C0 1.34 0 0.68 0 0 Z " fill="#878787" transform="translate(541,266)"/>
<path d="M0 0 C0.99 0 1.98 0 3 0 C3.33 1.65 3.66 3.3 4 5 C3.01 5.33 2.02 5.66 1 6 C0.34 5.34 -0.32 4.68 -1 4 C-0.625 1.875 -0.625 1.875 0 0 Z " fill="#565656" transform="translate(562,514)"/>
<path d="M0 0 C0.66 0.66 1.32 1.32 2 2 C2.66 1.34 3.32 0.68 4 0 C4 1.32 4 2.64 4 4 C3.01 4.33 2.02 4.66 1 5 C-0.22969878 8.51190809 -0.22969878 8.51190809 -1 12 C-1.33 12 -1.66 12 -2 12 C-1.85831863 10.56208484 -1.71148957 9.1246763 -1.5625 7.6875 C-1.48128906 6.88699219 -1.40007812 6.08648437 -1.31640625 5.26171875 C-1 3 -1 3 0 0 Z " fill="#151515" transform="translate(320,437)"/>
<path d="M0 0 C4.62 0 9.24 0 14 0 C12.02 0.99 12.02 0.99 10 2 C10.33 2.66 10.66 3.32 11 4 C9.35 3.67 7.7 3.34 6 3 C6 2.67 6 2.34 6 2 C3.03 1.505 3.03 1.505 0 1 C0 0.67 0 0.34 0 0 Z " fill="#343434" transform="translate(314,291)"/>
<path d="M0 0 C0.86625 0.556875 0.86625 0.556875 1.75 1.125 C-1.22 3.6 -1.22 3.6 -4.25 6.125 C-4.91 4.475 -5.57 2.825 -6.25 1.125 C-2.80384615 -1.09038462 -2.80384615 -1.09038462 0 0 Z " fill="#565656" transform="translate(478.25,241.875)"/>
<path d="M0 0 C2.0625 0.75 2.0625 0.75 4 2 C4.33 2.99 4.66 3.98 5 5 C3.02 5.33 1.04 5.66 -1 6 C-1.33 4.35 -1.66 2.7 -2 1 C-1.34 0.67 -0.68 0.34 0 0 Z " fill="#555555" transform="translate(276,553)"/>
<path d="M0 0 C3 1 3 1 4.3125 3.375 C4.6528125 4.674375 4.6528125 4.674375 5 6 C4.01 7.485 4.01 7.485 3 9 C2.01 6.03 1.02 3.06 0 0 Z M-2 2 C0 3 0 3 0 3 Z " fill="#585858" transform="translate(235,511)"/>
<path d="M0 0 C3.37462715 0.54723683 5.08235 1.0549 8 3 C3.545 3.495 3.545 3.495 -1 4 C-0.67 2.68 -0.34 1.36 0 0 Z " fill="#2F2F2F" transform="translate(303,505)"/>
<path d="M0 0 C0.66 0 1.32 0 2 0 C2.99 1.98 3.98 3.96 5 6 C4.34 6.66 3.68 7.32 3 8 C1.5 6.8125 1.5 6.8125 0 5 C-0.1875 2.3125 -0.1875 2.3125 0 0 Z " fill="#272727" transform="translate(420,365)"/>
<path d="M0 0 C0.66 0.33 1.32 0.66 2 1 C1.4140625 7.15234375 1.4140625 7.15234375 1 9 C0.01 9.495 0.01 9.495 -1 10 C-1.02689216 8.52093108 -1.04634621 7.04172517 -1.0625 5.5625 C-1.07410156 4.73878906 -1.08570313 3.91507812 -1.09765625 3.06640625 C-1 1 -1 1 0 0 Z " fill="#737373" transform="translate(286,279)"/>
<path d="M0 0 C1.65 1.65 3.3 3.3 5 5 C4.01 5.99 3.02 6.98 2 8 C1.34 7.67 0.68 7.34 0 7 C0 4.69 0 2.38 0 0 Z " fill="#171717" transform="translate(281,525)"/>
<path d="M0 0 C0.66 0 1.32 0 2 0 C3.32 2.31 4.64 4.62 6 7 C1.25 5.125 1.25 5.125 -1 4 C-0.67 2.68 -0.34 1.36 0 0 Z " fill="#272727" transform="translate(444,401)"/>
<path d="M0 0 C1.98 0 3.96 0 6 0 C6 1.32 6 2.64 6 4 C4.35 3.67 2.7 3.34 1 3 C0.67 2.01 0.34 1.02 0 0 Z " fill="#555555" transform="translate(553,523)"/>
<path d="M0 0 C3.3 0.33 6.6 0.66 10 1 C10 1.33 10 1.66 10 2 C6.37 2.33 2.74 2.66 -1 3 C-0.67 2.01 -0.34 1.02 0 0 Z " fill="#262626" transform="translate(426,521)"/>
<path d="M0 0 C0.33 0.66 0.66 1.32 1 2 C1.66 2.33 2.32 2.66 3 3 C3 3.99 3 4.98 3 6 C1.02 6.99 1.02 6.99 -1 8 C-0.67 5.36 -0.34 2.72 0 0 Z " fill="#2A2A2A" transform="translate(306,493)"/>
<path d="M0 0 C2 1 2 1 2.75 2.875 C3 5 3 5 1 8 C0.01 7.01 -0.98 6.02 -2 5 C-1 2 -1 2 0 0 Z " fill="#171717" transform="translate(420,477)"/>
<path d="M0 0 C0.66 0 1.32 0 2 0 C3.15941038 3.47823115 2.70820884 5.45895578 2 9 C1.34 9 0.68 9 0 9 C-1.15941038 5.52176885 -0.70820884 3.54104422 0 0 Z " fill="#282828" transform="translate(318,473)"/>
<path d="M0 0 C1.9375 0.3125 1.9375 0.3125 4 1 C5 4 5 4 4 7 C3.34 7 2.68 7 2 7 C0.3125 5.1875 0.3125 5.1875 -1 3 C-0.67 2.01 -0.34 1.02 0 0 Z " fill="#282828" transform="translate(400,437)"/>
<path d="M0 0 C3 0 3 0 5.1875 2 C5.785625 2.66 6.38375 3.32 7 4 C6.67 4.99 6.34 5.98 6 7 C5.34 6.34 4.68 5.68 4 5 C3.29875 4.505 2.5975 4.01 1.875 3.5 C1.25625 3.005 0.6375 2.51 0 2 C0 1.34 0 0.68 0 0 Z " fill="#191919" transform="translate(396,433)"/>
<path d="M0 0 C0.33 1.32 0.66 2.64 1 4 C-2 6 -2 6 -5 6 C-4.67 4.68 -4.34 3.36 -4 2 C-3.01 2 -2.02 2 -1 2 C-0.67 1.34 -0.34 0.68 0 0 Z " fill="#757575" transform="translate(471,259)"/>
<path d="M0 0 C0.99 0.66 1.98 1.32 3 2 C2.67 2.33 2.34 2.66 2 3 C1.95907063 5.33297433 1.95758277 7.66705225 2 10 C1.67 10 1.34 10 1 10 C1 8.35 1 6.7 1 5 C0.34 5 -0.32 5 -1 5 C-1.33 4.01 -1.66 3.02 -2 2 C-1.34 2 -0.68 2 0 2 C0 1.34 0 0.68 0 0 Z " fill="#242424" transform="translate(459,241)"/>
<path d="M0 0 C0 0.33 0 0.66 0 1 C-2.31 1 -4.62 1 -7 1 C-7 1.66 -7 2.32 -7 3 C-9.31 2.67 -11.62 2.34 -14 2 C-14 1.67 -14 1.34 -14 1 C-9.32798795 -0.20568053 -4.78503708 -0.09382426 0 0 Z " fill="#101010" transform="translate(457,240)"/>
<path d="M0 0 C2.31 0.33 4.62 0.66 7 1 C6.67 1.66 6.34 2.32 6 3 C3.36 3 0.72 3 -2 3 C-1.34 2.67 -0.68 2.34 0 2 C0 1.34 0 0.68 0 0 Z " fill="#565656" transform="translate(470,539)"/>
<path d="M0 0 C0.66 0.99 1.32 1.98 2 3 C0.35 5.31 -1.3 7.62 -3 10 C-3.33 9.34 -3.66 8.68 -4 8 C-3.22265625 6.0546875 -3.22265625 6.0546875 -2.0625 3.875 C-1.49208984 2.78832031 -1.49208984 2.78832031 -0.91015625 1.6796875 C-0.60980469 1.12539063 -0.30945313 0.57109375 0 0 Z " fill="#181818" transform="translate(284,313)"/>
<path d="M0 0 C2.64 0.33 5.28 0.66 8 1 C7.67 1.66 7.34 2.32 7 3 C5.02 3 3.04 3 1 3 C0.67 2.01 0.34 1.02 0 0 Z " fill="#252525" transform="translate(426,279)"/>
</svg>
