<?xml version="1.0" encoding="UTF-8"?>
<svg version="1.1" xmlns="http://www.w3.org/2000/svg" width="800" height="800">
<path d="M0 0 C264 0 528 0 800 0 C800 264 800 528 800 800 C536 800 272 800 0 800 C0 536 0 272 0 0 Z " fill="#6C6C6C" transform="translate(0,0)"/>
<path d="M0 0 C0.99 1.485 0.99 1.485 2 3 C1.34 3.33 0.68 3.66 0 4 C0 7.3 0 10.6 0 14 C-1.32 14.66 -2.64 15.32 -4 16 C-3.071875 17.051875 -3.071875 17.051875 -2.125 18.125 C1.65533652 23.23957294 2.25065502 27.93040895 2.26742554 34.19075012 C2.27195665 34.89189758 2.27648776 35.59304505 2.28115618 36.3154394 C2.29376445 38.65282511 2.29218215 40.98997674 2.29052734 43.32739258 C2.29651485 45.00823769 2.30332091 46.68908006 2.31088257 48.36991882 C2.32852752 52.92788845 2.33323732 57.48578295 2.33451414 62.04378343 C2.33593719 64.89390418 2.3402097 67.74400591 2.34550858 70.59412193 C2.3640041 80.54428695 2.37217981 90.49439844 2.37060547 100.44458008 C2.3694043 109.70817472 2.39050296 118.97153628 2.4220928 128.23507196 C2.44827592 136.1979115 2.4589719 144.16067502 2.45769465 152.12355727 C2.4571856 156.87516236 2.4628371 161.62656026 2.48405075 166.37812233 C2.5034674 170.84912569 2.50353429 175.31972495 2.48901749 179.79074287 C2.48693251 181.4269444 2.49161169 183.06317146 2.5037384 184.69932938 C2.56223194 193.14155154 2.57662867 200.57353669 -2 208 C-2.53625 208.9075 -3.0725 209.815 -3.625 210.75 C-10.41254956 217.18031011 -19.01400915 218.96764443 -28 220.1875 C-29.10811035 220.35056641 -30.2162207 220.51363281 -31.35791016 220.68164062 C-38.77055716 221.7517952 -46.19444707 222.67813501 -53.64453125 223.44140625 C-61.12431973 224.20806589 -68.59255833 225.08117328 -76.0625 225.9375 C-77.21531464 226.06948288 -77.21531464 226.06948288 -78.39141846 226.20413208 C-94.83728174 228.08758002 -111.27887882 229.99386569 -127.6953125 232.12109375 C-128.47213882 232.22171112 -129.24896515 232.32232849 -130.04933167 232.42599487 C-130.84234177 232.52872711 -131.63535187 232.63145935 -132.45239258 232.73730469 C-133.26060455 232.84200073 -134.06881653 232.94669678 -134.90151978 233.05456543 C-136.54832486 233.26790584 -138.19511446 233.48136581 -139.84188843 233.69494629 C-155.36545069 235.70428383 -170.90724635 237.53606501 -186.46044922 239.30029297 C-195.00659428 240.2739793 -203.52467869 241.30434862 -212.02807617 242.60717773 C-220.91658706 243.78204129 -229.17566505 243.86487147 -237 239 C-241.65951966 234.78136254 -245.73529705 230.24414309 -246.26006222 223.8127327 C-246.26471272 222.54367458 -246.26936323 221.27461647 -246.27415466 219.96710205 C-246.27939134 219.25879077 -246.28462802 218.55047948 -246.29002339 217.82070422 C-246.3050256 215.44714413 -246.30572858 213.07379957 -246.30639648 210.70019531 C-246.31401792 208.99831783 -246.3224454 207.2964438 -246.33161926 205.59457397 C-246.35357498 200.97044758 -246.36236481 196.34638733 -246.36744571 191.7222147 C-246.37108856 188.83224516 -246.3773283 185.94229295 -246.3844471 183.05233002 C-246.40894706 172.9671706 -246.4219943 162.88206265 -246.42553711 152.796875 C-246.42917096 143.40147262 -246.45905412 134.00639719 -246.50094169 124.61109471 C-246.53565615 116.54130538 -246.55108576 108.47162431 -246.55178314 100.40176082 C-246.55257568 95.58359383 -246.5613033 90.76575972 -246.58978081 85.94766998 C-246.61598067 81.4134373 -246.61815605 76.879813 -246.60212517 72.34553909 C-246.60031209 70.68472338 -246.6069887 69.02387254 -246.62294388 67.36313248 C-246.76774221 51.30778088 -246.76774221 51.30778088 -241 45 C-240.08347656 43.92492187 -240.08347656 43.92492187 -239.1484375 42.828125 C-231.12385611 35.68730808 -221.64479741 33.54314877 -211.19140625 32.40234375 C-210.19587738 32.28302994 -209.20034851 32.16371613 -208.1746521 32.04078674 C-204.97195079 31.6602559 -201.76744434 31.29860365 -198.5625 30.9375 C-196.325479 30.67552917 -194.08858157 30.41250107 -191.85180664 30.1484375 C-179.8480203 28.74047953 -167.83599779 27.41439592 -155.81323242 26.17895508 C-142.41478404 24.77694272 -129.05680864 23.03369318 -115.69238281 21.34301758 C-105.35764608 20.03710679 -95.02141303 18.75212991 -84.67578125 17.53515625 C-83.69826904 17.420047 -82.72075684 17.30493774 -81.71362305 17.18634033 C-77.06272158 16.63974499 -72.41132529 16.09778132 -67.75927734 15.56103516 C-66.10383299 15.36758283 -64.44839633 15.17406455 -62.79296875 14.98046875 C-62.04219559 14.89531509 -61.29142242 14.81016144 -60.51789856 14.72242737 C-57.53089597 14.37100629 -54.86336831 13.9544561 -52 13 C-56.85464061 13.55845656 -61.70874591 14.12139817 -66.5625 14.6875 C-67.30831329 14.77448151 -68.05412659 14.86146301 -68.82254028 14.95108032 C-83.1923263 16.63191435 -97.54227707 18.45431778 -111.88696289 20.33666992 C-122.92970362 21.77939888 -133.84160759 23.18292447 -145 23 C-143.68 22.67 -142.36 22.34 -141 22 C-141.99 19.525 -141.99 19.525 -143 17 C-142.34 17 -141.68 17 -141 17 C-140.505 18.98 -140.505 18.98 -140 21 C-138.54077307 20.88590407 -137.08259402 20.75834456 -135.625 20.625 C-134.40683594 20.52058594 -134.40683594 20.52058594 -133.1640625 20.4140625 C-130.79665809 20.17107412 -130.79665809 20.17107412 -129 18 C-125.875 18.375 -125.875 18.375 -123 19 C-123 18.34 -123 17.68 -123 17 C-120.69 17.66 -118.38 18.32 -116 19 C-116 18.34 -116 17.68 -116 17 C-112.7 17 -109.4 17 -106 17 C-105.67 15.68 -105.34 14.36 -105 13 C-105.99 12.67 -106.98 12.34 -108 12 C-108 11.34 -108 10.68 -108 10 C-109.94074861 10.27617533 -109.94074861 10.27617533 -112 11 C-112.66 11.99 -113.32 12.98 -114 14 C-114.99 12.515 -114.99 12.515 -116 11 C-115.67 10.34 -115.34 9.68 -115 9 C-112.39877781 8.43795699 -109.87147559 8.02247747 -107.23828125 7.66796875 C-106.37205643 7.54503952 -105.5058316 7.42211029 -104.61335754 7.29545593 C-101.41075158 6.84879327 -98.20589809 6.42239593 -95 6 C-94.3598571 5.9155085 -93.7197142 5.831017 -93.06017303 5.74396515 C-83.08740539 4.43006971 -73.10842287 3.16843707 -63.1262207 1.9284668 C-58.99969111 1.41538357 -54.87462904 0.89133735 -50.74978161 0.36492634 C-47.51851307 -0.04535104 -44.28624777 -0.44732134 -41.0536747 -0.84717751 C-39.53337496 -1.03665252 -38.0134444 -1.22911953 -36.49394798 -1.42493248 C-8.08377835 -5.07586082 -8.08377835 -5.07586082 0 0 Z " fill="#F6F6F6" transform="translate(537,272)"/>
<path d="M0 0 C-0.25394531 1.07636719 -0.50789062 2.15273438 -0.76953125 3.26171875 C-1.30391312 5.52684033 -1.83700534 7.79224091 -2.3671875 10.05834961 C-3.1578758 13.43709066 -3.95329337 16.81271333 -4.79296875 20.1796875 C-6.81123971 28.40888068 -8.16427419 36.72083385 -9.51953125 45.07910156 C-10.40522505 50.52003349 -11.35310599 55.92085155 -12.5 61.3125 C-14.19268853 69.47236264 -15.32573901 77.70926671 -16.51733398 85.95483398 C-17.43567323 92.28209907 -18.40516587 98.58704891 -19.5625 104.875 C-20.88290943 112.09419505 -21.940344 119.3344849 -22.91040039 126.60888672 C-24.69274699 139.66422721 -27.36489309 148.83356763 -37.9375 157.50390625 C-44.0508385 161.93839232 -50.76142036 164.06724999 -58 166 C-58.680625 166.19078125 -59.36125 166.3815625 -60.0625 166.578125 C-63.03554927 167.2254825 -65.97071785 167.05825543 -69 167 C-65.43146794 164.96854346 -61.78387787 164.10468751 -57.8125 163.125 C-51.88451458 161.61870272 -46.4924074 159.69802469 -41 157 C-41 156.195625 -41 155.39125 -41 154.5625 C-41 153.375 -41 152.1875 -41 151 C-44.88568837 149.50623172 -47.47074152 150.56582261 -51.3125 151.875 C-60.06864175 154.69642345 -67.85448961 155.13515533 -77 155 C-77.33 155.66 -77.66 156.32 -78 157 C-78.99 157.33 -79.98 157.66 -81 158 C-82.01866229 159.65532623 -83.01810813 161.32260138 -84 163 C-84.99 163.66 -85.98 164.32 -87 165 C-83.68455701 166.10514766 -80.79589889 166.32107631 -77.3125 166.5625 C-76.13300781 166.64628906 -74.95351563 166.73007812 -73.73828125 166.81640625 C-72.83464844 166.87699219 -71.93101562 166.93757812 -71 167 C-71 167.33 -71 167.66 -71 168 C-79.44734773 168.60820904 -86.64166865 169.04607903 -93.80859375 163.93359375 C-104.35559009 154.62742051 -110.63763297 141.07569962 -117.36328125 128.94140625 C-118.55429025 126.79405045 -119.74570188 124.64691793 -120.9375 122.5 C-121.52756836 121.43652344 -122.11763672 120.37304688 -122.72558594 119.27734375 C-127.77085126 110.25626527 -133.22478944 101.56852669 -139 93 C-140.49620961 102.08697972 -141.9567751 111.15388444 -142.9375 120.3125 C-147.68815904 162.20784074 -147.68815904 162.20784074 -161.49609375 173.421875 C-169.06738641 178.19379737 -176.63397357 180.50944848 -185.25 182.75 C-187.00570313 183.22373047 -187.00570313 183.22373047 -188.796875 183.70703125 C-197.45258387 186 -197.45258387 186 -202 186 C-201.3319827 179.60504784 -200.05233608 173.50008079 -198.5625 167.25 C-198.02265458 164.94419358 -197.4836597 162.63818793 -196.9453125 160.33203125 C-196.79708542 159.6988649 -196.64885834 159.06569855 -196.49613953 158.41334534 C-194.27728106 148.9289186 -192.10363104 139.43408846 -189.9375 129.9375 C-189.71957794 128.98237518 -189.50165588 128.02725037 -189.27713013 127.04318237 C-186.12062992 113.18404741 -183.13776798 99.31093312 -180.46875 85.34863281 C-179.99877028 82.99383858 -179.4753275 80.65654906 -178.9375 78.31640625 C-177.79537556 73.26551706 -177.18924026 68.1760943 -176.5625 63.0390625 C-176 60 -176 60 -174 57 C-174.44858146 96.02658676 -181.12318678 134.88011379 -189 173 C-188.34 173 -187.68 173 -187 173 C-186.62294922 172.195625 -186.62294922 172.195625 -186.23828125 171.375 C-184.72140654 168.46566303 -182.95798889 165.7623689 -181.1875 163 C-170.10937581 145.1906108 -166.46737392 124.87545112 -163.375 104.4375 C-163.07253683 102.49479274 -162.7695539 100.55216634 -162.46606445 98.60961914 C-160.68130274 87.07512287 -159.04517799 75.53443606 -157.88623047 63.91772461 C-157.7935791 63.02577393 -157.70092773 62.13382324 -157.60546875 61.21484375 C-157.49948364 60.08743774 -157.49948364 60.08743774 -157.39135742 58.93725586 C-157 57 -157 57 -155 54 C-146.84831271 62.20028156 -140.82628425 71.88647199 -134.5 81.5 C-133.3369185 83.25621324 -132.1734224 85.01215197 -131.00952148 86.76782227 C-124.60991448 96.43791099 -118.28894668 106.15507766 -112.0625 115.9375 C-110.25779395 118.76597163 -108.45258105 121.5941148 -106.64599609 124.42138672 C-105.55232022 126.13473655 -104.46147771 127.84989844 -103.37353516 129.56689453 C-101.8927669 131.89079504 -100.38846576 134.19730843 -98.875 136.5 C-98.25443726 137.48987915 -98.25443726 137.48987915 -97.62133789 138.49975586 C-95.53535207 141.61826406 -94.49683673 142.88001152 -90.78125 143.77734375 C-89.8634375 143.85082031 -88.945625 143.92429687 -88 144 C-86.625 146.0625 -86.625 146.0625 -86 148 C-86.66 148 -87.32 148 -88 148 C-85.30567344 151.48677555 -82.2072263 152.11783965 -78 153 C-63.91443679 154.11790184 -50.67930026 149.6291721 -38 144 C-39.01707031 143.87044922 -39.01707031 143.87044922 -40.0546875 143.73828125 C-49.22850805 142.35331388 -56.14455891 138.76087339 -64 134 C-64.99 133.67 -65.98 133.34 -67 133 C-67.09966064 132.25282715 -67.19932129 131.5056543 -67.30200195 130.73583984 C-68.08178427 127.67944229 -69.00948394 126.47990932 -71.16796875 124.2265625 C-74.90404079 120.16002474 -78.12193168 115.87612081 -81.3125 111.375 C-81.87517578 110.58794678 -82.43785156 109.80089355 -83.01757812 108.98999023 C-84.15355401 107.40030093 -85.28786639 105.80942143 -86.42041016 104.21728516 C-87.8085854 102.26869048 -89.20430937 100.3259847 -90.60546875 98.38671875 C-98.94874775 86.82062724 -107.03403491 75.06295923 -114.85961914 63.140625 C-127.20533069 43.17524821 -127.20533069 43.17524821 -144.875 28.5 C-153.14385565 27.1769831 -158.99742207 27.23228737 -166 32 C-166.66 32 -167.32 32 -168 32 C-168.33 32.99 -168.66 33.98 -169 35 C-170 32 -170 32 -168.375 28.625 C-163.33584217 20.53851361 -157.1290849 17.42931229 -148.03515625 15.30859375 C-136.79193462 13.23937793 -125.06830496 12.65448676 -114.671875 18.25390625 C-107.05182867 23.5908471 -102.41764508 31.70511041 -97.75 39.5625 C-93.89198022 45.96943895 -89.90084053 52.24712371 -85.70898438 58.43994141 C-82.16079092 63.70159076 -78.81942507 69.0792471 -75.49047852 74.48144531 C-73.26086991 78.07207678 -70.95748684 81.52261684 -68.375 84.875 C-66 88 -66 88 -66 90 C-65.34 90 -64.68 90 -64 90 C-63.96261719 89.1028125 -63.92523438 88.205625 -63.88671875 87.28125 C-63.44873734 78.96819107 -62.38542021 71.05111287 -60.75390625 62.89453125 C-60.05999582 59.3099266 -59.49638297 55.74150451 -59 52.125 C-58.66689963 49.74996731 -58.33354907 47.37496971 -58 45 C-57.90251465 44.29053223 -57.8050293 43.58106445 -57.70458984 42.85009766 C-53.8488195 15.33849516 -53.8488195 15.33849516 -44.58984375 8.35546875 C-32.29351831 1.91983537 -13.71964305 -0.44400139 0 0 Z " fill="#D6D6D6" transform="translate(514,306)"/>
<path d="M0 0 C5.10972439 3.86475417 8.562624 8.11915951 12.1875 13.375 C12.70763672 14.10460937 13.22777344 14.83421875 13.76367188 15.5859375 C21.15485226 26.15825172 21.15485226 26.15825172 20.85546875 31.65234375 C20.63503906 32.40644531 20.41460937 33.16054688 20.1875 33.9375 C19.97480469 34.70964844 19.76210938 35.48179687 19.54296875 36.27734375 C19.36378906 36.84582031 19.18460937 37.41429687 19 38 C18.67 37.34 18.34 36.68 18 36 C17.01 36 16.02 36 15 36 C14.90203125 36.96292969 14.8040625 37.92585938 14.703125 38.91796875 C7.73994123 105.35094247 7.73994123 105.35094247 -4.375 116.5 C-14.87008823 124.31986966 -30.97676407 130 -44 130 C-43.30359729 124.58148241 -42.25068888 119.3134197 -41.0390625 113.98828125 C-40.84782806 113.13880417 -40.65659363 112.28932709 -40.45956421 111.41410828 C-40.05572414 109.62286493 -39.65055902 107.83191987 -39.24414062 106.04125977 C-38.63095728 103.33875574 -38.02215656 100.63529382 -37.4140625 97.93164062 C-35.79847369 90.7702405 -34.18243754 83.61399046 -32.3671875 76.5 C-30.86712422 70.60200035 -29.66529929 64.65948399 -28.5 58.6875 C-28.17962769 57.06533569 -28.17962769 57.06533569 -27.8527832 55.41040039 C-27.4288987 53.2640544 -27.00609306 51.11749501 -26.58447266 48.97070312 C-25.79493771 44.95772852 -24.9921808 40.94745947 -24.1875 36.9375 C-23.95417969 35.77089844 -23.72085937 34.60429687 -23.48046875 33.40234375 C-23.32191406 32.60957031 -23.16335938 31.81679688 -23 31 C-22.67 31 -22.34 31 -22 31 C-22.9574093 52.55821631 -25.5623477 73.88692288 -30 95 C-30.58847171 97.80727532 -31.17517461 100.61482176 -31.75415039 103.42407227 C-32.11771282 105.1827479 -32.48891148 106.93986779 -32.86889648 108.69506836 C-33.88751431 113.37163285 -33.88751431 113.37163285 -33 118 C-32.34 118.33 -31.68 118.66 -31 119 C-30.74863281 118.46375 -30.49726563 117.9275 -30.23828125 117.375 C-28.72140654 114.46566303 -26.95798889 111.7623689 -25.1875 109 C-14.10997012 91.19156622 -10.46532077 70.87502462 -7.375 50.4375 C-7.07321251 48.49480175 -6.77096249 46.5521753 -6.46826172 44.60961914 C-4.43179648 31.42028264 -2.61881609 18.21755336 -1.27783203 4.93725586 C-1 3 -1 3 0 0 Z " fill="#D0D0D0" transform="translate(358,360)"/>
<path d="M0 0 C0.33 0 0.66 0 1 0 C1.34081126 6.62688567 0.03527509 12.76786426 -1.25 19.25 C-3.31436662 29.98852117 -5.06481008 40.73675226 -6.61791992 51.56005859 C-7.50036389 57.6864202 -8.44342645 63.78741647 -9.5625 69.875 C-10.88290943 77.09419505 -11.940344 84.3344849 -12.91040039 91.60888672 C-14.69274699 104.66422721 -17.36489309 113.83356763 -27.9375 122.50390625 C-34.0508385 126.93839232 -40.76142036 129.06724999 -48 131 C-48.680625 131.19078125 -49.36125 131.3815625 -50.0625 131.578125 C-53.03554927 132.2254825 -55.97071785 132.05825543 -59 132 C-55.43146794 129.96854346 -51.78387787 129.10468751 -47.8125 128.125 C-41.88451458 126.61870272 -36.4924074 124.69802469 -31 122 C-31 121.195625 -31 120.39125 -31 119.5625 C-31 118.375 -31 117.1875 -31 116 C-34.88568837 114.50623172 -37.47074152 115.56582261 -41.3125 116.875 C-50.06864175 119.69642345 -57.85448961 120.13515533 -67 120 C-67.33 120.66 -67.66 121.32 -68 122 C-69.485 122.495 -69.485 122.495 -71 123 C-72.01866229 124.65532623 -73.01810813 126.32260138 -74 128 C-74.99 128.66 -75.98 129.32 -77 130 C-73.68455701 131.10514766 -70.79589889 131.32107631 -67.3125 131.5625 C-66.13300781 131.64628906 -64.95351563 131.73007812 -63.73828125 131.81640625 C-62.83464844 131.87699219 -61.93101562 131.93757812 -61 132 C-61 132.33 -61 132.66 -61 133 C-69.44734773 133.60820904 -76.64166865 134.04607903 -83.80859375 128.93359375 C-94.35559009 119.62742051 -100.63763297 106.07569962 -107.36328125 93.94140625 C-108.55429025 91.79405045 -109.74570188 89.64691793 -110.9375 87.5 C-111.52756836 86.43652344 -112.11763672 85.37304688 -112.72558594 84.27734375 C-117.77085126 75.25626527 -123.22478944 66.56852669 -129 58 C-130.49620961 67.08697972 -131.9567751 76.15388444 -132.9375 85.3125 C-137.68815904 127.20784074 -137.68815904 127.20784074 -151.49609375 138.421875 C-159.06738641 143.19379737 -166.63397357 145.50944848 -175.25 147.75 C-177.00570313 148.22373047 -177.00570313 148.22373047 -178.796875 148.70703125 C-187.45258387 151 -187.45258387 151 -192 151 C-191.3319827 144.60504784 -190.05233608 138.50008079 -188.5625 132.25 C-188.02265458 129.94419358 -187.4836597 127.63818793 -186.9453125 125.33203125 C-186.79708542 124.6988649 -186.64885834 124.06569855 -186.49613953 123.41334534 C-184.27728106 113.9289186 -182.10363104 104.43408846 -179.9375 94.9375 C-179.71957794 93.98237518 -179.50165588 93.02725037 -179.27713013 92.04318237 C-176.12062992 78.18404741 -173.13776798 64.31093312 -170.46875 50.34863281 C-169.99877028 47.99383858 -169.4753275 45.65654906 -168.9375 43.31640625 C-167.79537556 38.26551706 -167.18924026 33.1760943 -166.5625 28.0390625 C-166 25 -166 25 -164 22 C-164.34897107 52.36048329 -168.23488927 83.21011952 -174 113 C-174.20657227 114.07942871 -174.41314453 115.15885742 -174.62597656 116.27099609 C-175.27800105 119.64202993 -175.94679176 123.00914227 -176.625 126.375 C-176.83125 127.41164795 -177.0375 128.4482959 -177.25 129.51635742 C-177.54777344 130.94298706 -177.54777344 130.94298706 -177.8515625 132.3984375 C-178.02510254 133.24067871 -178.19864258 134.08291992 -178.37744141 134.95068359 C-179 137 -179 137 -181 139 C-180.1146783 129.08439693 -178.15533236 119.32009095 -176.0546875 109.59765625 C-172.33842423 91.9200466 -170.78009508 73.95406185 -169 56 C-169.70917224 59.24981747 -170.41715545 62.49989311 -171.125 65.75 C-171.4638623 67.30352173 -171.4638623 67.30352173 -171.80957031 68.88842773 C-173.00866543 74.39712978 -174.19497247 79.90798821 -175.3515625 85.42578125 C-179.82542371 106.70154709 -184.66597522 127.92161598 -190 149 C-186.37209023 148.09461016 -182.74831526 147.17359016 -179.125 146.25 C-178.11179687 145.99734375 -177.09859375 145.7446875 -176.0546875 145.484375 C-164.86740705 142.61584155 -153.09516025 139.40347186 -146.25 129.375 C-136.14337789 111.18984048 -135.69667591 87.66625924 -133.30664062 67.33691406 C-133.22645187 66.66447662 -133.14626312 65.99203918 -133.06364441 65.29922485 C-132.84505515 63.46108203 -132.63100178 61.62240145 -132.41723633 59.78369141 C-132 57 -132 57 -131 55 C-130.01 55 -129.02 55 -128 55 C-126.14223235 51.86501708 -125.79859524 49.62528568 -126 46 C-122.37838189 49.29766603 -119.84355873 53.07567745 -117.25 57.1875 C-116.78464844 57.91509521 -116.31929688 58.64269043 -115.83984375 59.39233398 C-114.22132804 61.92492421 -112.61038396 64.46223184 -111 67 C-106.31593347 74.36860105 -101.61926199 81.7286816 -96.88769531 89.06689453 C-95.68918193 90.92914747 -94.49526923 92.79437574 -93.30761719 94.66357422 C-91.84813286 96.95477342 -90.36614175 99.22932599 -88.875 101.5 C-88.4625 102.15814697 -88.05 102.81629395 -87.625 103.49438477 C-85.53776114 106.61458517 -84.49928049 107.87942134 -80.78125 108.77734375 C-79.8634375 108.85082031 -78.945625 108.92429687 -78 109 C-76.625 111.0625 -76.625 111.0625 -76 113 C-76.66 113 -77.32 113 -78 113 C-75.30567344 116.48677555 -72.2072263 117.11783965 -68 118 C-53.91443679 119.11790184 -40.67930026 114.6291721 -28 109 C-29.01707031 108.87044922 -29.01707031 108.87044922 -30.0546875 108.73828125 C-38.60886718 107.44686077 -46.33614244 104.69236124 -53 99 C-53 98.34 -53 97.68 -53 97 C-49.86097443 98.50673227 -46.87204841 100.22217078 -43.87890625 102 C-39.51148864 104.3244468 -36.16067009 105.24483542 -31.1875 105.125 C-29.72376953 105.09792969 -29.72376953 105.09792969 -28.23046875 105.0703125 C-27.49441406 105.04710937 -26.75835937 105.02390625 -26 105 C-26.33 104.01 -26.66 103.02 -27 102 C-26.01 101.01 -25.02 100.02 -24 99 C-20.52100842 100.39159663 -19.51947499 101.63251488 -18 105 C-16.04132008 94.98451649 -14.34196564 84.96874845 -12.92282104 74.8631897 C-10.81871929 59.93353232 -8.32682781 45.10041329 -5.59521484 30.27197266 C-4.43436535 23.89063346 -3.34662659 17.49637913 -2.25561523 11.1027832 C-2.10423096 10.22323975 -1.95284668 9.34369629 -1.796875 8.4375 C-1.66635742 7.67308594 -1.53583984 6.90867187 -1.40136719 6.12109375 C-1.01055991 4.05580566 -0.53135688 2.0332181 0 0 Z " fill="#CBCBCB" transform="translate(504,341)"/>
<path d="M0 0 C0.99 1.485 0.99 1.485 2 3 C1.34 3.33 0.68 3.66 0 4 C0.02320313 4.69867188 0.04640625 5.39734375 0.0703125 6.1171875 C0.08835937 7.02726562 0.10640625 7.93734375 0.125 8.875 C0.14820313 9.77992188 0.17140625 10.68484375 0.1953125 11.6171875 C0 14 0 14 -2 16 C-5.25079499 15.55478243 -8.21648717 14.14657154 -11.25 12.9375 C-18.21772253 10.406293 -23.43097404 10.68779922 -30.5625 12 C-35.10478844 12.82074247 -39.32210069 13.06208887 -43.93359375 12.95703125 C-51.88364625 12.90748611 -59.6154692 13.68142804 -67.5 14.6875 C-68.95116684 14.86569537 -70.40242279 15.04316633 -71.85375977 15.2199707 C-76.5710724 15.79857133 -81.28572889 16.39717519 -86 17 C-86.84874695 17.10844238 -87.6974939 17.21688477 -88.57196045 17.32861328 C-100.2329506 18.81982516 -100.2329506 18.81982516 -111.890625 20.33666992 C-122.93203184 21.78019437 -133.84285986 23.18290394 -145 23 C-143.68 22.67 -142.36 22.34 -141 22 C-141.66 20.35 -142.32 18.7 -143 17 C-142.34 17 -141.68 17 -141 17 C-140.67 18.32 -140.34 19.64 -140 21 C-138.54077307 20.88590407 -137.08259402 20.75834456 -135.625 20.625 C-134.40683594 20.52058594 -134.40683594 20.52058594 -133.1640625 20.4140625 C-130.79665809 20.17107412 -130.79665809 20.17107412 -129 18 C-125.875 18.375 -125.875 18.375 -123 19 C-123 18.34 -123 17.68 -123 17 C-120.69 17.66 -118.38 18.32 -116 19 C-116 18.34 -116 17.68 -116 17 C-112.7 17 -109.4 17 -106 17 C-105.67 15.68 -105.34 14.36 -105 13 C-105.99 12.67 -106.98 12.34 -108 12 C-108 11.34 -108 10.68 -108 10 C-109.94074861 10.27617533 -109.94074861 10.27617533 -112 11 C-112.66 11.99 -113.32 12.98 -114 14 C-114.66 13.01 -115.32 12.02 -116 11 C-115.67 10.34 -115.34 9.68 -115 9 C-112.39877781 8.43795699 -109.87147559 8.02247747 -107.23828125 7.66796875 C-106.37205643 7.54503952 -105.5058316 7.42211029 -104.61335754 7.29545593 C-101.41075158 6.84879327 -98.20589809 6.42239593 -95 6 C-94.03978565 5.87326275 -94.03978565 5.87326275 -93.06017303 5.74396515 C-83.08740539 4.43006971 -73.10842287 3.16843707 -63.1262207 1.9284668 C-58.99969111 1.41538357 -54.87462904 0.89133735 -50.74978161 0.36492634 C-47.51851307 -0.04535104 -44.28624777 -0.44732134 -41.0536747 -0.84717751 C-39.53337496 -1.03665252 -38.0134444 -1.22911953 -36.49394798 -1.42493248 C-8.08377835 -5.07586082 -8.08377835 -5.07586082 0 0 Z " fill="#ADADAC" transform="translate(537,272)"/>
<path d="M0 0 C-2.58589804 1.29294902 -3.37078799 0.74690495 -6.125 0 C-21.52426841 -3.20265261 -39.49175158 1.280681 -54.875 3.1875 C-57.44264541 3.50214153 -60.01035479 3.81626141 -62.578125 4.12988281 C-67.82281909 4.77078104 -73.06725942 5.41369803 -78.31152344 6.05810547 C-88.81221832 7.3466728 -99.31594646 8.60980028 -109.82022095 9.86880493 C-112.98983727 10.24878168 -116.1593519 10.62959833 -119.32885742 11.01049805 C-130.21149334 12.31683108 -141.09694206 13.58976817 -151.98901367 14.81518555 C-159.08673617 15.62896344 -166.17241519 16.52765839 -173.2578125 17.44140625 C-174.28133316 17.57320282 -175.30485382 17.70499939 -176.35939026 17.84078979 C-181.49641562 18.50306716 -186.63279985 19.16982889 -191.76831055 19.84375 C-202.14838154 21.19511896 -212.52057057 22.41462333 -222.94978333 23.32313538 C-243.45581326 25.04153512 -243.45581326 25.04153512 -260 36.1875 C-261.00665013 37.45307216 -262.00778124 38.72308211 -263 40 C-263.66 40.66 -264.32 41.32 -265 42 C-264.07429582 35.3233586 -259.99150655 31.49959534 -254.95703125 27.29296875 C-245.47024599 20.46732179 -234.48748059 18.43363009 -223.08984375 17.18359375 C-221.28030968 16.96969749 -221.28030968 16.96969749 -219.43421936 16.7514801 C-215.6032561 16.30156381 -211.77054655 15.86926623 -207.9375 15.4375 C-205.42629788 15.14503198 -202.91522873 14.85141994 -200.40429688 14.55664062 C-186.99049178 12.99010544 -173.56788919 11.50153082 -160.14486694 10.0164032 C-152.11328131 9.1271172 -144.08649548 8.20558188 -136.0625 7.25 C-133.21751916 6.91345883 -130.37242493 6.57787925 -127.52734375 6.2421875 C-126.35770081 6.1040715 -126.35770081 6.1040715 -125.16442871 5.96316528 C-114.16420948 4.66447997 -103.16342234 3.37063516 -92.161973 2.08241272 C-88.84461715 1.69392757 -85.52735924 1.30465041 -82.2102356 0.91418457 C-55.97662952 -2.17332301 -55.97662952 -2.17332301 -43.15505981 -3.37295532 C-11.42438088 -6.38488353 -11.42438088 -6.38488353 0 0 Z " fill="#D8D8D8" transform="translate(540,269)"/>
<path d="M0 0 C0.33 0 0.66 0 1 0 C0.65102893 30.36048329 -3.23488927 61.21011952 -9 91 C-9.20657227 92.07942871 -9.41314453 93.15885742 -9.62597656 94.27099609 C-10.27800105 97.64202993 -10.94679176 101.00914227 -11.625 104.375 C-11.83125 105.41164795 -12.0375 106.4482959 -12.25 107.51635742 C-12.44851563 108.46744385 -12.64703125 109.41853027 -12.8515625 110.3984375 C-13.02510254 111.24067871 -13.19864258 112.08291992 -13.37744141 112.95068359 C-14 115 -14 115 -16 117 C-15.1146783 107.08439693 -13.15533236 97.32009095 -11.0546875 87.59765625 C-7.33842423 69.9200466 -5.78009508 51.95406185 -4 34 C-4.70917224 37.24981747 -5.41715545 40.49989311 -6.125 43.75 C-6.3509082 44.78568115 -6.57681641 45.8213623 -6.80957031 46.88842773 C-8.00866543 52.39712978 -9.19497247 57.90798821 -10.3515625 63.42578125 C-14.82542371 84.70154709 -19.66597522 105.92161598 -25 127 C-21.37209023 126.09461016 -17.74831526 125.17359016 -14.125 124.25 C-13.11179687 123.99734375 -12.09859375 123.7446875 -11.0546875 123.484375 C0.13259295 120.61584155 11.90483975 117.40347186 18.75 107.375 C28.85662211 89.18984048 29.30332409 65.66625924 31.69335938 45.33691406 C31.8136425 44.3282579 31.8136425 44.3282579 31.93635559 43.29922485 C32.15494485 41.46108203 32.36899822 39.62240145 32.58276367 37.78369141 C33 35 33 35 34 33 C34.99 33 35.98 33 37 33 C38.70532323 31.05990478 38.70532323 31.05990478 40 29 C39.979375 29.78375 39.95875 30.5675 39.9375 31.375 C39.81315937 33.98114961 39.81315937 33.98114961 41 36 C40.34 36 39.68 36 39 36 C39.66128906 37.05960937 40.32257813 38.11921875 41.00390625 39.2109375 C41.85719223 40.59869932 42.71003396 41.98673436 43.5625 43.375 C44.00013672 44.07367188 44.43777344 44.77234375 44.88867188 45.4921875 C45.98750978 47.29185903 47.00067867 49.14322343 48 51 C47.505 51.99 47.505 51.99 47 53 C41.555 44.585 41.555 44.585 36 36 C34.51755944 45.09679434 33.043763 54.14885937 32.0625 63.3125 C27.31184096 105.20784074 27.31184096 105.20784074 13.50390625 116.421875 C5.93261359 121.19379737 -1.63397357 123.50944848 -10.25 125.75 C-11.42046875 126.06582031 -12.5909375 126.38164062 -13.796875 126.70703125 C-22.45258387 129 -22.45258387 129 -27 129 C-26.3319827 122.60504784 -25.05233608 116.50008079 -23.5625 110.25 C-23.02265458 107.94419358 -22.4836597 105.63818793 -21.9453125 103.33203125 C-21.79708542 102.6988649 -21.64885834 102.06569855 -21.49613953 101.41334534 C-19.27728106 91.9289186 -17.10363104 82.43408846 -14.9375 72.9375 C-14.71957794 71.98237518 -14.50165588 71.02725037 -14.27713013 70.04318237 C-11.12061744 56.18399263 -8.13887155 42.31071142 -5.46850586 28.34863281 C-4.99883897 25.99417972 -4.47750302 23.65654652 -3.94140625 21.31640625 C-3.06564342 17.43967898 -2.45531934 13.56738925 -1.9375 9.625 C-1.49154412 6.24163224 -1.07923131 3.23769393 0 0 Z M39 24 C42.08089673 26.77280706 43.68775452 29.06326356 45 33 C44.01 32.34 43.02 31.68 42 31 C42 30.34 42 29.68 42 29 C41.34 29 40.68 29 40 29 C39.67 27.35 39.34 25.7 39 24 Z " fill="#484848" transform="translate(339,363)"/>
<path d="M0 0 C-0.62390625 0.46019531 -1.2478125 0.92039062 -1.890625 1.39453125 C-3.76627631 2.8221103 -5.37782116 4.29671221 -7 6 C-7.99 5.67 -8.98 5.34 -10 5 C-10 4.01 -10 3.02 -10 2 C-11.12516085 3.83284443 -11.12516085 3.83284443 -12 6 C-11.505 7.485 -11.505 7.485 -11 9 C-5.72 9 -0.44 9 5 9 C5 9.33 5 9.66 5 10 C-9.05976107 12.07737521 -23.12845604 13.8996473 -37.25 15.5 C-41.01314511 15.92990694 -44.7761089 16.36138924 -48.5390625 16.79296875 C-49.44824432 16.8969548 -50.35742615 17.00094086 -51.29415894 17.108078 C-56.54057487 17.71006451 -61.78318667 18.33477678 -67.0234375 18.98828125 C-68.16393555 19.13007813 -69.30443359 19.271875 -70.47949219 19.41796875 C-72.48852824 19.66995589 -74.49705584 19.92605356 -76.50488281 20.1875 C-82.05070855 20.87996447 -87.40997235 21.10771859 -93 21 C-91.68 20.67 -90.36 20.34 -89 20 C-89.66 18.35 -90.32 16.7 -91 15 C-90.34 15 -89.68 15 -89 15 C-88.67 16.32 -88.34 17.64 -88 19 C-86.54077307 18.88590407 -85.08259402 18.75834456 -83.625 18.625 C-82.40683594 18.52058594 -82.40683594 18.52058594 -81.1640625 18.4140625 C-78.79665809 18.17107412 -78.79665809 18.17107412 -77 16 C-73.875 16.375 -73.875 16.375 -71 17 C-71 16.34 -71 15.68 -71 15 C-68.69 15.66 -66.38 16.32 -64 17 C-64 16.34 -64 15.68 -64 15 C-60.7 15 -57.4 15 -54 15 C-53.67 13.68 -53.34 12.36 -53 11 C-53.99 10.67 -54.98 10.34 -56 10 C-56 9.34 -56 8.68 -56 8 C-57.94074861 8.27617533 -57.94074861 8.27617533 -60 9 C-60.66 9.99 -61.32 10.98 -62 12 C-62.66 11.01 -63.32 10.02 -64 9 C-63.67 8.34 -63.34 7.68 -63 7 C-60.29919238 6.42643292 -57.6693794 5.99305715 -54.9375 5.625 C-54.07713135 5.50342529 -53.2167627 5.38185059 -52.33032227 5.2565918 C-49.22186696 4.824631 -46.11121711 4.41159551 -43 4 C-41.7109375 3.82645996 -40.421875 3.65291992 -39.09375 3.47412109 C-35.58152063 3.00236681 -32.06801308 2.54124999 -28.55349731 2.08685303 C-27.15795763 1.90591209 -25.76266516 1.72305267 -24.36764526 1.53814697 C-16.2013646 0.46159526 -8.24042846 -0.28177019 0 0 Z " fill="#C9C9C9" transform="translate(485,274)"/>
<path d="M0 0 C2.31 0.33 4.62 0.66 7 1 C7 1.99 7 2.98 7 4 C9.86724686 3.42655063 10.8614515 3.1385485 13 1 C13 1.66 13 2.32 13 3 C14.65 2.67 16.3 2.34 18 2 C18 2.66 18 3.32 18 4 C15.50092755 4.46393672 13.00105541 4.92195122 10.5 5.375 C9.73405518 5.51510498 8.96811035 5.65520996 8.17895508 5.79956055 C3.68586751 6.59891593 -0.76726222 7.20494484 -5.31079102 7.62011719 C-16.40398604 8.68627619 -25.27626965 12.07286662 -32.59765625 20.6796875 C-37.75913342 29.2198475 -37.44624443 37.68435968 -37.43579102 47.35498047 C-37.4447772 49.01479773 -37.45498742 50.67460875 -37.46632385 52.33441162 C-37.49273821 56.82623542 -37.49985361 61.31788759 -37.50177121 65.80978155 C-37.50390844 68.62006365 -37.51032212 71.43030255 -37.51826286 74.24057388 C-37.54598631 84.05575567 -37.55827194 93.87081551 -37.5559082 103.68603516 C-37.55410593 112.81799171 -37.58576871 121.94941659 -37.63313919 131.08123863 C-37.67243077 138.93714284 -37.68845722 146.79287369 -37.68654197 154.64887536 C-37.68577902 159.33407893 -37.69422105 164.01880945 -37.72607613 168.70391464 C-37.7552315 173.11191413 -37.75528249 177.51899187 -37.73352623 181.92702484 C-37.7304026 183.53862742 -37.73739491 185.15028854 -37.7556076 186.76179123 C-37.85488396 196.15940643 -37.26338606 203.43645851 -31 211 C-25.47016855 216.52983145 -19.22220617 218.42990862 -11.5625 218.4375 C-0.88358394 218.40114125 9.71105539 216.81055165 20.26928711 215.33569336 C20.95462524 215.24195435 21.63996338 215.14821533 22.34606934 215.05163574 C24.23410551 214.79189061 26.12088318 214.52304504 28.00756836 214.25366211 C31 214 31 214 34 215 C30.7282136 218.2717864 26.42888619 217.35239436 21.96875 217.4609375 C20.9890625 217.63882813 20.009375 217.81671875 19 218 C17.51951798 219.92505889 17.51951798 219.92505889 17 222 C16.67 221.34 16.34 220.68 16 220 C16.33 219.34 16.66 218.68 17 218 C13.9254644 218.7763932 13.9254644 218.7763932 12 221 C11.278125 220.62875 10.55625 220.2575 9.8125 219.875 C6.27015489 218.77293708 5.35238615 219.59667556 2 221 C0.046875 221.10546875 0.046875 221.10546875 -2.0625 221.0625 C-5.72305393 220.82165253 -5.72305393 220.82165253 -8.0625 221.5625 C-11.1252775 222.25409492 -13.94347171 221.52901451 -17 221 C-17.33 221.66 -17.66 222.32 -18 223 C-21 223 -21 223 -23.1875 221 C-23.785625 220.34 -24.38375 219.68 -25 219 C-25.33 219.99 -25.66 220.98 -26 222 C-27.32 222 -28.64 222 -30 222 C-30 221.34 -30 220.68 -30 220 C-29.34 220 -28.68 220 -28 220 C-28.67534517 216.96154763 -28.67534517 216.96154763 -30.75 215.8125 C-33.30015424 214.89161097 -35.30871768 214.94207505 -38 215 C-38.16852247 213.39602723 -38.33474886 211.7918131 -38.5 210.1875 C-38.5928125 209.29417969 -38.685625 208.40085937 -38.78125 207.48046875 C-39 205 -39 205 -39 202 C-39.15739452 200.4690438 -39.32240611 198.93886585 -39.49169922 197.40917969 C-40.23081829 189.43321298 -40.14338978 181.45466997 -40.1328125 173.453125 C-40.13395881 171.71020484 -40.13543758 169.96728486 -40.13722229 168.22436523 C-40.14023238 163.53850462 -40.13599801 158.85268009 -40.12917709 154.16682434 C-40.12499279 151.24496491 -40.12203508 148.32310623 -40.11929321 145.40124512 C-40.10431969 131.26739466 -40.06149224 117.13372156 -40 103 C-39.99574257 102.01388733 -39.99148514 101.02777466 -39.98709869 100.01177979 C-39.93298385 87.83057656 -39.85333298 75.64987397 -39.73553467 63.46911621 C-39.70216585 59.99460486 -39.67535139 56.52013844 -39.65411377 53.04553223 C-39.6286284 48.97522474 -39.5886179 44.90532298 -39.53693962 40.83526611 C-39.52032584 39.34841645 -39.50867249 37.8615018 -39.50235176 36.37457275 C-39.49280777 34.35279323 -39.46312644 32.33113845 -39.43237305 30.30957031 C-39.42126999 29.18045227 -39.41016693 28.05133423 -39.39872742 26.88800049 C-38.95474326 23.67220343 -38.02005107 22.45914166 -36 20 C-36 19.01 -36 18.02 -36 17 C-35.38640625 16.92910156 -34.7728125 16.85820312 -34.140625 16.78515625 C-31.81931552 16.1849879 -31.81931552 16.1849879 -30.734375 13.93359375 C-30.40953125 13.10988281 -30.0846875 12.28617187 -29.75 11.4375 C-29.24726563 10.19806641 -29.24726563 10.19806641 -28.734375 8.93359375 C-28.49203125 8.29550781 -28.2496875 7.65742188 -28 7 C-27.67 7.66 -27.34 8.32 -27 9 C-26.154375 8.690625 -25.30875 8.38125 -24.4375 8.0625 C-20.90361461 6.97020815 -17.6709757 6.46615564 -14 6 C-11.68677818 5.65057891 -9.37432315 5.29605825 -7.0625 4.9375 C-5.91910156 4.76089844 -4.77570313 4.58429688 -3.59765625 4.40234375 C-2.74042969 4.26957031 -1.88320313 4.13679688 -1 4 C-0.67 2.68 -0.34 1.36 0 0 Z " fill="#DADADA" transform="translate(327,297)"/>
<path d="M0 0 C0.33 0 0.66 0 1 0 C1.34081126 6.62688567 0.03527509 12.76786426 -1.25 19.25 C-3.31436662 29.98852117 -5.06481008 40.73675226 -6.61791992 51.56005859 C-7.50036389 57.6864202 -8.44342645 63.78741647 -9.5625 69.875 C-10.88290943 77.09419505 -11.940344 84.3344849 -12.91040039 91.60888672 C-14.69274699 104.66422721 -17.36489309 113.83356763 -27.9375 122.50390625 C-34.0508385 126.93839232 -40.76142036 129.06724999 -48 131 C-48.680625 131.19078125 -49.36125 131.3815625 -50.0625 131.578125 C-53.03554927 132.2254825 -55.97071785 132.05825543 -59 132 C-55.43146794 129.96854346 -51.78387787 129.10468751 -47.8125 128.125 C-41.88451458 126.61870272 -36.4924074 124.69802469 -31 122 C-31 121.195625 -31 120.39125 -31 119.5625 C-31 118.375 -31 117.1875 -31 116 C-34.88568837 114.50623172 -37.47074152 115.56582261 -41.3125 116.875 C-51.53408944 120.33461489 -64.45064162 122.35741041 -74.875 118.625 C-78 117 -78 117 -79 115 C-78.31035156 115.2165625 -77.62070312 115.433125 -76.91015625 115.65625 C-59.73641925 120.74476467 -43.91253614 116.06461734 -28 109 C-29.01707031 108.87044922 -29.01707031 108.87044922 -30.0546875 108.73828125 C-38.60886718 107.44686077 -46.33614244 104.69236124 -53 99 C-53 98.34 -53 97.68 -53 97 C-49.86097443 98.50673227 -46.87204841 100.22217078 -43.87890625 102 C-39.51148864 104.3244468 -36.16067009 105.24483542 -31.1875 105.125 C-29.72376953 105.09792969 -29.72376953 105.09792969 -28.23046875 105.0703125 C-27.49441406 105.04710937 -26.75835937 105.02390625 -26 105 C-26.33 104.01 -26.66 103.02 -27 102 C-26.01 101.01 -25.02 100.02 -24 99 C-20.52100842 100.39159663 -19.51947499 101.63251488 -18 105 C-16.04132008 94.98451649 -14.34196564 84.96874845 -12.92282104 74.8631897 C-10.81871929 59.93353232 -8.32682781 45.10041329 -5.59521484 30.27197266 C-4.43436535 23.89063346 -3.34662659 17.49637913 -2.25561523 11.1027832 C-2.02853882 9.78346802 -2.02853882 9.78346802 -1.796875 8.4375 C-1.66635742 7.67308594 -1.53583984 6.90867187 -1.40136719 6.12109375 C-1.01055991 4.05580566 -0.53135688 2.0332181 0 0 Z " fill="#656565" transform="translate(504,341)"/>
<path d="M0 0 C0 2.95835543 -0.09433794 5.18534438 -1 8 C-7.16081637 12.44425303 -15.12103318 13.91968048 -22.4453125 15.32421875 C-23.28835938 15.54722656 -24.13140625 15.77023437 -25 16 C-25.33 16.66 -25.66 17.32 -26 18 C-28.91747073 17.8859425 -31.83344495 17.75919732 -34.75 17.625 C-35.575 17.5940625 -36.4 17.563125 -37.25 17.53125 C-38.04921875 17.49257813 -38.8484375 17.45390625 -39.671875 17.4140625 C-40.4050293 17.3826416 -41.13818359 17.3512207 -41.89355469 17.31884766 C-44.24922918 16.96227477 -45.93450591 16.16337117 -48 15 C-46.68 14.01 -45.36 13.02 -44 12 C-44.33 11.34 -44.66 10.68 -45 10 C-42.80084649 7.47097346 -41.26422245 6.65284449 -38 6 C-37.67 5.67 -37.34 5.34 -37 5 C-34.08345271 4.69694313 -31.17138845 4.43359069 -28.25 4.1875 C-20.93696901 3.5193705 -14.56362317 2.2829886 -7.6640625 -0.29296875 C-4.69876689 -1.07994603 -2.92080262 -0.83375638 0 0 Z " fill="#E2E2E2" transform="translate(474,456)"/>
<path d="M0 0 C0.33 0 0.66 0 1 0 C0.08619101 20.57645753 -2.22588327 41.03366505 -6.42773438 61.19873047 C-7.07947969 64.38905716 -7.68957426 67.5860787 -8.296875 70.78515625 C-8.73932988 73.08598625 -9.18203454 75.38676824 -9.625 77.6875 C-9.83108887 78.7820752 -10.03717773 79.87665039 -10.24951172 81.00439453 C-10.44818848 82.01743652 -10.64686523 83.03047852 -10.8515625 84.07421875 C-11.02510254 84.97744873 -11.19864258 85.88067871 -11.37744141 86.8112793 C-12 89 -12 89 -14 91 C-14 89.35 -14 87.7 -14 86 C-14.66 86 -15.32 86 -16 86 C-16 86.66 -16 87.32 -16 88 C-16.66 88 -17.32 88 -18 88 C-17.46884603 80.16933591 -15.95248989 72.74697003 -14.125 65.125 C-13.86847656 64.03058594 -13.61195313 62.93617188 -13.34765625 61.80859375 C-12.09966457 56.50933259 -10.80636208 51.22454066 -9.4609375 45.94921875 C-7.94034349 39.89866678 -6.6946014 33.8096529 -5.5 27.6875 C-5.17962769 26.06533569 -5.17962769 26.06533569 -4.8527832 24.41040039 C-4.4288987 22.2640544 -4.00609306 20.11749501 -3.58447266 17.97070312 C-2.79493771 13.95772852 -1.9921808 9.94745947 -1.1875 5.9375 C-0.95417969 4.77089844 -0.72085937 3.60429687 -0.48046875 2.40234375 C-0.24263672 1.21318359 -0.24263672 1.21318359 0 0 Z " fill="#E4E4E4" transform="translate(335,391)"/>
<path d="M0 0 C0.33 0 0.66 0 1 0 C1 33.66 1 67.32 1 102 C0.34 102 -0.32 102 -1 102 C-3.26783895 85.26835934 -3.34319293 68.57403534 -3.31567383 51.7253418 C-3.30983976 47.82368353 -3.32695903 43.92249393 -3.3500185 40.02091312 C-3.3648641 36.96564576 -3.36561387 33.91048924 -3.36250877 30.85519218 C-3.36301478 29.41735328 -3.36811336 27.97950694 -3.37832069 26.54170418 C-3.43615442 17.27623065 -2.5062398 8.93161796 0 0 Z " fill="#C2C2C2" transform="translate(275,315)"/>
<path d="M0 0 C-0.33 0.66 -0.66 1.32 -1 2 C-3.28515625 2.6328125 -3.28515625 2.6328125 -6.0625 3.125 C-7.44115234 3.37636719 -7.44115234 3.37636719 -8.84765625 3.6328125 C-9.55792969 3.75398438 -10.26820313 3.87515625 -11 4 C-11 4.33 -11 4.66 -11 5 C-11.76441406 5.07516846 -12.52882813 5.15033691 -13.31640625 5.2277832 C-43.61753412 6.3457747 -43.61753412 6.3457747 -69 20.1875 C-70.00665013 21.45307216 -71.00778124 22.72308211 -72 24 C-72.66 24.66 -73.32 25.32 -74 26 C-73.07429582 19.3233586 -68.99150655 15.49959534 -63.95703125 11.29296875 C-54.21712256 4.28520203 -42.82331892 2.30975965 -31.13696289 0.93432617 C-29.06568521 0.68787899 -26.99917532 0.41458799 -24.93164062 0.13867188 C-16.46854238 -0.93247734 -8.47596533 -1.03418581 0 0 Z " fill="#DADBDB" transform="translate(349,285)"/>
<path d="M0 0 C2.97 0.495 2.97 0.495 6 1 C6 1.66 6 2.32 6 3 C5.34 3 4.68 3 4 3 C4.45375 3.45375 4.9075 3.9075 5.375 4.375 C6.58333333 5.58333333 7.79166667 6.79166667 9 8 C9 12 9 12 8.51283264 13.90032959 C7.87691187 16.50395486 7.83693288 18.91454335 7.79467773 21.59472656 C7.77473251 22.71558655 7.75478729 23.83644653 7.73423767 24.99127197 C7.70916893 26.79770172 7.70916893 26.79770172 7.68359375 28.640625 C7.66281265 29.87794373 7.64203156 31.11526245 7.62062073 32.39007568 C7.56634128 35.67138691 7.51608221 38.95272733 7.46777344 42.23413086 C7.41743908 45.58583104 7.3617364 48.9374372 7.30664062 52.2890625 C7.19955491 58.85930464 7.09776964 65.42961298 7 72 C7.66 72 8.32 72 9 72 C9.09765625 78.15234375 9.09765625 78.15234375 9 80 C8.505 80.495 8.505 80.495 8 81 C7.89939664 83.93126657 7.86384972 86.83900868 7.87060547 89.77075195 C7.86885315 90.69106201 7.86710083 91.61137207 7.86529541 92.55957031 C7.86087397 95.6191595 7.86381663 98.67869142 7.8671875 101.73828125 C7.86651437 103.85719311 7.86554427 105.97610489 7.86428833 108.09501648 C7.86281082 112.5447157 7.86496697 116.9943949 7.86962891 121.4440918 C7.87531582 127.15071114 7.8720541 132.85728335 7.86605644 138.56390095 C7.86244339 142.94331721 7.86359304 147.3227223 7.86618423 151.7021389 C7.86685198 153.80610344 7.86603039 155.910069 7.86370468 158.01403236 C7.86116714 160.95640371 7.86503487 163.89869879 7.87060547 166.84106445 C7.86858124 167.71343246 7.86655701 168.58580048 7.86447144 169.48460388 C7.86729126 170.28800201 7.87011108 171.09140015 7.87301636 171.91914368 C7.87339338 172.61472035 7.87377041 173.31029703 7.87415886 174.02695179 C7.93815268 176.04848035 7.93815268 176.04848035 8.57043648 178.13005352 C9 180 9 180 8 182 C8.20625 182.804375 8.4125 183.60875 8.625 184.4375 C9 187 9 187 7.75 188.8125 C6 190 6 190 3 190 C3.32400787 189.01764877 3.64801575 188.03529755 3.98184204 187.0231781 C5.71023099 180.03779312 5.29567412 172.77842098 5.29052734 165.62915039 C5.29651806 163.96771443 5.30332485 162.30628125 5.31088257 160.64485168 C5.3284913 156.14898173 5.33323569 151.65318799 5.33451414 147.15728688 C5.33593884 144.34501246 5.3402144 141.53275723 5.34550858 138.72048759 C5.36398962 128.89999035 5.37218132 119.07954727 5.37060547 109.2590332 C5.36940356 100.11922774 5.39052062 90.97965823 5.4220928 81.83991247 C5.44827557 73.97894245 5.45897197 66.11804943 5.45769465 58.25703615 C5.45718575 53.568058 5.46282975 48.87928983 5.48405075 44.1903553 C5.50346776 39.78006106 5.50353408 35.37017648 5.48901749 30.95986748 C5.4869328 29.34623997 5.49160993 27.73258657 5.5037384 26.1190033 C5.56368813 17.58729165 5.2934221 10.55560689 1 3 C0.67 2.01 0.34 1.02 0 0 Z " fill="#F0F0F0" transform="translate(535,288)"/>
<path d="M0 0 C4.04282254 3.60317754 6.69276431 7.90246559 9.5625 12.4375 C10.04396484 13.18837891 10.52542969 13.93925781 11.02148438 14.71289062 C11.94807216 16.16203823 12.86931434 17.6146218 13.78442383 19.07104492 C14.79106369 20.66844633 15.8221108 22.25043744 16.859375 23.828125 C18.43579644 26.82980417 17.8196391 28.79595626 17 32 C12.01442673 32 12.01442673 32 9 30 C6.57968806 26.79570754 4.71730305 23.2469047 2.75 19.75 C2.19570313 18.80769531 1.64140625 17.86539062 1.0703125 16.89453125 C0.54695313 15.97542969 0.02359375 15.05632812 -0.515625 14.109375 C-1.23153809 12.85592285 -1.23153809 12.85592285 -1.96191406 11.57714844 C-3.17578282 8.5636022 -3.18649365 6.21965452 -3 3 C-1.68 3.99 -0.36 4.98 1 6 C0.67 4.02 0.34 2.04 0 0 Z " fill="#E8E8E7" transform="translate(397,419)"/>
<path d="M0 0 C3.67878436 0.96631526 3.67878436 0.96631526 7.125 -0.0625 C8.2975131 0.88867134 9.46287015 1.84867009 10.625 2.8125 C11.59953125 3.61300781 11.59953125 3.61300781 12.59375 4.4296875 C13.35171875 5.17605469 13.35171875 5.17605469 14.125 5.9375 C14.125 6.5975 14.125 7.2575 14.125 7.9375 C10.46059094 7.1557594 7.58076091 5.67022665 4.3203125 3.875 C-7.98743959 -1.38097954 -24.88560461 2.43846845 -37.70703125 4.125 C-39.47755051 4.35019443 -41.24819875 4.57437679 -43.01896667 4.79760742 C-47.63719725 5.38168696 -52.25408067 5.97572293 -56.87060547 6.57312012 C-64.27364806 7.53074198 -71.67787025 8.47877673 -79.08356285 9.41567993 C-81.64880222 9.74257962 -84.21292236 10.07737884 -86.77705383 10.4128418 C-94.50928476 11.40674442 -102.06153077 12.21392572 -109.875 11.9375 C-109.875 11.6075 -109.875 11.2775 -109.875 10.9375 C-89.8842069 8.22417768 -69.87974579 5.65113938 -49.85302734 3.21777344 C-46.16601513 2.76951584 -42.47978734 2.31509457 -38.79368019 1.85946274 C-35.89947225 1.5027821 -33.00475215 1.15040359 -30.10987473 0.79920197 C-28.09775184 0.55402625 -26.08617365 0.30439309 -24.07461548 0.05462646 C-15.83945234 -0.93617073 -8.18555108 -1.75073401 0 0 Z " fill="#3C3C3C" transform="translate(533.875,268.0625)"/>
<path d="M0 0 C0 0.33 0 0.66 0 1 C-0.99902344 1.13277344 -1.99804688 1.26554687 -3.02734375 1.40234375 C-4.31769531 1.57894531 -5.60804688 1.75554687 -6.9375 1.9375 C-8.22527344 2.11152344 -9.51304687 2.28554688 -10.83984375 2.46484375 C-13.85466313 2.66162423 -13.85466313 2.66162423 -15 4 C-16.66617115 4.04063832 -18.33388095 4.042721 -20 4 C-20 5.32 -20 6.64 -20 8 C-20.99 7.67 -21.98 7.34 -23 7 C-23.495 6.01 -23.495 6.01 -24 5 C-26.02463255 4.34786708 -26.02463255 4.34786708 -28 4 C-28 4.66 -28 5.32 -28 6 C-29.32 5.67 -30.64 5.34 -32 5 C-32.33 5.66 -32.66 6.32 -33 7 C-32.34 7.33 -31.68 7.66 -31 8 C-31.99 8 -32.98 8 -34 8 C-34.495 7.01 -34.495 7.01 -35 6 C-36.65 6.66 -38.3 7.32 -40 8 C-40 7.34 -40 6.68 -40 6 C-42.33075929 6.95865509 -42.33075929 6.95865509 -44 10 C-44 8.68 -44 7.36 -44 6 C-47.11785113 6.64644661 -47.11785113 6.64644661 -48 9 C-48.65226562 8.91621094 -49.30453125 8.83242188 -49.9765625 8.74609375 C-50.85054688 8.64425781 -51.72453125 8.54242188 -52.625 8.4375 C-53.48351562 8.33308594 -54.34203125 8.22867187 -55.2265625 8.12109375 C-58.3166603 7.98617399 -60.95918453 8.44064012 -64 9 C-71.19475277 9.79780525 -71.19475277 9.79780525 -74.078125 10.07421875 C-78.63949355 10.58780796 -81.98967554 11.81580543 -86 14 C-86.66 14 -87.32 14 -88 14 C-88.33 13.34 -88.66 12.68 -89 12 C-89.99 12.66 -90.98 13.32 -92 14 C-92 12.68 -92 11.36 -92 10 C-71.64635118 7.40148408 -51.28551276 4.86748208 -30.90100098 2.52182007 C-28.97691231 2.30008231 -27.05299968 2.07681126 -25.12927246 1.85195923 C-22.42002905 1.53594762 -19.71015211 1.22607795 -17 0.91796875 C-15.80857391 0.77770767 -15.80857391 0.77770767 -14.59307861 0.63461304 C-9.69622217 0.0871323 -4.92775733 -0.08224595 0 0 Z " fill="#E1E1E1" transform="translate(508,494)"/>
<path d="M0 0 C2.31 0.33 4.62 0.66 7 1 C7 1.99 7 2.98 7 4 C9.86724686 3.42655063 10.8614515 3.1385485 13 1 C13 1.66 13 2.32 13 3 C14.65 2.67 16.3 2.34 18 2 C18 2.66 18 3.32 18 4 C15.50092755 4.46393672 13.00105541 4.92195122 10.5 5.375 C9.73405518 5.51510498 8.96811035 5.65520996 8.17895508 5.79956055 C3.68586751 6.59891593 -0.76726222 7.20494484 -5.31079102 7.62011719 C-15.40473301 8.5902387 -23.96454684 11.36299957 -31.0625 18.875 C-34.05760628 22.65906111 -35.60410248 26.40174934 -37 31 C-37.66 31 -38.32 31 -39 31 C-39.28189097 26.11388989 -39.19302147 23.72519171 -36 20 C-36 19.01 -36 18.02 -36 17 C-35.38640625 16.92910156 -34.7728125 16.85820312 -34.140625 16.78515625 C-31.81931552 16.1849879 -31.81931552 16.1849879 -30.734375 13.93359375 C-30.40953125 13.10988281 -30.0846875 12.28617187 -29.75 11.4375 C-29.24726563 10.19806641 -29.24726563 10.19806641 -28.734375 8.93359375 C-28.49203125 8.29550781 -28.2496875 7.65742188 -28 7 C-27.67 7.66 -27.34 8.32 -27 9 C-26.154375 8.690625 -25.30875 8.38125 -24.4375 8.0625 C-20.90361461 6.97020815 -17.6709757 6.46615564 -14 6 C-11.68677818 5.65057891 -9.37432315 5.29605825 -7.0625 4.9375 C-5.91910156 4.76089844 -4.77570313 4.58429688 -3.59765625 4.40234375 C-2.74042969 4.26957031 -1.88320313 4.13679688 -1 4 C-0.67 2.68 -0.34 1.36 0 0 Z " fill="#D2D2D2" transform="translate(327,297)"/>
<path d="M0 0 C0.66 0 1.32 0 2 0 C4.44286032 2.99996665 6.45732805 6.31976473 8.5625 9.5625 C9.16513672 10.45775391 9.76777344 11.35300781 10.38867188 12.27539062 C16.1701774 21.13257922 16.1701774 21.13257922 16 27 C14.5625 29.4375 14.5625 29.4375 13 31 C11.60527535 28.95546046 10.22967709 26.9008572 8.87109375 24.83203125 C7.53605992 22.81136419 6.17055654 20.81069219 4.78515625 18.82421875 C-1.63608515 9.22056948 -1.63608515 9.22056948 -1 3.6875 C-0.67 2.470625 -0.34 1.25375 0 0 Z " fill="#E3E3E3" transform="translate(379,392)"/>
<path d="M0 0 C3.88737093 3.47343791 6.31433405 7.47109045 9 11.875 C14.7240431 21.10982687 20.71010065 30.1578291 26.75 39.1875 C27.20745605 39.87173035 27.66491211 40.55596069 28.13623047 41.26092529 C30.75437625 45.17604033 33.37576903 49.08896142 36 53 C35.505 53.99 35.505 53.99 35 55 C27.43859205 45.03995811 20.75068974 34.51704297 14 24 C14.33 25.65 14.66 27.3 15 29 C14.01 29 13.02 29 12 29 C11.67 28.67 11.34 28.34 11 28 C11.4612157 31.13626677 12.16947387 33.33242951 13.625 36.1875 C14.07875 37.115625 14.5325 38.04375 15 39 C14.67 39.66 14.34 40.32 14 41 C12.34587239 38.2549092 10.70319166 35.5031388 9.0625 32.75 C8.59392578 31.97269531 8.12535156 31.19539063 7.64257812 30.39453125 C6.9706543 29.26337891 6.9706543 29.26337891 6.28515625 28.109375 C5.87144775 27.41811523 5.45773926 26.72685547 5.03149414 26.01464844 C4.00584929 24.01142447 3.4502987 22.19763 3 20 C5.0245738 21.93254772 6.42105792 23.63158688 8 26 C9.57700261 23.02121728 10.14101137 21.56564788 9.3125 18.2421875 C7.85702402 14.64681528 5.98099221 11.48712584 3.875 8.25 C0 2.25648789 0 2.25648789 0 0 Z " fill="#666665" transform="translate(384,396)"/>
<path d="M0 0 C3.13902557 1.50673227 6.12795159 3.22217078 9.12109375 5 C13.48851136 7.3244468 16.83932991 8.24483542 21.8125 8.125 C22.78832031 8.10695313 23.76414062 8.08890625 24.76953125 8.0703125 C25.50558594 8.04710937 26.24164063 8.02390625 27 8 C26.67 7.01 26.34 6.02 26 5 C26.99 4.01 27.98 3.02 29 2 C30.875 2.5 30.875 2.5 33 4 C34.81154927 8.64701769 35.33127824 10.79911637 34 15.625 C31.70914625 19.4908157 29.31045114 21.98381118 26 25 C25.34 24.67 24.68 24.34 24 24 C24.433125 23.51789063 24.86625 23.03578125 25.3125 22.5390625 C25.869375 21.90742188 26.42625 21.27578125 27 20.625 C27.556875 19.99851562 28.11375 19.37203125 28.6875 18.7265625 C30.20172487 17.09610167 30.20172487 17.09610167 30 15 C29.34 15 28.68 15 28 15 C27.67 15.66 27.34 16.32 27 17 C27.33 15.68 27.66 14.36 28 13 C27.67 13 27.34 13 27 13 C17.17179713 11.17666825 7.75634635 8.6131207 0 2 C0 1.34 0 0.68 0 0 Z " fill="#B4B4B4" transform="translate(451,438)"/>
<path d="M0 0 C0.33 0.66 0.66 1.32 1 2 C2.32 1.67 3.64 1.34 5 1 C5 1.99 5 2.98 5 4 C7.43717258 3.72965366 7.43717258 3.72965366 10 3 C10.66 2.01 11.32 1.02 12 0 C12.66 0.66 13.32 1.32 14 2 C14.99 1.34 15.98 0.68 17 0 C17 0.66 17 1.32 17 2 C17.77085937 1.90460938 18.54171875 1.80921875 19.3359375 1.7109375 C20.33882813 1.60007812 21.34171875 1.48921875 22.375 1.375 C23.37273437 1.25898438 24.37046875 1.14296875 25.3984375 1.0234375 C26.25695312 1.01570313 27.11546875 1.00796875 28 1 C28.66 1.66 29.32 2.32 30 3 C12.51 4.98 -4.98 6.96 -23 9 C-23.33 8.34 -23.66 7.68 -24 7 C-20.04 6.34 -16.08 5.68 -12 5 C-11.67 3.68 -11.34 2.36 -11 1 C-9.01432292 1.32552083 -7.02864583 1.65104167 -5.04296875 1.9765625 C-2.68244176 2.19577848 -2.68244176 2.19577848 0 0 Z " fill="#B1B1B1" transform="translate(372,273)"/>
<path d="M0 0 C0.33 0 0.66 0 1 0 C0.6157569 9.66371385 -0.90059067 19.06969315 -2.48291016 28.59619141 C-3.71383076 36.04555712 -4.72579686 43.47933517 -5.5078125 50.98828125 C-5.95970554 53.75343631 -6.57464155 55.61458607 -8 58 C-12.64747695 53.76639855 -15.89925748 48.94215161 -19.3125 43.6875 C-19.86228516 42.85154297 -20.41207031 42.01558594 -20.97851562 41.15429688 C-22.32435457 39.10628109 -23.66464405 37.0548599 -25 35 C-24.67 34.34 -24.34 33.68 -24 33 C-21.84831934 36.10015114 -19.70468007 39.20577812 -17.5625 42.3125 C-16.64500977 43.63411133 -16.64500977 43.63411133 -15.70898438 44.98242188 C-15.12568359 45.82998047 -14.54238281 46.67753906 -13.94140625 47.55078125 C-13.40201416 48.33106689 -12.86262207 49.11135254 -12.30688477 49.9152832 C-11 52 -11 52 -10 55 C-9.34 55 -8.68 55 -8 55 C-7.96261719 54.1028125 -7.92523438 53.205625 -7.88671875 52.28125 C-7.48618935 44.67904498 -6.65660255 37.39079324 -5.15917969 29.92724609 C-4.04671905 24.37982983 -3.23741956 18.82272992 -2.47265625 13.21875 C-1.82013063 8.77510447 -0.95050194 4.38848768 0 0 Z " fill="#4C4C4C" transform="translate(458,341)"/>
<path d="M0 0 C0.33 0 0.66 0 1 0 C1.33 7.26 1.66 14.52 2 22 C2.33 22 2.66 22 3 22 C3 40.48 3 58.96 3 78 C2.67 78 2.34 78 2 78 C-0.23496605 62.11964653 -0.24506752 46.35844417 -0.1373291 30.34521484 C-0.11650434 26.91180957 -0.10765886 23.4783727 -0.09765625 20.04492188 C-0.07585351 13.36320196 -0.04257683 6.68161819 0 0 Z " fill="#D9DADA" transform="translate(272,338)"/>
<path d="M0 0 C-0.639375 0.2475 -1.27875 0.495 -1.9375 0.75 C-4.18741541 1.81562433 -4.18741541 1.81562433 -4.75 4.125 C-4.8325 4.74375 -4.915 5.3625 -5 6 C-4.01 6.33 -3.02 6.66 -2 7 C-5.60781213 9.40520808 -7.05936895 9.12881731 -11.3125 8.9375 C-16.42526727 8.84081808 -19.58927399 9.21427831 -24 12 C-24.99 12 -25.98 12 -27 12 C-22.13037614 5.20162315 -16.91263027 2.155913 -8.8125 0.25 C-5.85832511 -0.01259332 -2.96428762 -0.07057828 0 0 Z " fill="#E0E0E0" transform="translate(374,323)"/>
<path d="M0 0 C1.32 0.66 2.64 1.32 4 2 C4.33 1.34 4.66 0.68 5 0 C5.99 0.99 6.98 1.98 8 3 C7.01 3 6.02 3 5 3 C5 3.66 5 4.32 5 5 C-9.84358525 7.6822619 -24.96283882 7.64103429 -40 8 C-40 7.67 -40 7.34 -40 7 C-29.605 5.515 -29.605 5.515 -19 4 C-19 3.34 -19 2.68 -19 2 C-18.46375 2.144375 -17.9275 2.28875 -17.375 2.4375 C-14.60084173 3.09453748 -11.81474612 3.55219948 -9 4 C-8.67 3.01 -8.34 2.02 -8 1 C-7.34 1 -6.68 1 -6 1 C-6 1.66 -6 2.32 -6 3 C-4.02 2.67 -2.04 2.34 0 2 C0 1.34 0 0.68 0 0 Z " fill="#838383" transform="translate(451,266)"/>
<path d="M0 0 C3.08089673 2.77280706 4.68775452 5.06326356 6 9 C5.01 8.34 4.02 7.68 3 7 C3 6.34 3 5.68 3 5 C2.34 5 1.68 5 1 5 C0.67 3.35 0.34 1.7 0 0 Z M0 5 C0.33 5 0.66 5 1 5 C0.979375 5.78375 0.95875 6.5675 0.9375 7.375 C0.81315937 9.98114961 0.81315937 9.98114961 2 12 C1.34 12 0.68 12 0 12 C0.99193359 13.58941406 0.99193359 13.58941406 2.00390625 15.2109375 C2.85719223 16.59869932 3.71003396 17.98673436 4.5625 19.375 C5.00013672 20.07367188 5.43777344 20.77234375 5.88867188 21.4921875 C6.98750978 23.29185903 8.00067867 25.14322343 9 27 C8.67 27.66 8.34 28.32 8 29 C4.37 23.39 0.74 17.78 -3 12 C-4.95283804 23.98332435 -6.68646485 35.93092995 -8 48 C-8.66 47.34 -9.32 46.68 -10 46 C-9.86718132 43.07195176 -9.61628755 40.27560139 -9.25 37.375 C-9.10220093 36.10958374 -9.10220093 36.10958374 -8.95141602 34.81860352 C-8.74559477 33.07231588 -8.534677 31.32662193 -8.31884766 29.58154297 C-8.01731662 27.14020366 -7.73092602 24.69760095 -7.44921875 22.25390625 C-6.1593025 11.318605 -6.1593025 11.318605 -5 9 C-4.01 9 -3.02 9 -2 9 C-1.34 7.68 -0.68 6.36 0 5 Z " fill="#5E5E5E" transform="translate(378,387)"/>
<path d="M0 0 C-0.33 0.66 -0.66 1.32 -1 2 C-0.35933594 2.12117188 0.28132812 2.24234375 0.94140625 2.3671875 C6.048046 3.35655139 11.00575905 4.5311056 16 6 C17.36125 6.2165625 17.36125 6.2165625 18.75 6.4375 C22.60999643 7.40249911 23.84929283 9.77393925 26 13 C26.66 13.66 27.32 14.32 28 15 C27.505 16.485 27.505 16.485 27 18 C26.50113281 17.54109375 26.00226562 17.0821875 25.48828125 16.609375 C19.1907053 11.22760453 12.98219146 8.98629494 5 7 C5 6.34 5 5.68 5 5 C-0.28 4.67 -5.56 4.34 -11 4 C-11 3.67 -11 3.34 -11 3 C-8.69 3 -6.38 3 -4 3 C-4 2.34 -4 1.68 -4 1 C-4.66 0.67 -5.32 0.34 -6 0 C-2.25 -1.125 -2.25 -1.125 0 0 Z " fill="#6E6E6E" transform="translate(523,258)"/>
<path d="M0 0 C11.4996654 -0.54130224 20.69924448 -0.75690927 31 5 C28.44277038 6.27861481 27.83083958 5.77034579 25.125 5 C18.8133596 3.61070306 12.74277398 4.19205522 6.35302734 4.61108398 C0.42416299 4.98310652 -5.10642575 4.88403614 -11 4 C-11 3.67 -11 3.34 -11 3 C-5.555 2.01 -5.555 2.01 0 1 C0 0.67 0 0.34 0 0 Z " fill="#C7C7C7" transform="translate(509,264)"/>
<path d="M0 0 C3.41593036 3.05210346 5.18155613 6.81768779 7.3046875 10.8203125 C8.84682932 13.23839858 8.84682932 13.23839858 11.6953125 13.8046875 C12.45585937 13.86914062 13.21640625 13.93359375 14 14 C14.66 12.35 15.32 10.7 16 9 C18.0625 10.75 18.0625 10.75 20 13 C19.82246387 16.01811422 19.16264785 16.83735215 17 19 C16.59952556 21.32275177 16.2602896 23.65739357 16 26 C11.55820899 21.98161713 8.71811799 17.61393332 5.75 12.4375 C5.08097656 11.30538086 5.08097656 11.30538086 4.3984375 10.15039062 C2.43232579 6.76927427 0.80935624 3.85624973 0 0 Z " fill="#A0A0A0" transform="translate(399,437)"/>
<path d="M0 0 C0.33 0 0.66 0 1 0 C1.01030746 0.73027405 1.02061493 1.4605481 1.03123474 2.21295166 C1.12925887 9.09893723 1.23178031 15.98484278 1.33933926 22.87068558 C1.39447655 26.41066693 1.44788161 29.95065668 1.49731445 33.49072266 C1.55423585 37.56161313 1.61871557 41.6323535 1.68359375 45.703125 C1.70030624 46.97303284 1.71701874 48.24294067 1.73423767 49.55133057 C1.75418289 50.73225281 1.77412811 51.91317505 1.79467773 53.12988281 C1.81022202 54.16912903 1.8257663 55.20837524 1.84178162 56.27911377 C1.90947945 58.94511473 1.90947945 58.94511473 2.57533264 61.24188232 C3 63 3 63 2 65 C2.20625 65.804375 2.4125 66.60875 2.625 67.4375 C3 70 3 70 1.75 71.8125 C0 73 0 73 -3 73 C-2.67854004 71.989375 -2.35708008 70.97875 -2.02587891 69.9375 C-0.40187624 63.39782468 -0.64102372 56.69784652 -0.5859375 50 C-0.5671994 48.55410693 -0.54762407 47.10822449 -0.5272522 45.66235352 C-0.47620363 41.88135076 -0.43643317 38.10031265 -0.39910889 34.31915283 C-0.3588969 30.45096286 -0.30788355 26.58291644 -0.2578125 22.71484375 C-0.16137679 15.14332811 -0.07686999 7.57174226 0 0 Z " fill="#F7F7F7" transform="translate(541,405)"/>
<path d="M0 0 C0.495 0.99 0.495 0.99 1 2 C-4.67482645 1.0971867 -4.67482645 1.0971867 -6.73828125 0.48046875 C-18.13470557 -1.94053331 -32.60715408 -0.46392196 -42.625 5.4375 C-45.28446706 7.30585977 -47.44580171 9.0858782 -49 12 C-49 12.99 -49 13.98 -49 15 C-49.66 15 -50.32 15 -51 15 C-51.33 15.99 -51.66 16.98 -52 18 C-53 15 -53 15 -51.375 11.625 C-46.33584217 3.53851361 -40.1290849 0.42931229 -31.03515625 -1.69140625 C-20.25939317 -3.67459045 -10.44581169 -3.75154357 0 0 Z " fill="#505050" transform="translate(397,323)"/>
<path d="M0 0 C-1.65 1.32 -3.3 2.64 -5 4 C-5.495 3.505 -5.495 3.505 -6 3 C-6.66 3.99 -7.32 4.98 -8 6 C-8 4.68 -8 3.36 -8 2 C-9.48117801 2.28127421 -10.95993249 2.57533732 -12.4375 2.875 C-13.26121094 3.03742188 -14.08492188 3.19984375 -14.93359375 3.3671875 C-15.61550781 3.57601563 -16.29742187 3.78484375 -17 4 C-17.33 4.66 -17.66 5.32 -18 6 C-18.66 6 -19.32 6 -20 6 C-20.495 5.01 -20.495 5.01 -21 4 C-22.98 4.99 -22.98 4.99 -25 6 C-25 5.34 -25 4.68 -25 4 C-29.64586892 4.48484276 -29.64586892 4.48484276 -34 6 C-40.64102176 6.75233953 -47.31753089 7.15540626 -54 7 C-54 6.67 -54 6.34 -54 6 C-49.21741293 5.30249935 -44.43428067 4.6089027 -39.65063477 3.91870117 C-38.02808879 3.68406002 -36.40568861 3.4484081 -34.78344727 3.21166992 C-11.30148435 -0.21323555 -11.30148435 -0.21323555 0 0 Z " fill="#DBDBDB" transform="translate(416,505)"/>
<path d="M0 0 C-0.61875 0.20625 -1.2375 0.4125 -1.875 0.625 C-4.84653645 2.54775888 -5.13024659 4.66594527 -6 8 C-6.99 7.34 -7.98 6.68 -9 6 C-11.62531524 5.83286431 -11.62531524 5.83286431 -14 6 C-14 5.34 -14 4.68 -14 4 C-15.98 4.99 -15.98 4.99 -18 6 C-18.33 5.34 -18.66 4.68 -19 4 C-19.60328125 4 -20.2065625 4 -20.828125 4 C-24.55208333 4 -28.27604167 4 -32 4 C-28.71209161 1.80806107 -26.99433039 1.55940133 -23.125 1.11328125 C-21.97515625 0.97986328 -20.8253125 0.84644531 -19.640625 0.70898438 C-18.43921875 0.57814453 -17.2378125 0.44730469 -16 0.3125 C-14.79859375 0.17005859 -13.5971875 0.02761719 -12.359375 -0.11914062 C-3.38933546 -1.12977849 -3.38933546 -1.12977849 0 0 Z " fill="#C7C7C7" transform="translate(361,289)"/>
<path d="M0 0 C-2 3 -2 3 -4.25 3.5546875 C-5.61125 3.71324219 -5.61125 3.71324219 -7 3.875 C-17.35429596 5.55554018 -23.63864644 9.8133717 -30 18 C-30.66 18.66 -31.32 19.32 -32 20 C-31.06846642 13.28131406 -26.93369774 9.46734283 -21.88671875 5.22265625 C-15.16951806 0.34284261 -8.20795794 -1.99377702 0 0 Z " fill="#B0B0B0" transform="translate(307,291)"/>
<path d="M0 0 C0.66 0.99 1.32 1.98 2 3 C1.67 3.99 1.34 4.98 1 6 C0.90755865 7.43912004 0.86932144 8.88213438 0.8671875 10.32421875 C0.86525391 11.18120361 0.86332031 12.03818848 0.86132812 12.92114258 C0.8680957 14.2904895 0.8680957 14.2904895 0.875 15.6875 C0.87693359 16.61908936 0.87886719 17.55067871 0.88085938 18.51049805 C0.9312676 26.70253414 1.35320527 34.83421659 2 43 C1.34 43 0.68 43 0 43 C0.09539062 44.25296875 0.19078125 45.5059375 0.2890625 46.796875 C0.40163079 48.4478766 0.51357747 50.09892067 0.625 51.75 C0.68945312 52.575 0.75390625 53.4 0.8203125 54.25 C0.871875 55.04921875 0.9234375 55.8484375 0.9765625 56.671875 C1.02893066 57.4050293 1.08129883 58.13818359 1.13525391 58.89355469 C0.97732614 61.35312289 0.14479017 62.84289976 -1 65 C-1.02316114 56.96801972 -1.04093436 48.93605338 -1.05181217 40.90404797 C-1.05703273 37.17454538 -1.0641154 33.44506562 -1.07543945 29.71557617 C-1.08629767 26.11702055 -1.09228308 22.5184869 -1.09487724 18.91991615 C-1.09672619 17.54638638 -1.10033666 16.17285782 -1.10573006 14.79933739 C-1.11297928 12.87689764 -1.11340839 10.95443583 -1.11352539 9.03198242 C-1.115746 7.93722092 -1.11796661 6.84245941 -1.12025452 5.71452332 C-1 3 -1 3 0 0 Z " fill="#ACADAC" transform="translate(278,325)"/>
<path d="M0 0 C2 3 2 3 2 5 C2.66 5.33 3.32 5.66 4 6 C3.814375 6.61875 3.62875 7.2375 3.4375 7.875 C2.76313824 10.04160178 2.76313824 10.04160178 4 12 C-1.625 13.125 -1.625 13.125 -5 12 C-5.33 11.01 -5.66 10.02 -6 9 C-6.66 9 -7.32 9 -8 9 C-8 8.01 -8 7.02 -8 6 C-7.34 6 -6.68 6 -6 6 C-5.67 5.34 -5.34 4.68 -5 4 C-4.34 4.33 -3.68 4.66 -3 5 C-2.690625 4.360625 -2.38125 3.72125 -2.0625 3.0625 C-1 1 -1 1 0 0 Z " fill="#BBBBBB" transform="translate(330,474)"/>
<path d="M0 0 C-3.2717864 3.2717864 -7.57111381 2.35239436 -12.03125 2.4609375 C-13.50078125 2.72777344 -13.50078125 2.72777344 -15 3 C-16.48048202 4.92505889 -16.48048202 4.92505889 -17 7 C-17.33 6.34 -17.66 5.68 -18 5 C-17.67 4.34 -17.34 3.68 -17 3 C-20.0745356 3.7763932 -20.0745356 3.7763932 -22 6 C-22.721875 5.62875 -23.44375 5.2575 -24.1875 4.875 C-26.93476166 3.69050467 -26.93476166 3.69050467 -29.25 4.9375 C-33.27104992 6.49108747 -36.81858528 5.67412786 -41 5 C-41 4.67 -41 4.34 -41 4 C-30.99815819 2.43394961 -20.99459944 0.91914041 -10.9375 -0.25 C-9.80562256 -0.38801025 -9.80562256 -0.38801025 -8.65087891 -0.52880859 C-5.36946694 -0.89475129 -3.17304388 -1.05768129 0 0 Z " fill="#D6D6D6" transform="translate(361,512)"/>
<path d="M0 0 C0.66 0 1.32 0 2 0 C2.33 1.32 2.66 2.64 3 4 C4.45922693 3.88590407 5.91740598 3.75834456 7.375 3.625 C8.18710937 3.55539062 8.99921875 3.48578125 9.8359375 3.4140625 C12.20334191 3.17107412 12.20334191 3.17107412 14 1 C17.125 1.375 17.125 1.375 20 2 C20 1.34 20 0.68 20 0 C22.31 0.66 24.62 1.32 27 2 C27 1.34 27 0.68 27 0 C31.34263862 -0.16702456 34.20960634 -0.12999997 38 2 C11.02618356 6.21354399 11.02618356 6.21354399 -2 6 C-0.68 5.67 0.64 5.34 2 5 C1.34 3.35 0.68 1.7 0 0 Z " fill="#D8D8D8" transform="translate(394,289)"/>
<path d="M0 0 C0.66 0.99 1.32 1.98 2 3 C1.67 3.66 1.34 4.32 1 5 C0.21625 5.2475 -0.5675 5.495 -1.375 5.75 C-4.89403866 7.4257327 -5.54713026 9.48252588 -7 13 C-7.99 12.67 -8.98 12.34 -10 12 C-10.99 12.33 -11.98 12.66 -13 13 C-13.33 12.01 -13.66 11.02 -14 10 C-16.31 10.66 -18.62 11.32 -21 12 C-21.66 11.34 -22.32 10.68 -23 10 C-22.2265625 9.84144531 -21.453125 9.68289063 -20.65625 9.51953125 C-14.5507197 8.15183201 -9.6348928 6.64394232 -4.5234375 2.98828125 C-3 2 -3 2 -1 2 C-0.67 1.34 -0.34 0.68 0 0 Z " fill="#D2D2D2" transform="translate(534,483)"/>
<path d="M0 0 C0.33 0.66 0.66 1.32 1 2 C1.66 2 2.32 2 3 2 C3 2.66 3 3.32 3 4 C3.99 4.33 4.98 4.66 6 5 C5.13375 5.515625 4.2675 6.03125 3.375 6.5625 C-3.26564277 11.03669194 -6.61972163 16.46245182 -9 24 C-9.66 24 -10.32 24 -11 24 C-11.28189097 19.11388989 -11.19302147 16.72519171 -8 13 C-8 12.01 -8 11.02 -8 10 C-7.38640625 9.92910156 -6.7728125 9.85820312 -6.140625 9.78515625 C-3.81931552 9.1849879 -3.81931552 9.1849879 -2.734375 6.93359375 C-2.40953125 6.10988281 -2.0846875 5.28617187 -1.75 4.4375 C-1.24726563 3.19806641 -1.24726563 3.19806641 -0.734375 1.93359375 C-0.49203125 1.29550781 -0.2496875 0.65742188 0 0 Z " fill="#B3B3B3" transform="translate(299,304)"/>
<path d="M0 0 C4.29 0.33 8.58 0.66 13 1 C12.67 1.66 12.34 2.32 12 3 C9.71484375 3.6328125 9.71484375 3.6328125 6.9375 4.125 C6.01839844 4.29257812 5.09929687 4.46015625 4.15234375 4.6328125 C3.08693359 4.81457031 3.08693359 4.81457031 2 5 C2 5.33 2 5.66 2 6 C-4.435 6.495 -4.435 6.495 -11 7 C-11.33 6.34 -11.66 5.68 -12 5 C-11.67 4.34 -11.34 3.68 -11 3 C-8.49609375 2.3671875 -8.49609375 2.3671875 -5.4375 1.875 C-3.91962891 1.62363281 -3.91962891 1.62363281 -2.37109375 1.3671875 C-1.58863281 1.24601562 -0.80617188 1.12484375 0 1 C0 0.67 0 0.34 0 0 Z " fill="#C9C9C9" transform="translate(336,284)"/>
<path d="M0 0 C6.68363952 1.27984587 10.86824619 4.6479004 16 9 C15.01 10.98 14.02 12.96 13 15 C12.67 13.68 12.34 12.36 12 11 C8.7 10.34 5.4 9.68 2 9 C2.33 7.68 2.66 6.36 3 5 C3.22609337 2.87635519 3.22609337 2.87635519 1.5 1.375 C1.005 0.92125 0.51 0.4675 0 0 Z " fill="#8D8D8C" transform="translate(534,270)"/>
<path d="M0 0 C0.66 0.33 1.32 0.66 2 1 C2.99 1.33 3.98 1.66 5 2 C6.64820195 4.60242414 7 5.86248779 7 9 C6.34 9 5.68 9 5 9 C4.67 9.66 4.34 10.32 4 11 C2.68 11.33 1.36 11.66 0 12 C-1.32 9.36 -2.64 6.72 -4 4 C-2.68 2.68 -1.36 1.36 0 0 Z " fill="#E2E2E1" transform="translate(402,430)"/>
<path d="M0 0 C7 7 7 7 7.125 9.625 C7.08375 10.40875 7.0425 11.1925 7 12 C6.236875 11.938125 5.47375 11.87625 4.6875 11.8125 C1.51219194 12.03403312 1.04264341 12.71775032 -1 15 C-1.02715383 13.25008666 -1.04646551 11.50005055 -1.0625 9.75 C-1.07410156 8.77546875 -1.08570313 7.8009375 -1.09765625 6.796875 C-1.01195577 4.34241322 -0.70706066 2.33831086 0 0 Z " fill="#E3E3E3" transform="translate(359,363)"/>
<path d="M0 0 C0 0.33 0 0.66 0 1 C-1.65 1.33 -3.3 1.66 -5 2 C-4.34 2.66 -3.68 3.32 -3 4 C-10.7527507 5.51537186 -18.10042938 6.27990605 -26 6 C-26 5.67 -26 5.34 -26 5 C-22.535 4.505 -22.535 4.505 -19 4 C-20.32 3.34 -21.64 2.68 -23 2 C-7.25512528 -0.29612756 -7.25512528 -0.29612756 0 0 Z " fill="#D8D8D8" transform="translate(511,265)"/>
<path d="M0 0 C1.65 0.33 3.3 0.66 5 1 C6.0070238 6.03511899 5.97387813 9.23947038 4 14 C3.67 13.34 3.34 12.68 3 12 C2.01 12 1.02 12 0 12 C-0.66 9.36 -1.32 6.72 -2 4 C-1.34 3.67 -0.68 3.34 0 3 C0 2.01 0 1.02 0 0 Z " fill="#C5C5C5" transform="translate(373,384)"/>
<path d="M0 0 C4.33034194 3.84919283 6.6560756 7.72289646 9 13 C8.34 13.66 7.68 14.32 7 15 C6.01 14.67 5.02 14.34 4 14 C3.3125 11.9375 3.3125 11.9375 3 10 C2.01 10.33 1.02 10.66 0 11 C-1.37432457 7.18243176 -0.67975039 3.92744671 0 0 Z " fill="#F2F2F2" transform="translate(374,398)"/>
<path d="M0 0 C3.76599643 3.43241166 6.41112591 7.3347468 9.1875 11.5625 C9.63802734 12.23474609 10.08855469 12.90699219 10.55273438 13.59960938 C12.42682463 16.42900801 13.91873278 18.75619834 15 22 C15.66 22 16.32 22 17 22 C17.33 18.7 17.66 15.4 18 12 C18.33 12 18.66 12 19 12 C19.05447047 13.41623216 19.09300508 14.83308191 19.125 16.25 C19.14820313 17.03890625 19.17140625 17.8278125 19.1953125 18.640625 C18.9828378 21.20731941 18.28654105 22.7916067 17 25 C12.39323796 20.7863939 9.10488309 16.01539309 5.6875 10.8125 C5.13771484 9.99330078 4.58792969 9.17410156 4.02148438 8.33007812 C0 2.26038432 0 2.26038432 0 0 Z " fill="#434343" transform="translate(433,374)"/>
<path d="M0 0 C5.45889611 2.40833652 8.20209628 6.93300598 11 12 C11 12.66 11 13.32 11 14 C7.63486826 13.41980487 6.36548527 12.36548527 4 10 C1.89667109 9.28552357 1.89667109 9.28552357 0 9 C0.66 6.69 1.32 4.38 2 2 C1.01 1.67 0.02 1.34 -1 1 C-0.67 0.67 -0.34 0.34 0 0 Z " fill="#E7E7E7" transform="translate(435,382)"/>
<path d="M0 0 C0.99 0.33 1.98 0.66 3 1 C2.73958333 2.953125 2.47916667 4.90625 2.21875 6.859375 C1.85805087 10.38907363 2.03353118 13.75148387 2.5 17.25 C2.665 18.4875 2.83 19.725 3 21 C1.35 21.66 -0.3 22.32 -2 23 C-2 22.34 -2 21.68 -2 21 C-2.66 21 -3.32 21 -4 21 C-4 20.34 -4 19.68 -4 19 C-3.01 18.67 -2.02 18.34 -1 18 C-0.505 9.09 -0.505 9.09 0 0 Z " fill="#B1B1B1" transform="translate(277,400)"/>
<path d="M0 0 C0.33 0 0.66 0 1 0 C1 14.85 1 29.7 1 45 C0.67 45 0.34 45 0 45 C0 33.78 0 22.56 0 11 C-0.66 11 -1.32 11 -2 11 C-1.125 3.375 -1.125 3.375 0 0 Z " fill="#B7B7B7" transform="translate(269,333)"/>
<path d="M0 0 C-0.99 0.66 -1.98 1.32 -3 2 C-1.68 2.66 -0.36 3.32 1 4 C-7.07562173 5.43794854 -14.7943963 6.29599372 -23 6 C-23 5.67 -23 5.34 -23 5 C-16.07 4.01 -16.07 4.01 -9 3 C-11.97 2.505 -11.97 2.505 -15 2 C-15 1.67 -15 1.34 -15 1 C-10.03926578 -0.32286246 -5.08888488 -0.08893197 0 0 Z " fill="#E3E3E3" transform="translate(357,283)"/>
<path d="M0 0 C-2.64 0.99 -5.28 1.98 -8 3 C-7.67 3.66 -7.34 4.32 -7 5 C-7.5775 4.835 -8.155 4.67 -8.75 4.5 C-12.16429157 3.74126854 -14.69431461 3.89810487 -18 5 C-18 4.34 -18 3.68 -18 3 C-18.556875 3.185625 -19.11375 3.37125 -19.6875 3.5625 C-22.399133 4.07551165 -24.34371039 3.6640724 -27 3 C-27 2.67 -27 2.34 -27 2 C-23.06390652 1.46814367 -19.12597366 0.9514091 -15.1875 0.4375 C-14.06794922 0.28603516 -12.94839844 0.13457031 -11.79492188 -0.02148438 C-10.72177734 -0.16005859 -9.64863281 -0.29863281 -8.54296875 -0.44140625 C-7.55321045 -0.57232666 -6.56345215 -0.70324707 -5.54370117 -0.83813477 C-3 -1 -3 -1 0 0 Z " fill="#C8C8C8" transform="translate(421,282)"/>
<path d="M0 0 C-1.03125 2.00390625 -1.03125 2.00390625 -3 4 C-5.69324498 4.21533828 -7.85316806 4.20218319 -10.5 3.9375 C-11.17675781 3.89689453 -11.85351562 3.85628906 -12.55078125 3.81445312 C-15.55183786 3.56880451 -17.5746985 3.33669702 -19.96875 1.44140625 C-20.3090625 0.96574219 -20.649375 0.49007813 -21 0 C-13.81191259 -0.88826175 -7.17757765 -1.01202288 0 0 Z " fill="#C3C3C3" transform="translate(451,273)"/>
<path d="M0 0 C0.7734375 -0.01417969 1.546875 -0.02835937 2.34375 -0.04296875 C4.5 0.1875 4.5 0.1875 7.5 2.1875 C6.40300781 2.30867188 5.30601562 2.42984375 4.17578125 2.5546875 C2.72131177 2.72359363 1.26688696 2.89288481 -0.1875 3.0625 C-0.90873047 3.14113281 -1.62996094 3.21976562 -2.37304688 3.30078125 C-6.41299037 3.78040924 -9.74012596 4.55277216 -13.5 6.1875 C-16.3125 6.3125 -16.3125 6.3125 -18.5 6.1875 C-18.5 5.5275 -18.5 4.8675 -18.5 4.1875 C-14.95461536 2.06026922 -11.56065791 1.70431101 -7.5 1.1875 C-4.71398777 0.25882926 -2.88933911 0.02407783 0 0 Z " fill="#CBCACB" transform="translate(320.5,301.8125)"/>
<path d="M0 0 C0 0.66 0 1.32 0 2 C0.99 2.33 1.98 2.66 3 3 C1.10630916 3.36544911 -0.79008782 3.71689175 -2.6875 4.0625 C-3.74324219 4.25972656 -4.79898437 4.45695312 -5.88671875 4.66015625 C-8.94565374 4.9940676 -11.03288233 4.67254667 -14 4 C-16.34165499 4.26871451 -18.67884289 4.59038404 -21 5 C-16.0434455 0.0434455 -6.69265515 0 0 0 Z " fill="#CECFCF" transform="translate(316,287)"/>
<path d="M0 0 C-0.62390625 0.46019531 -1.2478125 0.92039062 -1.890625 1.39453125 C-3.76627631 2.8221103 -5.37782116 4.29671221 -7 6 C-7.99 5.67 -8.98 5.34 -10 5 C-10 4.01 -10 3.02 -10 2 C-10.33 2.66 -10.66 3.32 -11 4 C-13.875 4.1875 -13.875 4.1875 -17 4 C-17.66 3.01 -18.32 2.02 -19 1 C-12.62641289 0.03794912 -6.44070471 -0.10655578 0 0 Z " fill="#C1C1C1" transform="translate(485,274)"/>
<path d="M0 0 C0.556875 0.185625 1.11375 0.37125 1.6875 0.5625 C4.399133 1.07551165 6.34371039 0.6640724 9 0 C6.20375042 2.18697502 3.36692128 3.99152813 0.25 5.6875 C-0.94882812 6.34298828 -0.94882812 6.34298828 -2.171875 7.01171875 C-2.77515625 7.33785156 -3.3784375 7.66398437 -4 8 C-4.66 7.34 -5.32 6.68 -6 6 C-5.625 3.375 -5.625 3.375 -5 1 C-3.35 1.33 -1.7 1.66 0 2 C0 1.34 0 0.68 0 0 Z " fill="#8F8F8F" transform="translate(286,289)"/>
<path d="M0 0 C0.66 0.66 1.32 1.32 2 2 C1.67 2.66 1.34 3.32 1 4 C0.01 4 -0.98 4 -2 4 C-2 3.34 -2 2.68 -2 2 C-3.98 2.99 -3.98 2.99 -6 4 C-6.33 3.34 -6.66 2.68 -7 2 C-7.60328125 2 -8.2065625 2 -8.828125 2 C-12.55208333 2 -16.27604167 2 -20 2 C-14.05941585 -1.96038943 -6.79367509 -1.3110601 0 0 Z " fill="#BEBEBE" transform="translate(349,291)"/>
<path d="M0 0 C-2.62556439 1.75037626 -5.08629437 2.99622913 -7.9375 4.3125 C-11.96275821 6.30456209 -14.68985354 8.00974703 -17 12 C-17 12.99 -17 13.98 -17 15 C-17.66 15 -18.32 15 -19 15 C-19.33 15.99 -19.66 16.98 -20 18 C-21 15 -21 15 -19.375 11.625 C-14.95569764 4.47568492 -8.88282194 -0.80752927 0 0 Z " fill="#424242" transform="translate(365,323)"/>
<path d="M0 0 C0.8971875 0.309375 0.8971875 0.309375 1.8125 0.625 C-0.25586865 6.37046847 -2.67229377 9.51114543 -7.1875 13.625 C-7.8475 13.295 -8.5075 12.965 -9.1875 12.625 C-8.754375 12.14289063 -8.32125 11.66078125 -7.875 11.1640625 C-7.318125 10.53242188 -6.76125 9.90078125 -6.1875 9.25 C-5.630625 8.62351562 -5.07375 7.99703125 -4.5 7.3515625 C-2.98577513 5.72110167 -2.98577513 5.72110167 -3.1875 3.625 C-3.8475 3.625 -4.5075 3.625 -5.1875 3.625 C-5.5175 4.285 -5.8475 4.945 -6.1875 5.625 C-5.875 3.75 -5.875 3.75 -5.1875 1.625 C-2.1875 -0.375 -2.1875 -0.375 0 0 Z " fill="#9D9D9D" transform="translate(484.1875,449.375)"/>
<path d="M0 0 C4.42968326 3.93749623 8.68467532 8.97288308 9.3125 15 C9.1578125 15.99 9.1578125 15.99 9 17 C7.68 16.67 6.36 16.34 5 16 C5 15.34 5 14.68 5 14 C5.66 14 6.32 14 7 14 C5.36587557 12.29159719 4.13093906 11.06546953 2 10 C2.33 8.35 2.66 6.7 3 5 C2.34 5 1.68 5 1 5 C0.67 3.35 0.34 1.7 0 0 Z " fill="#E9E9E9" transform="translate(421,358)"/>
<path d="M0 0 C-0.33 0.66 -0.66 1.32 -1 2 C-0.32453125 2.10957031 0.3509375 2.21914063 1.046875 2.33203125 C1.93890625 2.49058594 2.8309375 2.64914062 3.75 2.8125 C4.63171875 2.96332031 5.5134375 3.11414063 6.421875 3.26953125 C9.1910911 4.05414248 10.8259401 5.14595359 13 7 C10.36 7 7.72 7 5 7 C5 6.34 5 5.68 5 5 C-0.28 4.67 -5.56 4.34 -11 4 C-11 3.67 -11 3.34 -11 3 C-8.69 3 -6.38 3 -4 3 C-4 2.34 -4 1.68 -4 1 C-4.66 0.67 -5.32 0.34 -6 0 C-2.25 -1.125 -2.25 -1.125 0 0 Z " fill="#9B9B9B" transform="translate(523,258)"/>
<path d="M0 0 C2.97 0.495 2.97 0.495 6 1 C6 1.66 6 2.32 6 3 C5.34 3 4.68 3 4 3 C4.45375 3.45375 4.9075 3.9075 5.375 4.375 C6.58333333 5.58333333 7.79166667 6.79166667 9 8 C9 11.11257569 8.82638376 13.10765685 8 16 C7.67 14.68 7.34 13.36 7 12 C6.34 12 5.68 12 5 12 C4.35242375 10.56328432 3.70700547 9.12559584 3.0625 7.6875 C2.70285156 6.88699219 2.34320312 6.08648437 1.97265625 5.26171875 C1 3 1 3 0 0 Z " fill="#BBBBBB" transform="translate(535,288)"/>
<path d="M0 0 C-0.99 1.485 -0.99 1.485 -2 3 C-4.77262255 3.38394667 -7.34323528 3.60342248 -10.125 3.6875 C-10.87910156 3.72166016 -11.63320313 3.75582031 -12.41015625 3.79101562 C-14.27291201 3.87354278 -16.13643326 3.93844711 -18 4 C-15.61733144 1.16571452 -13.7334822 0.43001792 -10.125 -0.25 C-9.28195312 -0.42015625 -8.43890625 -0.5903125 -7.5703125 -0.765625 C-4.82222234 -1.01621073 -2.66475756 -0.66857717 0 0 Z " fill="#B2B2B2" transform="translate(307,291)"/>
<path d="M0 0 C0.33 0.66 0.66 1.32 1 2 C0.67 2.66 0.34 3.32 0 4 C-0.2275015 5.87056791 -0.40962811 7.74685958 -0.5625 9.625 C-0.68818359 11.12933594 -0.68818359 11.12933594 -0.81640625 12.6640625 C-0.87699219 13.43492187 -0.93757813 14.20578125 -1 15 C-1.99 14.67 -2.98 14.34 -4 14 C-4.66 14.66 -5.32 15.32 -6 16 C-5.64455443 9.36501601 -3.86904957 5.36812782 0 0 Z " fill="#464646" transform="translate(279,305)"/>
<path d="M0 0 C1.32 0 2.64 0 4 0 C3.835 0.845625 3.67 1.69125 3.5 2.5625 C2.98670712 6.09138856 2.92878654 9.43932689 3 13 C3.66 13.33 4.32 13.66 5 14 C3.68 15.32 2.36 16.64 1 18 C0.67 12.06 0.34 6.12 0 0 Z " fill="#949494" transform="translate(553,288)"/>
<path d="M0 0 C0.33 0.99 0.66 1.98 1 3 C-1.14720899 5.14720899 -2.07790143 5.5434221 -5 6 C-5.66 5.67 -6.32 5.34 -7 5 C-7 5.66 -7 6.32 -7 7 C-8.32 7.33 -9.64 7.66 -11 8 C-10.81640625 6.140625 -10.81640625 6.140625 -10 4 C-7.71484375 2.734375 -7.71484375 2.734375 -4.9375 1.75 C-4.01839844 1.41484375 -3.09929687 1.0796875 -2.15234375 0.734375 C-1.44207031 0.49203125 -0.73179687 0.2496875 0 0 Z " fill="#999999" transform="translate(296,296)"/>
<path d="M0 0 C0 0.33 0 0.66 0 1 C-1.65 1.33 -3.3 1.66 -5 2 C-3.35 2.33 -1.7 2.66 0 3 C0 3.33 0 3.66 0 4 C-4.96073422 5.32286246 -9.91111512 5.08893197 -15 5 C-15 4.67 -15 4.34 -15 4 C-13.02 3.67 -11.04 3.34 -9 3 C-11.97 2.505 -11.97 2.505 -15 2 C-15 1.67 -15 1.34 -15 1 C-9.94997778 -0.03590199 -5.12583611 -0.10251672 0 0 Z " fill="#E2E2E2" transform="translate(459,271)"/>
<path d="M0 0 C-1.44253657 3.36591866 -3.33264727 5.51047079 -6 8 C-6 7.01 -6 6.02 -6 5 C-6.66 5 -7.32 5 -8 5 C-8 3.35 -8 1.7 -8 0 C-4.94736336 -0.98120464 -3.05263664 -0.98120464 0 0 Z " fill="#858585" transform="translate(281,297)"/>
<path d="M0 0 C3.9945793 2.05127045 6.10267152 3.88912162 8 8 C7.67 8.66 7.34 9.32 7 10 C2.125 8.125 2.125 8.125 1 7 C0.95936168 5.33382885 0.957279 3.66611905 1 2 C0.34 1.67 -0.32 1.34 -1 1 C-0.67 0.67 -0.34 0.34 0 0 Z " fill="#E8E8E8" transform="translate(528,285)"/>
<path d="M0 0 C1.98 0 3.96 0 6 0 C6 0.33 6 0.66 6 1 C8.97 1.33 11.94 1.66 15 2 C15 2.33 15 2.66 15 3 C7.27279225 4.23107719 -0.1683819 5.2700558 -8 5 C-8 4.67 -8 4.34 -8 4 C-2.555 3.505 -2.555 3.505 3 3 C3 2.34 3 1.68 3 1 C2.01 0.67 1.02 0.34 0 0 Z " fill="#E2E2E2" transform="translate(428,274)"/>
<path d="M0 0 C0 0.33 0 0.66 0 1 C-2.52019972 1.33885038 -5.04098516 1.67120335 -7.5625 2 C-8.26697266 2.09539062 -8.97144531 2.19078125 -9.69726562 2.2890625 C-14.17367855 2.86666417 -18.48661238 3.09489383 -23 3 C-22.67 2.34 -22.34 1.68 -22 1 C-14.61719086 -1.07983585 -7.52178661 -1.23144294 0 0 Z " fill="#DADADA" transform="translate(474,285)"/>
<path d="M0 0 C2.0625 0.4375 2.0625 0.4375 4 1 C4.625 3.375 4.625 3.375 5 6 C4.34 6.66 3.68 7.32 3 8 C0.875 7.625 0.875 7.625 -1 7 C-1.04254356 5.00045254 -1.04080783 2.99958364 -1 1 C-0.67 0.67 -0.34 0.34 0 0 Z " fill="#B2B2B0" transform="translate(532,280)"/>
<path d="M0 0 C0.90105469 0.11085938 1.80210937 0.22171875 2.73046875 0.3359375 C3.76107422 0.47902344 3.76107422 0.47902344 4.8125 0.625 C3.51957654 3.21084692 2.48789223 3.60535751 -0.1875 4.625 C-2.546875 4.6015625 -2.546875 4.6015625 -4.9375 4.25 C-5.73671875 4.13914062 -6.5359375 4.02828125 -7.359375 3.9140625 C-7.96265625 3.81867188 -8.5659375 3.72328125 -9.1875 3.625 C-7.03025143 -0.68949713 -4.26511964 -0.55391164 0 0 Z " fill="#C2C2C2" transform="translate(488.1875,267.375)"/>
<path d="M0 0 C0 0.33 0 0.66 0 1 C-0.99902344 1.13277344 -1.99804688 1.26554687 -3.02734375 1.40234375 C-4.31769531 1.57894531 -5.60804688 1.75554687 -6.9375 1.9375 C-8.22527344 2.11152344 -9.51304687 2.28554688 -10.83984375 2.46484375 C-13.85466313 2.66162423 -13.85466313 2.66162423 -15 4 C-17.33944736 3.71269945 -19.6739143 3.38063221 -22 3 C-15.89261921 -1.07158719 -7.16976178 -0.13527852 0 0 Z " fill="#E0E0E0" transform="translate(508,494)"/>
<path d="M0 0 C2.94721162 2.74395564 5.19168608 5.38337216 7 9 C6.67 9.66 6.34 10.32 6 11 C5.38125 10.2265625 5.38125 10.2265625 4.75 9.4375 C4.1725 8.963125 3.595 8.48875 3 8 C0.83700789 8.22757731 0.83700789 8.22757731 -1 9 C-1 5.88772805 -0.54372951 3.05847848 0 0 Z " fill="#E6E6E6" transform="translate(411,342)"/>
<path d="M0 0 C-6.98187183 1.55994099 -13.86606248 2.48462048 -21 3 C-19.28438075 0.89625705 -18.36104206 0.07353444 -15.66015625 -0.4765625 C-14.80292969 -0.52554687 -13.94570313 -0.57453125 -13.0625 -0.625 C-9.44449371 -0.83873975 -9.44449371 -0.83873975 -5.93359375 -1.6484375 C-3.3752723 -2.11358685 -2.17483947 -1.32043825 0 0 Z " fill="#ACACAC" transform="translate(337,283)"/>
<path d="M0 0 C0 0.99 0 1.98 0 3 C-2.31 3.66 -4.62 4.32 -7 5 C-7.33 4.34 -7.66 3.68 -8 3 C-8.99 3.66 -9.98 4.32 -11 5 C-11 3.68 -11 2.36 -11 1 C-7.27569643 0.30710631 -3.78916254 -0.11144596 0 0 Z " fill="#D9D9D9" transform="translate(427,503)"/>
<path d="M0 0 C0.33 0 0.66 0 1 0 C1.04898437 1.19238281 1.09796875 2.38476562 1.1484375 3.61328125 C1.22347604 5.17971068 1.2990234 6.74611579 1.375 8.3125 C1.42140625 9.49102539 1.42140625 9.49102539 1.46875 10.69335938 C1.50742187 11.45068359 1.54609375 12.20800781 1.5859375 12.98828125 C1.6173584 13.68477783 1.6487793 14.38127441 1.68115234 15.09887695 C1.92118253 17.32532739 1.92118253 17.32532739 4 20 C3.34 20 2.68 20 2 20 C1.67 21.32 1.34 22.64 1 24 C-1.26500801 18.65734751 -1.07486099 14.26625682 -0.625 8.625 C-0.53992188 7.37783203 -0.53992188 7.37783203 -0.453125 6.10546875 C-0.3127169 4.06955124 -0.15782335 2.03464157 0 0 Z " fill="#E9EAEA" transform="translate(292,479)"/>
<path d="M0 0 C1.98 0 3.96 0 6 0 C6.66 1.32 7.32 2.64 8 4 C7.34 4 6.68 4 6 4 C6 4.66 6 5.32 6 6 C3.13275314 5.42655063 2.1385485 5.1385485 0 3 C0 2.01 0 1.02 0 0 Z " fill="#B8B8B8" transform="translate(420,450)"/>
<path d="M0 0 C2.875 1 2.875 1 5 2 C5 2.33 5 2.66 5 3 C3.8553125 3.2165625 3.8553125 3.2165625 2.6875 3.4375 C-0.08172908 3.9632594 -0.08172908 3.9632594 -3 5 C-6.1875 4.0625 -6.1875 4.0625 -9 3 C-6.3817414 -0.49101147 -4.20034118 -0.42003412 0 0 Z " fill="#C2C2C2" transform="translate(462,270)"/>
<path d="M0 0 C2.50517516 1.20248407 4.85854281 2.5118236 7.25 3.9375 C11.02060498 6.1213428 14.89292492 7.55892102 19 9 C19 9.33 19 9.66 19 10 C11.8896464 9.40747053 5.33955241 6.89458971 0 2 C0 1.34 0 0.68 0 0 Z " fill="#4A4A4A" transform="translate(451,438)"/>
<path d="M0 0 C0.99 0 1.98 0 3 0 C3.6875 2.3125 3.6875 2.3125 4 5 C2.75 6.8125 2.75 6.8125 1 8 C0.01 8 -0.98 8 -2 8 C-1.34 5.36 -0.68 2.72 0 0 Z " fill="#D0D0D0" transform="translate(540,470)"/>
<path d="M0 0 C2.0625 1.75 2.0625 1.75 4 4 C4.0625 6.125 4.0625 6.125 3 8 C0.4375 9.25 0.4375 9.25 -2 10 C-1.125 2.25 -1.125 2.25 0 0 Z " fill="#E8E8E8" transform="translate(324,446)"/>
<path d="M0 0 C2.35448165 2.55068845 2.98327924 3.71017358 3.1875 7.25 C3.125625 8.1575 3.06375 9.065 3 10 C1.35 10.33 -0.3 10.66 -2 11 C-1.125 3.375 -1.125 3.375 0 0 Z " fill="#EEEEEE" transform="translate(328,428)"/>
<path d="M0 0 C0.33 0 0.66 0 1 0 C1.09706112 6.11485027 0.77040851 11.93303301 0 18 C-2.32101984 14.51847024 -2.69903201 12.13830989 -3 8 C-2.34 7.34 -1.68 6.68 -1 6 C-0.60235737 4.01178687 -0.26224651 2.01055661 0 0 Z " fill="#838383" transform="translate(338,378)"/>
<path d="M0 0 C0 3 0 3 -2.25 5.6875 C-5 8 -5 8 -9 8 C-7.50164772 3.33845958 -4.11536409 2.13389249 0 0 Z " fill="#EEEEEE" transform="translate(308,308)"/>
<path d="M0 0 C0.53625 0.226875 1.0725 0.45375 1.625 0.6875 C0.965 0.6875 0.305 0.6875 -0.375 0.6875 C-0.375 1.6775 -0.375 2.6675 -0.375 3.6875 C-3.015 4.3475 -5.655 5.0075 -8.375 5.6875 C-8.375 4.6975 -8.375 3.7075 -8.375 2.6875 C-2.95961538 -0.38942308 -2.95961538 -0.38942308 0 0 Z " fill="#E6E6E6" transform="translate(361.375,325.3125)"/>
<path d="M0 0 C-0.99 0.33 -1.98 0.66 -3 1 C-3 1.66 -3 2.32 -3 3 C-7.455 3.495 -7.455 3.495 -12 4 C-12.33 3.01 -12.66 2.02 -13 1 C-8.59085217 -0.10228696 -4.51617599 -0.07654536 0 0 Z " fill="#E5E5E5" transform="translate(520,282)"/>
<path d="M0 0 C1.32 0.33 2.64 0.66 4 1 C3 4 3 4 1 6 C-2.125 6.125 -2.125 6.125 -5 6 C-5 4.68 -5 3.36 -5 2 C-3.35 1.67 -1.7 1.34 0 1 C0 0.67 0 0.34 0 0 Z " fill="#C4C4C4" transform="translate(389,278)"/>
<path d="M0 0 C0 0.66 0 1.32 0 2 C-2.64 2.33 -5.28 2.66 -8 3 C-8 2.67 -8 2.34 -8 2 C-10.97 1.505 -10.97 1.505 -14 1 C-14 0.67 -14 0.34 -14 0 C-8.97703996 -1.13016601 -5.02125926 -0.77916092 0 0 Z " fill="#D1D1D1" transform="translate(431,275)"/>
<path d="M0 0 C3.65316671 1.24976756 4.78065836 1.67098753 7 5 C7.66 5.66 8.32 6.32 9 7 C8.67 7.99 8.34 8.98 8 10 C6.84481082 9.09515208 5.70114594 8.1755794 4.5625 7.25 C3.60537109 6.48429687 3.60537109 6.48429687 2.62890625 5.703125 C0.81189446 3.80332371 0.39576803 2.56413092 0 0 Z " fill="#828282" transform="translate(542,266)"/>
<path d="M0 0 C3.91841827 1.30613942 6.32640809 2.83129848 9 6 C9 6.66 9 7.32 9 8 C5.19985035 7.45712148 3.46103687 5.88535357 1 3 C0.67 2.01 0.34 1.02 0 0 Z " fill="#525252" transform="translate(539,268)"/>
<path d="M0 0 C0.99 0 1.98 0 3 0 C5 3 5 3 5 7 C5.61344757 8.68698082 6.27095914 10.35965807 7 12 C3.32966073 8.72291137 1.30718811 5.28477792 -1 1 C-0.67 0.67 -0.34 0.34 0 0 Z " fill="#E8E8E8" transform="translate(386,344)"/>
<path d="M0 0 C0.33 0 0.66 0 1 0 C1.32712342 6.13053511 1.39366878 10.62669111 -2 16 C-3.26977059 12.19068824 -2.52074507 10.18381007 -1.5625 6.3125 C-1.27503906 5.13300781 -0.98757813 3.95351563 -0.69140625 2.73828125 C-0.46324219 1.83464844 -0.23507812 0.93101562 0 0 Z " fill="#ABABAB" transform="translate(275,315)"/>
<path d="M0 0 C0.66 0.66 1.32 1.32 2 2 C5.13545766 2.02135378 5.13545766 2.02135378 8.625 1.625 C10.40777344 1.45871094 10.40777344 1.45871094 12.2265625 1.2890625 C13.14179688 1.19367188 14.05703125 1.09828125 15 1 C12.3851183 2.74325447 10.9946567 3.41587957 8.0625 4.125 C7.39347656 4.29257812 6.72445313 4.46015625 6.03515625 4.6328125 C4 5 4 5 0 5 C0 3.35 0 1.7 0 0 Z " fill="#4A4A4A" transform="translate(312,487)"/>
<path d="M0 0 C-0.54226981 3.79588866 -2.20127563 5.47211993 -5 8 C-5.99 7.34 -6.98 6.68 -8 6 C-3.38461538 0 -3.38461538 0 0 0 Z " fill="#9B9B9B" transform="translate(539,478)"/>
<path d="M0 0 C2.125 0.375 2.125 0.375 4 1 C2.79618552 3.49361571 1.54571278 5.68143083 0 8 C-0.66 8 -1.32 8 -2 8 C-2.125 5.125 -2.125 5.125 -2 2 C-1.34 1.34 -0.68 0.68 0 0 Z " fill="#E6E6E6" transform="translate(327,471)"/>
<path d="M0 0 C0.28875 0.598125 0.5775 1.19625 0.875 1.8125 C2.04742026 4.19327792 2.04742026 4.19327792 4 7 C4 7.99 4 8.98 4 10 C3.01 10.33 2.02 10.66 1 11 C-0.625 7.75 -0.625 7.75 -2 4 C-1.1875 1.5625 -1.1875 1.5625 0 0 Z " fill="#D7D7D7" transform="translate(339,461)"/>
<path d="M0 0 C3.99996286 1.33332095 4.83782337 3.4957827 7 7 C6.34 8.32 5.68 9.64 5 11 C4.15841464 9.73461631 3.32700252 8.46246221 2.5 7.1875 C1.80390625 6.12595703 1.80390625 6.12595703 1.09375 5.04296875 C0 3 0 3 0 0 Z " fill="#EAEAEA" transform="translate(406,328)"/>
<path d="M0 0 C2.31 0.33 4.62 0.66 7 1 C7 1.99 7 2.98 7 4 C4.36 4.33 1.72 4.66 -1 5 C-1 2 -1 2 0 0 Z " fill="#C5C5C5" transform="translate(327,297)"/>
<path d="M0 0 C4.29 0.33 8.58 0.66 13 1 C9.01219998 2.99390001 7.52852428 3.22686963 3.25 3.125 C2.26515625 3.10695313 1.2803125 3.08890625 0.265625 3.0703125 C-0.85585938 3.03550781 -0.85585938 3.03550781 -2 3 C-1.34 2.01 -0.68 1.02 0 0 Z " fill="#D3D3D3" transform="translate(493,280)"/>
<path d="M0 0 C0.99 0.33 1.98 0.66 3 1 C2.73958333 2.953125 2.47916667 4.90625 2.21875 6.859375 C1.93222643 9.30458395 1.93222643 9.30458395 2 13 C1.01 13.495 1.01 13.495 0 14 C0 9.38 0 4.76 0 0 Z " fill="#B9B9B9" transform="translate(277,400)"/>
<path d="M0 0 C1.98 0.495 1.98 0.495 4 1 C3.34 3.97 2.68 6.94 2 10 C0.4375 8.375 0.4375 8.375 -1 6 C-0.6875 2.75 -0.6875 2.75 0 0 Z " fill="#E6E6E6" transform="translate(375,388)"/>
<path d="M0 0 C3 1.75 3 1.75 6 4 C6 5.32 6 6.64 6 8 C4 7 4 7 2.5625 5.4375 C0.98589466 3.66147173 0.98589466 3.66147173 -2 4 C-1.34 2.68 -0.68 1.36 0 0 Z " fill="#EFEFEF" transform="translate(371,335)"/>
<path d="M0 0 C7.42857143 -0.28571429 7.42857143 -0.28571429 11 2 C6.23692563 2.95261487 1.8333472 3.08333357 -3 3 C-2.01 2.67 -1.02 2.34 0 2 C0 1.34 0 0.68 0 0 Z " fill="#E0E0E0" transform="translate(421,289)"/>
<path d="M0 0 C2.64 0 5.28 0 8 0 C8 0.99 8 1.98 8 3 C6.37675914 3.22162329 4.751279 3.42689803 3.125 3.625 C1.76761719 3.79902344 1.76761719 3.79902344 0.3828125 3.9765625 C-0.40351563 3.98429687 -1.18984375 3.99203125 -2 4 C-2.66 3.34 -3.32 2.68 -4 2 C-2.68 2 -1.36 2 0 2 C0 1.34 0 0.68 0 0 Z " fill="#D4D4D4" transform="translate(408,276)"/>
<path d="M0 0 C-1.65 1.32 -3.3 2.64 -5 4 C-5.33 3.67 -5.66 3.34 -6 3 C-6.99 4.485 -6.99 4.485 -8 6 C-8 4.68 -8 3.36 -8 2 C-9.65 2 -11.3 2 -13 2 C-13 1.67 -13 1.34 -13 1 C-8.59085217 -0.10228696 -4.51617599 -0.07654536 0 0 Z " fill="#DFDFDF" transform="translate(416,505)"/>
<path d="M0 0 C1.53445094 3.06890187 0.54984289 5.70094266 0 9 C-1.65 7.68 -3.3 6.36 -5 5 C-4.67 4.01 -4.34 3.02 -4 2 C-3.34 2.33 -2.68 2.66 -2 3 C-2 2.34 -2 1.68 -2 1 C-1.34 0.67 -0.68 0.34 0 0 Z " fill="#D4D4D4" transform="translate(321,476)"/>
<path d="M0 0 C1.32 1.32 2.64 2.64 4 4 C3.01 6.31 2.02 8.62 1 11 C-0.98362069 8.08291076 -0.9876191 6.87619096 -0.625 3.25 C-0.41875 2.1775 -0.2125 1.105 0 0 Z " fill="#ECECEC" transform="translate(374,398)"/>
<path d="M0 0 C0.66 0.33 1.32 0.66 2 1 C1.67 4.3 1.34 7.6 1 11 C0.34 10.67 -0.32 10.34 -1 10 C-1.75 6.625 -1.75 6.625 -2 3 C-1.34 2.01 -0.68 1.02 0 0 Z " fill="#EAEAEA" transform="translate(449,385)"/>
<path d="M0 0 C1.32 0 2.64 0 4 0 C4 0.66 4 1.32 4 2 C6.475 2.99 6.475 2.99 9 4 C9 4.33 9 4.66 9 5 C7.54077307 4.88590407 6.08259402 4.75834456 4.625 4.625 C3.40683594 4.52058594 3.40683594 4.52058594 2.1640625 4.4140625 C0 4 0 4 -2 2 C-1.34 1.34 -0.68 0.68 0 0 Z " fill="#C7C7C7" transform="translate(354,282)"/>
<path d="M0 0 C4.29 0.33 8.58 0.66 13 1 C12.67 1.66 12.34 2.32 12 3 C9.03 3 6.06 3 3 3 C3 2.34 3 1.68 3 1 C2.01 0.67 1.02 0.34 0 0 Z " fill="#CACACA" transform="translate(362,281)"/>
<path d="M0 0 C3.39641834 2.26427889 4.84438646 4.58075094 7 8 C7.66 7.67 8.32 7.34 9 7 C9.33 7.99 9.66 8.98 10 10 C7.8125 9.9375 7.8125 9.9375 5 9 C2.61372642 6.43314355 0 3.61081552 0 0 Z " fill="#E9E9E9" transform="translate(413,385)"/>
<path d="M0 0 C1.32 0.66 2.64 1.32 4 2 C4.33 1.34 4.66 0.68 5 0 C5.99 0.99 6.98 1.98 8 3 C6.56465159 3.2226746 5.12654475 3.42761906 3.6875 3.625 C2.88699219 3.74101562 2.08648437 3.85703125 1.26171875 3.9765625 C-1 4 -1 4 -4 2 C-2.68 2 -1.36 2 0 2 C0 1.34 0 0.68 0 0 Z " fill="#A0A0A0" transform="translate(451,266)"/>
<path d="M0 0 C0.33 0 0.66 0 1 0 C1 3.63 1 7.26 1 11 C0.01 11 -0.98 11 -2 11 C-1.125 3.375 -1.125 3.375 0 0 Z " fill="#A0A0A0" transform="translate(269,333)"/>
<path d="M0 0 C1.32 0 2.64 0 4 0 C2.52307692 5.66153846 2.52307692 5.66153846 -0.125 7.375 C-1.053125 7.684375 -1.053125 7.684375 -2 8 C-2 6.02 -2 4.04 -2 2 C-1.34 2.66 -0.68 3.32 0 4 C0 2.68 0 1.36 0 0 Z " fill="#8C8C8C" transform="translate(552,280)"/>
<path d="M0 0 C5.75 -0.125 5.75 -0.125 8 1 C8 2.65 8 4.3 8 6 C7.01 5.67 6.02 5.34 5 5 C4.3125 2.9375 4.3125 2.9375 4 1 C2.68 0.67 1.36 0.34 0 0 Z " fill="#D1D1D1" transform="translate(480,496)"/>
<path d="M0 0 C0.66 0.66 1.32 1.32 2 2 C1.9765625 4.1640625 1.9765625 4.1640625 1.625 6.625 C1.51414062 7.44226563 1.40328125 8.25953125 1.2890625 9.1015625 C1.19367188 9.72804688 1.09828125 10.35453125 1 11 C-1.63526912 5.82666431 -1.63526912 5.82666431 -2 3 C-1.34 2.01 -0.68 1.02 0 0 Z " fill="#E4E4E4" transform="translate(371,392)"/>
<path d="M0 0 C0.66 0 1.32 0 2 0 C2 0.66 2 1.32 2 2 C2.66 2 3.32 2 4 2 C4.66 4.31 5.32 6.62 6 9 C0.42857143 3.85714286 0.42857143 3.85714286 0 0 Z " fill="#F0F0F0" transform="translate(443,386)"/>
<path d="M0 0 C0.66 0.33 1.32 0.66 2 1 C1.34 3.97 0.68 6.94 0 10 C-0.66 10 -1.32 10 -2 10 C-2.25 3.375 -2.25 3.375 0 0 Z " fill="#BBBBBB" transform="translate(290,318)"/>
<path d="M0 0 C0.99 0.33 1.98 0.66 3 1 C3.875 2.875 3.875 2.875 4 5 C2.5625 6.75 2.5625 6.75 1 8 C0.26919734 6.02253397 -0.39421747 4.01927511 -1 2 C-0.67 1.34 -0.34 0.68 0 0 Z " fill="#E6E6E6" transform="translate(466,320)"/>
<path d="M0 0 C0.66 0.66 1.32 1.32 2 2 C1.04270084 3.12588014 0.08412105 4.2506715 -0.875 5.375 C-1.40867187 6.00148438 -1.94234375 6.62796875 -2.4921875 7.2734375 C-3.61432007 8.55836651 -4.79371975 9.79371975 -6 11 C-5.55530671 5.96014269 -3.28656638 3.62365012 0 0 Z " fill="#999999" transform="translate(281,300)"/>
<path d="M0 0 C0.66 0 1.32 0 2 0 C2 0.66 2 1.32 2 2 C2.99 2.33 3.98 2.66 5 3 C1.32589215 4.17571451 -2.16929183 4.07366746 -6 4 C-6 3.34 -6 2.68 -6 2 C-4.02 2 -2.04 2 0 2 C0 1.34 0 0.68 0 0 Z " fill="#BDBFBE" transform="translate(314,287)"/>
<path d="M0 0 C1.45742463 -0.08096803 2.91612807 -0.13917774 4.375 -0.1875 C5.18710937 -0.22230469 5.99921875 -0.25710938 6.8359375 -0.29296875 C7.55007813 -0.19628906 8.26421875 -0.09960938 9 0 C9.66 0.99 10.32 1.98 11 3 C7.37 2.67 3.74 2.34 0 2 C0 1.34 0 0.68 0 0 Z " fill="#989898" transform="translate(485,264)"/>
<path d="M0 0 C0.33 0 0.66 0 1 0 C0.88557539 1.60495567 0.75805306 3.20898119 0.625 4.8125 C0.55539062 5.70582031 0.48578125 6.59914063 0.4140625 7.51953125 C0 10 0 10 -2 13 C-2.33 10.69 -2.66 8.38 -3 6 C-2.34 6 -1.68 6 -1 6 C-0.67 4.02 -0.34 2.04 0 0 Z " fill="#E9E9E9" transform="translate(487,436)"/>
<path d="M0 0 C2 3 2 3 2 5 C1.34 5 0.68 5 0 5 C-0.33 5.66 -0.66 6.32 -1 7 C-1.99 5.35 -2.98 3.7 -4 2 C-2.68 1.34 -1.36 0.68 0 0 Z " fill="#E8E8E8" transform="translate(429,401)"/>
<path d="M0 0 C-0.99 0.495 -0.99 0.495 -2 1 C-2.33 1.99 -2.66 2.98 -3 4 C-3.99 4 -4.98 4 -6 4 C-6 3.01 -6 2.02 -6 1 C-6.66 0.67 -7.32 0.34 -8 0 C-5.13822943 -1.43088528 -3.06624227 -0.59991697 0 0 Z " fill="#ECECEC" transform="translate(527,284)"/>
<path d="M0 0 C2.64 0 5.28 0 8 0 C8 0.33 8 0.66 8 1 C6.35 1.33 4.7 1.66 3 2 C3.99 2.66 4.98 3.32 6 4 C3.36 4 0.72 4 -2 4 C-1.34 3.67 -0.68 3.34 0 3 C0 2.01 0 1.02 0 0 Z " fill="#E0E0E0" transform="translate(477,268)"/>
<path d="M0 0 C-1.20703125 1.51953125 -1.20703125 1.51953125 -3 3 C-5.26171875 3.07421875 -5.26171875 3.07421875 -7.6875 2.6875 C-8.89986328 2.50767578 -8.89986328 2.50767578 -10.13671875 2.32421875 C-10.75160156 2.21722656 -11.36648438 2.11023438 -12 2 C-12 1.67 -12 1.34 -12 1 C-7.93631321 0.22596442 -4.13574827 -0.0984702 0 0 Z " fill="#DEDEDE" transform="translate(332,515)"/>
<path d="M0 0 C4.75 0.875 4.75 0.875 7 2 C6.67 3.32 6.34 4.64 6 6 C3.97945196 4.35830472 1.97956942 2.69088222 0 1 C0 0.67 0 0.34 0 0 Z " fill="#EAEAEA" transform="translate(296,506)"/>
<path d="M0 0 C0.33 0 0.66 0 1 0 C0.67 3.3 0.34 6.6 0 10 C-0.66 9.67 -1.32 9.34 -2 9 C-2 6.69 -2 4.38 -2 2 C-1.34 2 -0.68 2 0 2 C0 1.34 0 0.68 0 0 Z " fill="#ECECEC" transform="translate(318,457)"/>
<path d="M0 0 C-1 2 -1 2 -4.0625 3.125 C-5.5165625 3.558125 -5.5165625 3.558125 -7 4 C-7.66 3.01 -8.32 2.02 -9 1 C-6.04335481 -0.4783226 -3.25770263 -0.06032783 0 0 Z " fill="#E6E6E6" transform="translate(477,449)"/>
<path d="M0 0 C-0.33 0.99 -0.66 1.98 -1 3 C-3.31 3.33 -5.62 3.66 -8 4 C-8 3.34 -8 2.68 -8 2 C-4.77208445 -0.1519437 -3.71599191 -0.20086443 0 0 Z " fill="#BFBFBF" transform="translate(310,304)"/>
<path d="M0 0 C1.32 0 2.64 0 4 0 C3.45276317 3.37462715 2.9451 5.08235 1 8 C0.67 5.36 0.34 2.72 0 0 Z " fill="#8A8A8A" transform="translate(553,288)"/>
<path d="M0 0 C-0.99 1.485 -0.99 1.485 -2 3 C-3.9453125 3.29296875 -3.9453125 3.29296875 -6.125 3.1875 C-7.40375 3.125625 -8.6825 3.06375 -10 3 C-6.46873184 -0.69178035 -5.02635024 -1.19045137 0 0 Z " fill="#B8B8B8" transform="translate(299,292)"/>
<path d="M0 0 C0.99 0 1.98 0 3 0 C3.33 0.99 3.66 1.98 4 3 C3.34 3 2.68 3 2 3 C2.33 3.99 2.66 4.98 3 6 C2.01 6.495 2.01 6.495 1 7 C0.34 6.34 -0.32 5.68 -1 5 C-0.625 2.375 -0.625 2.375 0 0 Z " fill="#888888" transform="translate(281,290)"/>
<path d="M0 0 C2.31 0 4.62 0 7 0 C7.33 0.99 7.66 1.98 8 3 C2.25 3.125 2.25 3.125 0 2 C0 1.34 0 0.68 0 0 Z " fill="#D9D9D9" transform="translate(358,282)"/>
<path d="M0 0 C4.55737263 0.43820891 7.57653445 0.85041169 11 4 C8.36 4 5.72 4 3 4 C3 3.34 3 2.68 3 2 C2.01 1.67 1.02 1.34 0 1 C0 0.67 0 0.34 0 0 Z " fill="#898989" transform="translate(525,261)"/>
<path d="M0 0 C2.83374881 3.20336822 3.5205537 5.78087253 4 10 C3.01 9.67 2.02 9.34 1 9 C0.67 6.03 0.34 3.06 0 0 Z " fill="#D5D5D5" transform="translate(328,424)"/>
<path d="M0 0 C0.33 0 0.66 0 1 0 C0.979375 0.928125 0.95875 1.85625 0.9375 2.8125 C0.84230396 6.02286011 0.84230396 6.02286011 2 9 C1.67 9.66 1.34 10.32 1 11 C0.34 11 -0.32 11 -1 11 C-1.14285714 3.57142857 -1.14285714 3.57142857 0 0 Z " fill="#E3E3E3" transform="translate(332,406)"/>
<path d="M0 0 C0.66 0 1.32 0 2 0 C3.125 5.625 3.125 5.625 2 9 C0.4375 7.3125 0.4375 7.3125 -1 5 C-0.6875 2.25 -0.6875 2.25 0 0 Z " fill="#EAEAEA" transform="translate(405,369)"/>
<path d="M0 0 C1.65 1.65 3.3 3.3 5 5 C4.01 5.495 4.01 5.495 3 6 C0.875 5.0625 0.875 5.0625 -1 4 C-0.67 2.68 -0.34 1.36 0 0 Z M-3 4 C-1 5 -1 5 -1 5 Z " fill="#E3E3E3" transform="translate(403,330)"/>
<path d="M0 0 C0.66 1.32 1.32 2.64 2 4 C0.35 5.32 -1.3 6.64 -3 8 C-3.66 7.67 -4.32 7.34 -5 7 C-4.67 5.35 -4.34 3.7 -4 2 C-3.67 2.66 -3.34 3.32 -3 4 C-2.34 3.67 -1.68 3.34 -1 3 C-0.67 2.01 -0.34 1.02 0 0 Z " fill="#E5E5E5" transform="translate(517,306)"/>
<path d="M0 0 C0.33 0.66 0.66 1.32 1 2 C1.66 2 2.32 2 3 2 C3 2.66 3 3.32 3 4 C3.66 4 4.32 4 5 4 C5 5.65 5 7.3 5 9 C1.7457985 6.16569547 0.4793247 4.31392226 0 0 Z " fill="#D9D9D9" transform="translate(324,443)"/>
<path d="M0 0 C1.32 0 2.64 0 4 0 C4.33 0.99 4.66 1.98 5 3 C3.02 3.99 3.02 3.99 1 5 C0.34 4.01 -0.32 3.02 -1 2 C-0.67 1.34 -0.34 0.68 0 0 Z " fill="#E8E8E8" transform="translate(434,409)"/>
<path d="M0 0 C0.33 0 0.66 0 1 0 C2.07421875 5.859375 2.07421875 5.859375 2 8 C1.01 9.32 0.02 10.64 -1 12 C-0.67 8.04 -0.34 4.08 0 0 Z " fill="#E8E8E8" transform="translate(453,383)"/>
<path d="M0 0 C4.455 0.99 4.455 0.99 9 2 C7.68 2.99 6.36 3.98 5 5 C2 3 2 3 0 0 Z " fill="#EBEBEB" transform="translate(396,321)"/>
<path d="M0 0 C2.31 0.33 4.62 0.66 7 1 C7 1.66 7 2.32 7 3 C4.03 3 1.06 3 -2 3 C-1.34 2.01 -0.68 1.02 0 0 Z " fill="#ADADAD" transform="translate(493,308)"/>
<path d="M0 0 C2.97 0.495 2.97 0.495 6 1 C6 1.66 6 2.32 6 3 C5.34 3 4.68 3 4 3 C4.33 3.99 4.66 4.98 5 6 C4.01 6.495 4.01 6.495 3 7 C0 2.25 0 2.25 0 0 Z " fill="#B4B4B4" transform="translate(535,288)"/>
<path d="M0 0 C0.66 0.99 1.32 1.98 2 3 C-0.64 2.67 -3.28 2.34 -6 2 C-6 1.34 -6 0.68 -6 0 C-2.25 -1.125 -2.25 -1.125 0 0 Z " fill="#888888" transform="translate(312,285)"/>
<path d="M0 0 C2.0625 0.4375 2.0625 0.4375 4 1 C3.34 1.66 2.68 2.32 2 3 C1.35232207 5.57061311 1.35232207 5.57061311 1 8 C0.34 7.67 -0.32 7.34 -1 7 C-1.04254356 5.00045254 -1.04080783 2.99958364 -1 1 C-0.67 0.67 -0.34 0.34 0 0 Z " fill="#959593" transform="translate(532,280)"/>
<path d="M0 0 C1.98 0 3.96 0 6 0 C6.33 1.65 6.66 3.3 7 5 C5.35 4.67 3.7 4.34 2 4 C2.33 3.01 2.66 2.02 3 1 C2.01 0.67 1.02 0.34 0 0 Z " fill="#C8C8C8" transform="translate(397,277)"/>
<path d="M0 0 C1.875 0.3125 1.875 0.3125 4 1 C4.66 1.99 5.32 2.98 6 4 C3.36 3.67 0.72 3.34 -2 3 C-1.34 2.67 -0.68 2.34 0 2 C0 1.34 0 0.68 0 0 Z " fill="#A8A8A8" transform="translate(432,268)"/>
<path d="M0 0 C0.66 0 1.32 0 2 0 C2.33 0.66 2.66 1.32 3 2 C3.99 2.33 4.98 2.66 6 3 C6 3.66 6 4.32 6 5 C4.35 5.33 2.7 5.66 1 6 C0.67 4.02 0.34 2.04 0 0 Z " fill="#9E9E9E" transform="translate(504,258)"/>
<path d="M0 0 C0.99 0.66 1.98 1.32 3 2 C-0.75 5 -0.75 5 -3 5 C-3.33 4.01 -3.66 3.02 -4 2 C-2.68 1.34 -1.36 0.68 0 0 Z " fill="#E6E6E6" transform="translate(529,482)"/>
<path d="M0 0 C0.33 0 0.66 0 1 0 C1.66 2.97 2.32 5.94 3 9 C2.01 9.66 1.02 10.32 0 11 C0 7.37 0 3.74 0 0 Z " fill="#E6E6E6" transform="translate(541,459)"/>
<path d="M0 0 C0.33 0.66 0.66 1.32 1 2 C2.32 1.67 3.64 1.34 5 1 C4.67 1.99 4.34 2.98 4 4 C4.66 4.33 5.32 4.66 6 5 C3.0625 4.625 3.0625 4.625 0 4 C-0.33 3.34 -0.66 2.68 -1 2 C-0.67 1.34 -0.34 0.68 0 0 Z " fill="#E7E7E7" transform="translate(462,441)"/>
<path d="M0 0 C1.5 1.125 1.5 1.125 3 3 C3.1875 6.1875 3.1875 6.1875 3 9 C0.11749016 6.61879622 -0.61038985 4.70129644 -1 1 C-0.67 0.67 -0.34 0.34 0 0 Z " fill="#EEEEEE" transform="translate(370,369)"/>
<path d="M0 0 C1.8125 0.1875 1.8125 0.1875 4 1 C5.75 3.5625 5.75 3.5625 7 6 C5.1875 5.8125 5.1875 5.8125 3 5 C1.25 2.4375 1.25 2.4375 0 0 Z " fill="#EFEFEF" transform="translate(380,345)"/>
<path d="M0 0 C0.33 0 0.66 0 1 0 C1 2.64 1 5.28 1 8 C0.01 8.495 0.01 8.495 -1 9 C-1.625 6.1875 -1.625 6.1875 -2 3 C-1.34 2.01 -0.68 1.02 0 0 Z " fill="#BABABA" transform="translate(274,328)"/>
<path d="M0 0 C0.33 0.66 0.66 1.32 1 2 C2.65 1.67 4.3 1.34 6 1 C6 1.66 6 2.32 6 3 C1.545 3.495 1.545 3.495 -3 4 C-2.01 2.68 -1.02 1.36 0 0 Z " fill="#D9D9D9" transform="translate(339,298)"/>
</svg>
